%TF.GenerationSoftware,KiCad,Pcbnew,(5.1.10)-1*%
%TF.CreationDate,2021-06-06T12:15:37+02:00*%
%TF.ProjectId,smart-telefon,736d6172-742d-4746-956c-65666f6e2e6b,1.*%
%TF.SameCoordinates,Original*%
%TF.FileFunction,Copper,L2,Bot*%
%TF.FilePolarity,Positive*%
%FSLAX46Y46*%
G04 Gerber Fmt 4.6, Leading zero omitted, Abs format (unit mm)*
G04 Created by KiCad (PCBNEW (5.1.10)-1) date 2021-06-06 12:15:37*
%MOMM*%
%LPD*%
G01*
G04 APERTURE LIST*
%TA.AperFunction,ComponentPad*%
%ADD10O,1.700000X1.700000*%
%TD*%
%TA.AperFunction,ComponentPad*%
%ADD11R,1.700000X1.700000*%
%TD*%
%TA.AperFunction,ComponentPad*%
%ADD12R,2.000000X2.000000*%
%TD*%
%TA.AperFunction,ComponentPad*%
%ADD13C,2.000000*%
%TD*%
%TA.AperFunction,ComponentPad*%
%ADD14C,1.600000*%
%TD*%
%TA.AperFunction,ComponentPad*%
%ADD15R,1.600000X1.600000*%
%TD*%
%TA.AperFunction,ComponentPad*%
%ADD16O,1.600000X1.600000*%
%TD*%
%TA.AperFunction,ComponentPad*%
%ADD17R,2.500000X1.500000*%
%TD*%
%TA.AperFunction,ComponentPad*%
%ADD18O,2.500000X1.500000*%
%TD*%
%TA.AperFunction,Conductor*%
%ADD19C,1.000000*%
%TD*%
G04 APERTURE END LIST*
D10*
%TO.P,J1,3*%
%TO.N,/POWER*%
X142748000Y-67056000D03*
%TO.P,J1,2*%
%TO.N,/RING*%
X145288000Y-67056000D03*
D11*
%TO.P,J1,1*%
%TO.N,/GND2*%
X147828000Y-67056000D03*
%TD*%
D12*
%TO.P,C1,1*%
%TO.N,Net-(C1-Pad1)*%
X115062000Y-64770000D03*
D13*
%TO.P,C1,2*%
%TO.N,/GND*%
X115062000Y-69770000D03*
%TD*%
D14*
%TO.P,C2,1*%
%TO.N,/VCC*%
X94234000Y-73914000D03*
%TO.P,C2,2*%
%TO.N,/GND*%
X94234000Y-68914000D03*
%TD*%
D15*
%TO.P,D2,1*%
%TO.N,Net-(D2-Pad1)*%
X121666000Y-77470000D03*
D16*
%TO.P,D2,2*%
%TO.N,/GND2*%
X129286000Y-77470000D03*
%TD*%
D11*
%TO.P,J2,1*%
%TO.N,/TX*%
X86360000Y-66294000D03*
D10*
%TO.P,J2,2*%
%TO.N,/GND*%
X88900000Y-66294000D03*
%TO.P,J2,3*%
%TO.N,/CH_PD*%
X86360000Y-68834000D03*
%TO.P,J2,4*%
%TO.N,/GPIO2*%
X88900000Y-68834000D03*
%TO.P,J2,5*%
%TO.N,/RST*%
X86360000Y-71374000D03*
%TO.P,J2,6*%
%TO.N,/GPIO0*%
X88900000Y-71374000D03*
%TO.P,J2,7*%
%TO.N,/VCC*%
X86360000Y-73914000D03*
%TO.P,J2,8*%
%TO.N,/RX*%
X88900000Y-73914000D03*
%TD*%
D14*
%TO.P,R1,1*%
%TO.N,/RING*%
X136906000Y-73152000D03*
D16*
%TO.P,R1,2*%
%TO.N,Net-(D2-Pad1)*%
X121666000Y-73152000D03*
%TD*%
%TO.P,R2,2*%
%TO.N,Net-(R2-Pad2)*%
X121666000Y-69088000D03*
D14*
%TO.P,R2,1*%
%TO.N,/GND2*%
X136906000Y-69088000D03*
%TD*%
%TO.P,R3,1*%
%TO.N,Net-(R3-Pad1)*%
X107442000Y-77216000D03*
D16*
%TO.P,R3,2*%
%TO.N,/RST*%
X92202000Y-77216000D03*
%TD*%
D17*
%TO.P,U1,1*%
%TO.N,Net-(C1-Pad1)*%
X99314000Y-66548000D03*
D18*
%TO.P,U1,2*%
%TO.N,/GND*%
X99314000Y-69088000D03*
%TO.P,U1,3*%
%TO.N,/VCC*%
X99314000Y-71628000D03*
%TD*%
D15*
%TO.P,U2,1*%
%TO.N,Net-(D2-Pad1)*%
X118110000Y-77216000D03*
D16*
%TO.P,U2,3*%
%TO.N,/GND*%
X110490000Y-74676000D03*
%TO.P,U2,2*%
%TO.N,Net-(R2-Pad2)*%
X118110000Y-74676000D03*
%TO.P,U2,4*%
%TO.N,Net-(R3-Pad1)*%
X110490000Y-77216000D03*
%TD*%
D13*
%TO.P,D1,4*%
%TO.N,/POWER*%
X122922000Y-64516000D03*
%TO.P,D1,3*%
%TO.N,Net-(C1-Pad1)*%
X127922000Y-64516000D03*
%TO.P,D1,2*%
%TO.N,/GND2*%
X132922000Y-64516000D03*
D12*
%TO.P,D1,1*%
%TO.N,/GND*%
X137922000Y-64516000D03*
%TD*%
D19*
%TO.N,/VCC*%
X99314000Y-71628000D02*
X99314000Y-73378000D01*
X99314000Y-73378000D02*
X94770000Y-73378000D01*
X94770000Y-73378000D02*
X94234000Y-73914000D01*
%TO.N,Net-(D2-Pad1)*%
X121666000Y-73152000D02*
X121666000Y-77470000D01*
X121666000Y-77470000D02*
X119866000Y-77470000D01*
X118110000Y-77216000D02*
X119612000Y-77216000D01*
X119612000Y-77216000D02*
X119866000Y-77470000D01*
%TO.N,/RST*%
X92202000Y-77216000D02*
X90402000Y-77216000D01*
X90402000Y-77216000D02*
X89656100Y-76470100D01*
X89656100Y-76470100D02*
X86684600Y-76470100D01*
X86684600Y-76470100D02*
X84807600Y-74593100D01*
X84807600Y-74593100D02*
X84807600Y-72926400D01*
X84807600Y-72926400D02*
X86360000Y-71374000D01*
%TO.N,Net-(R2-Pad2)*%
X118110000Y-74676000D02*
X118110000Y-72876000D01*
X121666000Y-69088000D02*
X121666000Y-70888000D01*
X118110000Y-72876000D02*
X119678000Y-72876000D01*
X119678000Y-72876000D02*
X121666000Y-70888000D01*
%TO.N,/RING*%
X136906000Y-73152000D02*
X139192000Y-73152000D01*
X139192000Y-73152000D02*
X145288000Y-67056000D01*
%TO.N,/GND*%
X99314000Y-69088000D02*
X97064000Y-69088000D01*
X97064000Y-69088000D02*
X96890000Y-68914000D01*
X96890000Y-68914000D02*
X94234000Y-68914000D01*
X99314000Y-69088000D02*
X106702000Y-69088000D01*
X106702000Y-69088000D02*
X110490000Y-72876000D01*
X94234000Y-68914000D02*
X91614000Y-66294000D01*
X91614000Y-66294000D02*
X88900000Y-66294000D01*
X110490000Y-74676000D02*
X110490000Y-72876000D01*
X110490000Y-72876000D02*
X111956000Y-72876000D01*
X111956000Y-72876000D02*
X115062000Y-69770000D01*
X137922000Y-64516000D02*
X135922000Y-64516000D01*
X135922000Y-64516000D02*
X133922000Y-66516000D01*
X133922000Y-66516000D02*
X118316000Y-66516000D01*
X118316000Y-66516000D02*
X115062000Y-69770000D01*
%TO.N,/GND2*%
X136906000Y-69088000D02*
X140519900Y-65474100D01*
X140519900Y-65474100D02*
X146246100Y-65474100D01*
X146246100Y-65474100D02*
X147828000Y-67056000D01*
X129286000Y-75670000D02*
X130324000Y-75670000D01*
X130324000Y-75670000D02*
X136906000Y-69088000D01*
X129286000Y-77470000D02*
X129286000Y-75670000D01*
%TD*%
M02*
