%TF.GenerationSoftware,KiCad,Pcbnew,(5.1.10)-1*%
%TF.CreationDate,2021-06-06T12:15:37+02:00*%
%TF.ProjectId,smart-telefon,736d6172-742d-4746-956c-65666f6e2e6b,1.*%
%TF.SameCoordinates,Original*%
%TF.FileFunction,Legend,Top*%
%TF.FilePolarity,Positive*%
%FSLAX46Y46*%
G04 Gerber Fmt 4.6, Leading zero omitted, Abs format (unit mm)*
G04 Created by KiCad (PCBNEW (5.1.10)-1) date 2021-06-06 12:15:37*
%MOMM*%
%LPD*%
G01*
G04 APERTURE LIST*
%ADD10C,0.120000*%
%ADD11C,0.150000*%
G04 APERTURE END LIST*
D10*
%TO.C,J1*%
X149098000Y-65786000D02*
X149098000Y-67056000D01*
X147828000Y-65786000D02*
X149098000Y-65786000D01*
X142368000Y-68098929D02*
X142368000Y-68496000D01*
X143128000Y-68098929D02*
X143128000Y-68496000D01*
X142368000Y-77156000D02*
X142368000Y-71156000D01*
X143128000Y-77156000D02*
X142368000Y-77156000D01*
X143128000Y-71156000D02*
X143128000Y-77156000D01*
X144018000Y-68496000D02*
X144018000Y-71156000D01*
X144908000Y-68098929D02*
X144908000Y-68496000D01*
X145668000Y-68098929D02*
X145668000Y-68496000D01*
X144908000Y-77156000D02*
X144908000Y-71156000D01*
X145668000Y-77156000D02*
X144908000Y-77156000D01*
X145668000Y-71156000D02*
X145668000Y-77156000D01*
X146558000Y-68496000D02*
X146558000Y-71156000D01*
X147448000Y-68166000D02*
X147448000Y-68496000D01*
X148208000Y-68166000D02*
X148208000Y-68496000D01*
X147548000Y-71156000D02*
X147548000Y-77156000D01*
X147668000Y-71156000D02*
X147668000Y-77156000D01*
X147788000Y-71156000D02*
X147788000Y-77156000D01*
X147908000Y-71156000D02*
X147908000Y-77156000D01*
X148028000Y-71156000D02*
X148028000Y-77156000D01*
X148148000Y-71156000D02*
X148148000Y-77156000D01*
X147448000Y-77156000D02*
X147448000Y-71156000D01*
X148208000Y-77156000D02*
X147448000Y-77156000D01*
X148208000Y-71156000D02*
X148208000Y-77156000D01*
X149158000Y-71156000D02*
X149158000Y-68496000D01*
X141418000Y-71156000D02*
X149158000Y-71156000D01*
X141418000Y-68496000D02*
X141418000Y-71156000D01*
X149158000Y-68496000D02*
X141418000Y-68496000D01*
%TO.C,C1*%
X120182000Y-67270000D02*
G75*
G03*
X120182000Y-67270000I-5120000J0D01*
G01*
X120142000Y-67270000D02*
X109982000Y-67270000D01*
X120142000Y-67310000D02*
X109982000Y-67310000D01*
X120142000Y-67350000D02*
X109982000Y-67350000D01*
X120141000Y-67390000D02*
X109983000Y-67390000D01*
X120140000Y-67430000D02*
X109984000Y-67430000D01*
X120139000Y-67470000D02*
X109985000Y-67470000D01*
X120137000Y-67510000D02*
X109987000Y-67510000D01*
X120135000Y-67550000D02*
X109989000Y-67550000D01*
X120132000Y-67590000D02*
X109992000Y-67590000D01*
X120130000Y-67630000D02*
X109994000Y-67630000D01*
X120127000Y-67670000D02*
X109997000Y-67670000D01*
X120124000Y-67710000D02*
X110000000Y-67710000D01*
X120120000Y-67750000D02*
X110004000Y-67750000D01*
X120116000Y-67790000D02*
X110008000Y-67790000D01*
X120112000Y-67830000D02*
X110012000Y-67830000D01*
X120107000Y-67870000D02*
X110017000Y-67870000D01*
X120102000Y-67910000D02*
X110022000Y-67910000D01*
X120097000Y-67950000D02*
X110027000Y-67950000D01*
X120092000Y-67991000D02*
X110032000Y-67991000D01*
X120086000Y-68031000D02*
X110038000Y-68031000D01*
X120080000Y-68071000D02*
X110044000Y-68071000D01*
X120073000Y-68111000D02*
X110051000Y-68111000D01*
X120066000Y-68151000D02*
X110058000Y-68151000D01*
X120059000Y-68191000D02*
X110065000Y-68191000D01*
X120052000Y-68231000D02*
X110072000Y-68231000D01*
X120044000Y-68271000D02*
X110080000Y-68271000D01*
X120036000Y-68311000D02*
X110088000Y-68311000D01*
X120027000Y-68351000D02*
X110097000Y-68351000D01*
X120018000Y-68391000D02*
X110106000Y-68391000D01*
X120009000Y-68431000D02*
X110115000Y-68431000D01*
X120000000Y-68471000D02*
X110124000Y-68471000D01*
X119990000Y-68511000D02*
X110134000Y-68511000D01*
X119980000Y-68551000D02*
X116303000Y-68551000D01*
X113821000Y-68551000D02*
X110144000Y-68551000D01*
X119969000Y-68591000D02*
X116303000Y-68591000D01*
X113821000Y-68591000D02*
X110155000Y-68591000D01*
X119959000Y-68631000D02*
X116303000Y-68631000D01*
X113821000Y-68631000D02*
X110165000Y-68631000D01*
X119947000Y-68671000D02*
X116303000Y-68671000D01*
X113821000Y-68671000D02*
X110177000Y-68671000D01*
X119936000Y-68711000D02*
X116303000Y-68711000D01*
X113821000Y-68711000D02*
X110188000Y-68711000D01*
X119924000Y-68751000D02*
X116303000Y-68751000D01*
X113821000Y-68751000D02*
X110200000Y-68751000D01*
X119912000Y-68791000D02*
X116303000Y-68791000D01*
X113821000Y-68791000D02*
X110212000Y-68791000D01*
X119899000Y-68831000D02*
X116303000Y-68831000D01*
X113821000Y-68831000D02*
X110225000Y-68831000D01*
X119886000Y-68871000D02*
X116303000Y-68871000D01*
X113821000Y-68871000D02*
X110238000Y-68871000D01*
X119873000Y-68911000D02*
X116303000Y-68911000D01*
X113821000Y-68911000D02*
X110251000Y-68911000D01*
X119859000Y-68951000D02*
X116303000Y-68951000D01*
X113821000Y-68951000D02*
X110265000Y-68951000D01*
X119845000Y-68991000D02*
X116303000Y-68991000D01*
X113821000Y-68991000D02*
X110279000Y-68991000D01*
X119830000Y-69031000D02*
X116303000Y-69031000D01*
X113821000Y-69031000D02*
X110294000Y-69031000D01*
X119816000Y-69071000D02*
X116303000Y-69071000D01*
X113821000Y-69071000D02*
X110308000Y-69071000D01*
X119800000Y-69111000D02*
X116303000Y-69111000D01*
X113821000Y-69111000D02*
X110324000Y-69111000D01*
X119785000Y-69151000D02*
X116303000Y-69151000D01*
X113821000Y-69151000D02*
X110339000Y-69151000D01*
X119769000Y-69191000D02*
X116303000Y-69191000D01*
X113821000Y-69191000D02*
X110355000Y-69191000D01*
X119752000Y-69231000D02*
X116303000Y-69231000D01*
X113821000Y-69231000D02*
X110372000Y-69231000D01*
X119736000Y-69271000D02*
X116303000Y-69271000D01*
X113821000Y-69271000D02*
X110388000Y-69271000D01*
X119719000Y-69311000D02*
X116303000Y-69311000D01*
X113821000Y-69311000D02*
X110405000Y-69311000D01*
X119701000Y-69351000D02*
X116303000Y-69351000D01*
X113821000Y-69351000D02*
X110423000Y-69351000D01*
X119683000Y-69391000D02*
X116303000Y-69391000D01*
X113821000Y-69391000D02*
X110441000Y-69391000D01*
X119665000Y-69431000D02*
X116303000Y-69431000D01*
X113821000Y-69431000D02*
X110459000Y-69431000D01*
X119646000Y-69471000D02*
X116303000Y-69471000D01*
X113821000Y-69471000D02*
X110478000Y-69471000D01*
X119626000Y-69511000D02*
X116303000Y-69511000D01*
X113821000Y-69511000D02*
X110498000Y-69511000D01*
X119607000Y-69551000D02*
X116303000Y-69551000D01*
X113821000Y-69551000D02*
X110517000Y-69551000D01*
X119587000Y-69591000D02*
X116303000Y-69591000D01*
X113821000Y-69591000D02*
X110537000Y-69591000D01*
X119566000Y-69631000D02*
X116303000Y-69631000D01*
X113821000Y-69631000D02*
X110558000Y-69631000D01*
X119545000Y-69671000D02*
X116303000Y-69671000D01*
X113821000Y-69671000D02*
X110579000Y-69671000D01*
X119524000Y-69711000D02*
X116303000Y-69711000D01*
X113821000Y-69711000D02*
X110600000Y-69711000D01*
X119502000Y-69751000D02*
X116303000Y-69751000D01*
X113821000Y-69751000D02*
X110622000Y-69751000D01*
X119479000Y-69791000D02*
X116303000Y-69791000D01*
X113821000Y-69791000D02*
X110645000Y-69791000D01*
X119457000Y-69831000D02*
X116303000Y-69831000D01*
X113821000Y-69831000D02*
X110667000Y-69831000D01*
X119433000Y-69871000D02*
X116303000Y-69871000D01*
X113821000Y-69871000D02*
X110691000Y-69871000D01*
X119409000Y-69911000D02*
X116303000Y-69911000D01*
X113821000Y-69911000D02*
X110715000Y-69911000D01*
X119385000Y-69951000D02*
X116303000Y-69951000D01*
X113821000Y-69951000D02*
X110739000Y-69951000D01*
X119360000Y-69991000D02*
X116303000Y-69991000D01*
X113821000Y-69991000D02*
X110764000Y-69991000D01*
X119335000Y-70031000D02*
X116303000Y-70031000D01*
X113821000Y-70031000D02*
X110789000Y-70031000D01*
X119309000Y-70071000D02*
X116303000Y-70071000D01*
X113821000Y-70071000D02*
X110815000Y-70071000D01*
X119283000Y-70111000D02*
X116303000Y-70111000D01*
X113821000Y-70111000D02*
X110841000Y-70111000D01*
X119256000Y-70151000D02*
X116303000Y-70151000D01*
X113821000Y-70151000D02*
X110868000Y-70151000D01*
X119228000Y-70191000D02*
X116303000Y-70191000D01*
X113821000Y-70191000D02*
X110896000Y-70191000D01*
X119200000Y-70231000D02*
X116303000Y-70231000D01*
X113821000Y-70231000D02*
X110924000Y-70231000D01*
X119172000Y-70271000D02*
X116303000Y-70271000D01*
X113821000Y-70271000D02*
X110952000Y-70271000D01*
X119142000Y-70311000D02*
X116303000Y-70311000D01*
X113821000Y-70311000D02*
X110982000Y-70311000D01*
X119112000Y-70351000D02*
X116303000Y-70351000D01*
X113821000Y-70351000D02*
X111012000Y-70351000D01*
X119082000Y-70391000D02*
X116303000Y-70391000D01*
X113821000Y-70391000D02*
X111042000Y-70391000D01*
X119051000Y-70431000D02*
X116303000Y-70431000D01*
X113821000Y-70431000D02*
X111073000Y-70431000D01*
X119019000Y-70471000D02*
X116303000Y-70471000D01*
X113821000Y-70471000D02*
X111105000Y-70471000D01*
X118987000Y-70511000D02*
X116303000Y-70511000D01*
X113821000Y-70511000D02*
X111137000Y-70511000D01*
X118954000Y-70551000D02*
X116303000Y-70551000D01*
X113821000Y-70551000D02*
X111170000Y-70551000D01*
X118920000Y-70591000D02*
X116303000Y-70591000D01*
X113821000Y-70591000D02*
X111204000Y-70591000D01*
X118886000Y-70631000D02*
X116303000Y-70631000D01*
X113821000Y-70631000D02*
X111238000Y-70631000D01*
X118851000Y-70671000D02*
X116303000Y-70671000D01*
X113821000Y-70671000D02*
X111273000Y-70671000D01*
X118815000Y-70711000D02*
X116303000Y-70711000D01*
X113821000Y-70711000D02*
X111309000Y-70711000D01*
X118778000Y-70751000D02*
X116303000Y-70751000D01*
X113821000Y-70751000D02*
X111346000Y-70751000D01*
X118741000Y-70791000D02*
X116303000Y-70791000D01*
X113821000Y-70791000D02*
X111383000Y-70791000D01*
X118702000Y-70831000D02*
X116303000Y-70831000D01*
X113821000Y-70831000D02*
X111422000Y-70831000D01*
X118663000Y-70871000D02*
X116303000Y-70871000D01*
X113821000Y-70871000D02*
X111461000Y-70871000D01*
X118623000Y-70911000D02*
X116303000Y-70911000D01*
X113821000Y-70911000D02*
X111501000Y-70911000D01*
X118582000Y-70951000D02*
X116303000Y-70951000D01*
X113821000Y-70951000D02*
X111542000Y-70951000D01*
X118540000Y-70991000D02*
X116303000Y-70991000D01*
X113821000Y-70991000D02*
X111584000Y-70991000D01*
X118498000Y-71031000D02*
X111626000Y-71031000D01*
X118454000Y-71071000D02*
X111670000Y-71071000D01*
X118409000Y-71111000D02*
X111715000Y-71111000D01*
X118363000Y-71151000D02*
X111761000Y-71151000D01*
X118316000Y-71191000D02*
X111808000Y-71191000D01*
X118268000Y-71231000D02*
X111856000Y-71231000D01*
X118218000Y-71271000D02*
X111906000Y-71271000D01*
X118168000Y-71311000D02*
X111956000Y-71311000D01*
X118116000Y-71351000D02*
X112008000Y-71351000D01*
X118062000Y-71391000D02*
X112062000Y-71391000D01*
X118007000Y-71431000D02*
X112117000Y-71431000D01*
X117951000Y-71471000D02*
X112173000Y-71471000D01*
X117892000Y-71511000D02*
X112232000Y-71511000D01*
X117832000Y-71551000D02*
X112292000Y-71551000D01*
X117771000Y-71591000D02*
X112353000Y-71591000D01*
X117707000Y-71631000D02*
X112417000Y-71631000D01*
X117641000Y-71671000D02*
X112483000Y-71671000D01*
X117572000Y-71711000D02*
X112552000Y-71711000D01*
X117501000Y-71751000D02*
X112623000Y-71751000D01*
X117427000Y-71791000D02*
X112697000Y-71791000D01*
X117351000Y-71831000D02*
X112773000Y-71831000D01*
X117271000Y-71871000D02*
X112853000Y-71871000D01*
X117187000Y-71911000D02*
X112937000Y-71911000D01*
X117099000Y-71951000D02*
X113025000Y-71951000D01*
X117006000Y-71991000D02*
X113118000Y-71991000D01*
X116908000Y-72031000D02*
X113216000Y-72031000D01*
X116804000Y-72071000D02*
X113320000Y-72071000D01*
X116692000Y-72111000D02*
X113432000Y-72111000D01*
X116572000Y-72151000D02*
X113552000Y-72151000D01*
X116440000Y-72191000D02*
X113684000Y-72191000D01*
X116292000Y-72231000D02*
X113832000Y-72231000D01*
X116124000Y-72271000D02*
X114000000Y-72271000D01*
X115924000Y-72311000D02*
X114200000Y-72311000D01*
X115661000Y-72351000D02*
X114463000Y-72351000D01*
X117937000Y-61790354D02*
X117937000Y-62790354D01*
X118437000Y-62290354D02*
X117437000Y-62290354D01*
%TO.C,C2*%
X93164000Y-73684000D02*
X93164000Y-69144000D01*
X95304000Y-73684000D02*
X95304000Y-69144000D01*
X93164000Y-73684000D02*
X93179000Y-73684000D01*
X95289000Y-73684000D02*
X95304000Y-73684000D01*
X93164000Y-69144000D02*
X93179000Y-69144000D01*
X95289000Y-69144000D02*
X95304000Y-69144000D01*
%TO.C,D2*%
X123356000Y-76350000D02*
X123356000Y-78590000D01*
X123356000Y-78590000D02*
X127596000Y-78590000D01*
X127596000Y-78590000D02*
X127596000Y-76350000D01*
X127596000Y-76350000D02*
X123356000Y-76350000D01*
X122706000Y-77470000D02*
X123356000Y-77470000D01*
X128246000Y-77470000D02*
X127596000Y-77470000D01*
X124076000Y-76350000D02*
X124076000Y-78590000D01*
X124196000Y-76350000D02*
X124196000Y-78590000D01*
X123956000Y-76350000D02*
X123956000Y-78590000D01*
%TO.C,J2*%
X85030000Y-75244000D02*
X90230000Y-75244000D01*
X85030000Y-67564000D02*
X85030000Y-75244000D01*
X90230000Y-64964000D02*
X90230000Y-75244000D01*
X85030000Y-67564000D02*
X87630000Y-67564000D01*
X87630000Y-67564000D02*
X87630000Y-64964000D01*
X87630000Y-64964000D02*
X90230000Y-64964000D01*
X85030000Y-66294000D02*
X85030000Y-64964000D01*
X85030000Y-64964000D02*
X86360000Y-64964000D01*
%TO.C,R1*%
X132556000Y-74522000D02*
X132556000Y-71782000D01*
X132556000Y-71782000D02*
X126016000Y-71782000D01*
X126016000Y-71782000D02*
X126016000Y-74522000D01*
X126016000Y-74522000D02*
X132556000Y-74522000D01*
X135866000Y-73152000D02*
X132556000Y-73152000D01*
X122706000Y-73152000D02*
X126016000Y-73152000D01*
%TO.C,R2*%
X122706000Y-69088000D02*
X126016000Y-69088000D01*
X135866000Y-69088000D02*
X132556000Y-69088000D01*
X126016000Y-70458000D02*
X132556000Y-70458000D01*
X126016000Y-67718000D02*
X126016000Y-70458000D01*
X132556000Y-67718000D02*
X126016000Y-67718000D01*
X132556000Y-70458000D02*
X132556000Y-67718000D01*
%TO.C,R3*%
X103092000Y-78586000D02*
X103092000Y-75846000D01*
X103092000Y-75846000D02*
X96552000Y-75846000D01*
X96552000Y-75846000D02*
X96552000Y-78586000D01*
X96552000Y-78586000D02*
X103092000Y-78586000D01*
X106402000Y-77216000D02*
X103092000Y-77216000D01*
X93242000Y-77216000D02*
X96552000Y-77216000D01*
%TO.C,U1*%
X96864000Y-62798000D02*
X96864000Y-65128000D01*
X99314000Y-62798000D02*
X96864000Y-62798000D01*
X97194000Y-75068000D02*
X97194000Y-63128000D01*
X105044000Y-75068000D02*
X97194000Y-75068000D01*
X105044000Y-63128000D02*
X105044000Y-75068000D01*
X97194000Y-63128000D02*
X105044000Y-63128000D01*
%TO.C,U2*%
X115300000Y-78546000D02*
X116950000Y-78546000D01*
X116950000Y-78546000D02*
X116950000Y-73346000D01*
X116950000Y-73346000D02*
X111650000Y-73346000D01*
X111650000Y-73346000D02*
X111650000Y-78546000D01*
X111650000Y-78546000D02*
X113300000Y-78546000D01*
X113300000Y-78546000D02*
G75*
G02*
X115300000Y-78546000I1000000J0D01*
G01*
%TO.C,D1*%
X140022000Y-62716000D02*
X140022000Y-66316000D01*
X140022000Y-66316000D02*
X120822000Y-66316000D01*
X120822000Y-66316000D02*
X120822000Y-62716000D01*
X120822000Y-62716000D02*
X140022000Y-62716000D01*
X140222000Y-65216000D02*
X140222000Y-66516000D01*
X140222000Y-66516000D02*
X138922000Y-66516000D01*
%TO.C,J1*%
D11*
X149550380Y-71774333D02*
X150264666Y-71774333D01*
X150407523Y-71821952D01*
X150502761Y-71917190D01*
X150550380Y-72060047D01*
X150550380Y-72155285D01*
X150550380Y-70774333D02*
X150550380Y-71345761D01*
X150550380Y-71060047D02*
X149550380Y-71060047D01*
X149693238Y-71155285D01*
X149788476Y-71250523D01*
X149836095Y-71345761D01*
%TO.C,C1*%
X109323142Y-64174666D02*
X109370761Y-64222285D01*
X109418380Y-64365142D01*
X109418380Y-64460380D01*
X109370761Y-64603238D01*
X109275523Y-64698476D01*
X109180285Y-64746095D01*
X108989809Y-64793714D01*
X108846952Y-64793714D01*
X108656476Y-64746095D01*
X108561238Y-64698476D01*
X108466000Y-64603238D01*
X108418380Y-64460380D01*
X108418380Y-64365142D01*
X108466000Y-64222285D01*
X108513619Y-64174666D01*
X109418380Y-63222285D02*
X109418380Y-63793714D01*
X109418380Y-63508000D02*
X108418380Y-63508000D01*
X108561238Y-63603238D01*
X108656476Y-63698476D01*
X108704095Y-63793714D01*
%TO.C,C2*%
X96623142Y-69254666D02*
X96670761Y-69302285D01*
X96718380Y-69445142D01*
X96718380Y-69540380D01*
X96670761Y-69683238D01*
X96575523Y-69778476D01*
X96480285Y-69826095D01*
X96289809Y-69873714D01*
X96146952Y-69873714D01*
X95956476Y-69826095D01*
X95861238Y-69778476D01*
X95766000Y-69683238D01*
X95718380Y-69540380D01*
X95718380Y-69445142D01*
X95766000Y-69302285D01*
X95813619Y-69254666D01*
X95813619Y-68873714D02*
X95766000Y-68826095D01*
X95718380Y-68730857D01*
X95718380Y-68492761D01*
X95766000Y-68397523D01*
X95813619Y-68349904D01*
X95908857Y-68302285D01*
X96004095Y-68302285D01*
X96146952Y-68349904D01*
X96718380Y-68921333D01*
X96718380Y-68302285D01*
%TO.C,D2*%
X128547904Y-80208380D02*
X128547904Y-79208380D01*
X128786000Y-79208380D01*
X128928857Y-79256000D01*
X129024095Y-79351238D01*
X129071714Y-79446476D01*
X129119333Y-79636952D01*
X129119333Y-79779809D01*
X129071714Y-79970285D01*
X129024095Y-80065523D01*
X128928857Y-80160761D01*
X128786000Y-80208380D01*
X128547904Y-80208380D01*
X129500285Y-79303619D02*
X129547904Y-79256000D01*
X129643142Y-79208380D01*
X129881238Y-79208380D01*
X129976476Y-79256000D01*
X130024095Y-79303619D01*
X130071714Y-79398857D01*
X130071714Y-79494095D01*
X130024095Y-79636952D01*
X129452666Y-80208380D01*
X130071714Y-80208380D01*
X121404095Y-76122380D02*
X121404095Y-75122380D01*
X121975523Y-76122380D02*
X121546952Y-75550952D01*
X121975523Y-75122380D02*
X121404095Y-75693809D01*
%TO.C,J2*%
X91146380Y-65865333D02*
X91860666Y-65865333D01*
X92003523Y-65912952D01*
X92098761Y-66008190D01*
X92146380Y-66151047D01*
X92146380Y-66246285D01*
X91241619Y-65436761D02*
X91194000Y-65389142D01*
X91146380Y-65293904D01*
X91146380Y-65055809D01*
X91194000Y-64960571D01*
X91241619Y-64912952D01*
X91336857Y-64865333D01*
X91432095Y-64865333D01*
X91574952Y-64912952D01*
X92146380Y-65484380D01*
X92146380Y-64865333D01*
%TO.C,R1*%
X131405333Y-75890380D02*
X131072000Y-75414190D01*
X130833904Y-75890380D02*
X130833904Y-74890380D01*
X131214857Y-74890380D01*
X131310095Y-74938000D01*
X131357714Y-74985619D01*
X131405333Y-75080857D01*
X131405333Y-75223714D01*
X131357714Y-75318952D01*
X131310095Y-75366571D01*
X131214857Y-75414190D01*
X130833904Y-75414190D01*
X132357714Y-75890380D02*
X131786285Y-75890380D01*
X132072000Y-75890380D02*
X132072000Y-74890380D01*
X131976761Y-75033238D01*
X131881523Y-75128476D01*
X131786285Y-75176095D01*
%TO.C,R2*%
X129119333Y-72080380D02*
X128786000Y-71604190D01*
X128547904Y-72080380D02*
X128547904Y-71080380D01*
X128928857Y-71080380D01*
X129024095Y-71128000D01*
X129071714Y-71175619D01*
X129119333Y-71270857D01*
X129119333Y-71413714D01*
X129071714Y-71508952D01*
X129024095Y-71556571D01*
X128928857Y-71604190D01*
X128547904Y-71604190D01*
X129500285Y-71175619D02*
X129547904Y-71128000D01*
X129643142Y-71080380D01*
X129881238Y-71080380D01*
X129976476Y-71128000D01*
X130024095Y-71175619D01*
X130071714Y-71270857D01*
X130071714Y-71366095D01*
X130024095Y-71508952D01*
X129452666Y-72080380D01*
X130071714Y-72080380D01*
%TO.C,R3*%
X99655333Y-79954380D02*
X99322000Y-79478190D01*
X99083904Y-79954380D02*
X99083904Y-78954380D01*
X99464857Y-78954380D01*
X99560095Y-79002000D01*
X99607714Y-79049619D01*
X99655333Y-79144857D01*
X99655333Y-79287714D01*
X99607714Y-79382952D01*
X99560095Y-79430571D01*
X99464857Y-79478190D01*
X99083904Y-79478190D01*
X99988666Y-78954380D02*
X100607714Y-78954380D01*
X100274380Y-79335333D01*
X100417238Y-79335333D01*
X100512476Y-79382952D01*
X100560095Y-79430571D01*
X100607714Y-79525809D01*
X100607714Y-79763904D01*
X100560095Y-79859142D01*
X100512476Y-79906761D01*
X100417238Y-79954380D01*
X100131523Y-79954380D01*
X100036285Y-79906761D01*
X99988666Y-79859142D01*
%TO.C,U1*%
X105476380Y-64769904D02*
X106285904Y-64769904D01*
X106381142Y-64722285D01*
X106428761Y-64674666D01*
X106476380Y-64579428D01*
X106476380Y-64388952D01*
X106428761Y-64293714D01*
X106381142Y-64246095D01*
X106285904Y-64198476D01*
X105476380Y-64198476D01*
X106476380Y-63198476D02*
X106476380Y-63769904D01*
X106476380Y-63484190D02*
X105476380Y-63484190D01*
X105619238Y-63579428D01*
X105714476Y-63674666D01*
X105762095Y-63769904D01*
%TO.C,U2*%
X114554095Y-79088380D02*
X114554095Y-79897904D01*
X114601714Y-79993142D01*
X114649333Y-80040761D01*
X114744571Y-80088380D01*
X114935047Y-80088380D01*
X115030285Y-80040761D01*
X115077904Y-79993142D01*
X115125523Y-79897904D01*
X115125523Y-79088380D01*
X115554095Y-79183619D02*
X115601714Y-79136000D01*
X115696952Y-79088380D01*
X115935047Y-79088380D01*
X116030285Y-79136000D01*
X116077904Y-79183619D01*
X116125523Y-79278857D01*
X116125523Y-79374095D01*
X116077904Y-79516952D01*
X115506476Y-80088380D01*
X116125523Y-80088380D01*
%TO.C,D1*%
X129483904Y-67568380D02*
X129483904Y-66568380D01*
X129722000Y-66568380D01*
X129864857Y-66616000D01*
X129960095Y-66711238D01*
X130007714Y-66806476D01*
X130055333Y-66996952D01*
X130055333Y-67139809D01*
X130007714Y-67330285D01*
X129960095Y-67425523D01*
X129864857Y-67520761D01*
X129722000Y-67568380D01*
X129483904Y-67568380D01*
X131007714Y-67568380D02*
X130436285Y-67568380D01*
X130722000Y-67568380D02*
X130722000Y-66568380D01*
X130626761Y-66711238D01*
X130531523Y-66806476D01*
X130436285Y-66854095D01*
%TD*%
M02*
