%TF.GenerationSoftware,KiCad,Pcbnew,(5.1.10)-1*%
%TF.CreationDate,2021-06-06T12:15:37+02:00*%
%TF.ProjectId,smart-telefon,736d6172-742d-4746-956c-65666f6e2e6b,1.*%
%TF.SameCoordinates,Original*%
%TF.FileFunction,Copper,L1,Top*%
%TF.FilePolarity,Positive*%
%FSLAX46Y46*%
G04 Gerber Fmt 4.6, Leading zero omitted, Abs format (unit mm)*
G04 Created by KiCad (PCBNEW (5.1.10)-1) date 2021-06-06 12:15:37*
%MOMM*%
%LPD*%
G01*
G04 APERTURE LIST*
%TA.AperFunction,NonConductor*%
%ADD10C,0.125000*%
%TD*%
%TA.AperFunction,NonConductor*%
%ADD11C,0.100000*%
%TD*%
%TA.AperFunction,NonConductor*%
%ADD12C,0.250000*%
%TD*%
%TA.AperFunction,ComponentPad*%
%ADD13O,1.700000X1.700000*%
%TD*%
%TA.AperFunction,ComponentPad*%
%ADD14R,1.700000X1.700000*%
%TD*%
%TA.AperFunction,ComponentPad*%
%ADD15R,2.000000X2.000000*%
%TD*%
%TA.AperFunction,ComponentPad*%
%ADD16C,2.000000*%
%TD*%
%TA.AperFunction,ComponentPad*%
%ADD17C,1.600000*%
%TD*%
%TA.AperFunction,ComponentPad*%
%ADD18R,1.600000X1.600000*%
%TD*%
%TA.AperFunction,ComponentPad*%
%ADD19O,1.600000X1.600000*%
%TD*%
%TA.AperFunction,ComponentPad*%
%ADD20R,2.500000X1.500000*%
%TD*%
%TA.AperFunction,ComponentPad*%
%ADD21O,2.500000X1.500000*%
%TD*%
%TA.AperFunction,Conductor*%
%ADD22C,1.000000*%
%TD*%
G04 APERTURE END LIST*
D10*
X88519047Y-63504000D02*
X88471428Y-63480190D01*
X88400000Y-63480190D01*
X88328571Y-63504000D01*
X88280952Y-63551619D01*
X88257142Y-63599238D01*
X88233333Y-63694476D01*
X88233333Y-63765904D01*
X88257142Y-63861142D01*
X88280952Y-63908761D01*
X88328571Y-63956380D01*
X88400000Y-63980190D01*
X88447619Y-63980190D01*
X88519047Y-63956380D01*
X88542857Y-63932571D01*
X88542857Y-63765904D01*
X88447619Y-63765904D01*
X88757142Y-63980190D02*
X88757142Y-63480190D01*
X89042857Y-63980190D01*
X89042857Y-63480190D01*
X89280952Y-63980190D02*
X89280952Y-63480190D01*
X89400000Y-63480190D01*
X89471428Y-63504000D01*
X89519047Y-63551619D01*
X89542857Y-63599238D01*
X89566666Y-63694476D01*
X89566666Y-63765904D01*
X89542857Y-63861142D01*
X89519047Y-63908761D01*
X89471428Y-63956380D01*
X89400000Y-63980190D01*
X89280952Y-63980190D01*
D11*
X138303047Y-61472000D02*
X138255428Y-61448190D01*
X138184000Y-61448190D01*
X138112571Y-61472000D01*
X138064952Y-61519619D01*
X138041142Y-61567238D01*
X138017333Y-61662476D01*
X138017333Y-61733904D01*
X138041142Y-61829142D01*
X138064952Y-61876761D01*
X138112571Y-61924380D01*
X138184000Y-61948190D01*
X138231619Y-61948190D01*
X138303047Y-61924380D01*
X138326857Y-61900571D01*
X138326857Y-61733904D01*
X138231619Y-61733904D01*
X138541142Y-61948190D02*
X138541142Y-61448190D01*
X138826857Y-61948190D01*
X138826857Y-61448190D01*
X139064952Y-61948190D02*
X139064952Y-61448190D01*
X139184000Y-61448190D01*
X139255428Y-61472000D01*
X139303047Y-61519619D01*
X139326857Y-61567238D01*
X139350666Y-61662476D01*
X139350666Y-61733904D01*
X139326857Y-61829142D01*
X139303047Y-61876761D01*
X139255428Y-61924380D01*
X139184000Y-61948190D01*
X139064952Y-61948190D01*
D12*
X150335619Y-79494000D02*
X150430857Y-79541619D01*
X150573714Y-79541619D01*
X150716571Y-79494000D01*
X150811809Y-79398761D01*
X150859428Y-79303523D01*
X150907047Y-79113047D01*
X150907047Y-78970190D01*
X150859428Y-78779714D01*
X150811809Y-78684476D01*
X150716571Y-78589238D01*
X150573714Y-78541619D01*
X150478476Y-78541619D01*
X150335619Y-78589238D01*
X150288000Y-78636857D01*
X150288000Y-78970190D01*
X150478476Y-78970190D01*
X149859428Y-78541619D02*
X149859428Y-79541619D01*
X149288000Y-78541619D01*
X149288000Y-79541619D01*
X148811809Y-78541619D02*
X148811809Y-79541619D01*
X148573714Y-79541619D01*
X148430857Y-79494000D01*
X148335619Y-79398761D01*
X148288000Y-79303523D01*
X148240380Y-79113047D01*
X148240380Y-78970190D01*
X148288000Y-78779714D01*
X148335619Y-78684476D01*
X148430857Y-78589238D01*
X148573714Y-78541619D01*
X148811809Y-78541619D01*
X147573714Y-78208285D02*
X147573714Y-79636857D01*
X146288000Y-78541619D02*
X146621333Y-79017809D01*
X146859428Y-78541619D02*
X146859428Y-79541619D01*
X146478476Y-79541619D01*
X146383238Y-79494000D01*
X146335619Y-79446380D01*
X146288000Y-79351142D01*
X146288000Y-79208285D01*
X146335619Y-79113047D01*
X146383238Y-79065428D01*
X146478476Y-79017809D01*
X146859428Y-79017809D01*
X145859428Y-78541619D02*
X145859428Y-79541619D01*
X145383238Y-78541619D02*
X145383238Y-79541619D01*
X144811809Y-78541619D01*
X144811809Y-79541619D01*
X143811809Y-79494000D02*
X143907047Y-79541619D01*
X144049904Y-79541619D01*
X144192761Y-79494000D01*
X144288000Y-79398761D01*
X144335619Y-79303523D01*
X144383238Y-79113047D01*
X144383238Y-78970190D01*
X144335619Y-78779714D01*
X144288000Y-78684476D01*
X144192761Y-78589238D01*
X144049904Y-78541619D01*
X143954666Y-78541619D01*
X143811809Y-78589238D01*
X143764190Y-78636857D01*
X143764190Y-78970190D01*
X143954666Y-78970190D01*
X143097523Y-78208285D02*
X143097523Y-79636857D01*
X142383238Y-78541619D02*
X142383238Y-79541619D01*
X142002285Y-79541619D01*
X141907047Y-79494000D01*
X141859428Y-79446380D01*
X141811809Y-79351142D01*
X141811809Y-79208285D01*
X141859428Y-79113047D01*
X141907047Y-79065428D01*
X142002285Y-79017809D01*
X142383238Y-79017809D01*
X141478476Y-79541619D02*
X141240380Y-78541619D01*
X141049904Y-79255904D01*
X140859428Y-78541619D01*
X140621333Y-79541619D01*
X139668952Y-78541619D02*
X140002285Y-79017809D01*
X140240380Y-78541619D02*
X140240380Y-79541619D01*
X139859428Y-79541619D01*
X139764190Y-79494000D01*
X139716571Y-79446380D01*
X139668952Y-79351142D01*
X139668952Y-79208285D01*
X139716571Y-79113047D01*
X139764190Y-79065428D01*
X139859428Y-79017809D01*
X140240380Y-79017809D01*
D13*
%TO.P,J1,3*%
%TO.N,/POWER*%
X142748000Y-67056000D03*
%TO.P,J1,2*%
%TO.N,/RING*%
X145288000Y-67056000D03*
D14*
%TO.P,J1,1*%
%TO.N,/GND2*%
X147828000Y-67056000D03*
%TD*%
D15*
%TO.P,C1,1*%
%TO.N,Net-(C1-Pad1)*%
X115062000Y-64770000D03*
D16*
%TO.P,C1,2*%
%TO.N,/GND*%
X115062000Y-69770000D03*
%TD*%
D17*
%TO.P,C2,1*%
%TO.N,/VCC*%
X94234000Y-73914000D03*
%TO.P,C2,2*%
%TO.N,/GND*%
X94234000Y-68914000D03*
%TD*%
D18*
%TO.P,D2,1*%
%TO.N,Net-(D2-Pad1)*%
X121666000Y-77470000D03*
D19*
%TO.P,D2,2*%
%TO.N,/GND2*%
X129286000Y-77470000D03*
%TD*%
D14*
%TO.P,J2,1*%
%TO.N,/TX*%
X86360000Y-66294000D03*
D13*
%TO.P,J2,2*%
%TO.N,/GND*%
X88900000Y-66294000D03*
%TO.P,J2,3*%
%TO.N,/CH_PD*%
X86360000Y-68834000D03*
%TO.P,J2,4*%
%TO.N,/GPIO2*%
X88900000Y-68834000D03*
%TO.P,J2,5*%
%TO.N,/RST*%
X86360000Y-71374000D03*
%TO.P,J2,6*%
%TO.N,/GPIO0*%
X88900000Y-71374000D03*
%TO.P,J2,7*%
%TO.N,/VCC*%
X86360000Y-73914000D03*
%TO.P,J2,8*%
%TO.N,/RX*%
X88900000Y-73914000D03*
%TD*%
D17*
%TO.P,R1,1*%
%TO.N,/RING*%
X136906000Y-73152000D03*
D19*
%TO.P,R1,2*%
%TO.N,Net-(D2-Pad1)*%
X121666000Y-73152000D03*
%TD*%
%TO.P,R2,2*%
%TO.N,Net-(R2-Pad2)*%
X121666000Y-69088000D03*
D17*
%TO.P,R2,1*%
%TO.N,/GND2*%
X136906000Y-69088000D03*
%TD*%
%TO.P,R3,1*%
%TO.N,Net-(R3-Pad1)*%
X107442000Y-77216000D03*
D19*
%TO.P,R3,2*%
%TO.N,/RST*%
X92202000Y-77216000D03*
%TD*%
D20*
%TO.P,U1,1*%
%TO.N,Net-(C1-Pad1)*%
X99314000Y-66548000D03*
D21*
%TO.P,U1,2*%
%TO.N,/GND*%
X99314000Y-69088000D03*
%TO.P,U1,3*%
%TO.N,/VCC*%
X99314000Y-71628000D03*
%TD*%
D18*
%TO.P,U2,1*%
%TO.N,Net-(D2-Pad1)*%
X118110000Y-77216000D03*
D19*
%TO.P,U2,3*%
%TO.N,/GND*%
X110490000Y-74676000D03*
%TO.P,U2,2*%
%TO.N,Net-(R2-Pad2)*%
X118110000Y-74676000D03*
%TO.P,U2,4*%
%TO.N,Net-(R3-Pad1)*%
X110490000Y-77216000D03*
%TD*%
D16*
%TO.P,D1,4*%
%TO.N,/POWER*%
X122922000Y-64516000D03*
%TO.P,D1,3*%
%TO.N,Net-(C1-Pad1)*%
X127922000Y-64516000D03*
%TO.P,D1,2*%
%TO.N,/GND2*%
X132922000Y-64516000D03*
D15*
%TO.P,D1,1*%
%TO.N,/GND*%
X137922000Y-64516000D03*
%TD*%
D22*
%TO.N,Net-(C1-Pad1)*%
X115062000Y-64770000D02*
X117062000Y-64770000D01*
X127922000Y-64516000D02*
X126197500Y-66240500D01*
X126197500Y-66240500D02*
X118532500Y-66240500D01*
X118532500Y-66240500D02*
X117062000Y-64770000D01*
X115062000Y-64770000D02*
X113062000Y-64770000D01*
X99314000Y-66548000D02*
X99314000Y-64798000D01*
X99314000Y-64798000D02*
X113034000Y-64798000D01*
X113034000Y-64798000D02*
X113062000Y-64770000D01*
%TO.N,/VCC*%
X94234000Y-73914000D02*
X92678800Y-75469200D01*
X92678800Y-75469200D02*
X87915200Y-75469200D01*
X87915200Y-75469200D02*
X86360000Y-73914000D01*
%TO.N,Net-(R3-Pad1)*%
X110490000Y-77216000D02*
X107442000Y-77216000D01*
%TO.N,/POWER*%
X142748000Y-67056000D02*
X142748000Y-65206000D01*
X122922000Y-64516000D02*
X124622400Y-62815600D01*
X124622400Y-62815600D02*
X140357600Y-62815600D01*
X140357600Y-62815600D02*
X142748000Y-65206000D01*
%TO.N,/GND2*%
X132922000Y-64516000D02*
X132922000Y-65104000D01*
X132922000Y-65104000D02*
X136906000Y-69088000D01*
%TD*%
M02*
