M48
; DRILL file {KiCad (5.1.12)-1} date 10/21/22 23:09:38
; FORMAT={-:-/ absolute / metric / decimal}
; #@! TF.CreationDate,2022-10-21T23:09:38+02:00
; #@! TF.GenerationSoftware,Kicad,Pcbnew,(5.1.12)-1
FMAT,2
METRIC
T1C0.800
T2C0.950
T3C1.000
T4C1.075
T5C1.200
T6C2.300
%
G90
G05
T1
X85.598Y-79.034
X85.598Y-81.534
T2
X79.418Y-82.894
X79.418Y-85.394
X79.418Y-87.394
X79.418Y-89.894
X133.096Y-83.08
X133.096Y-85.58
X133.096Y-87.58
X133.096Y-90.08
T3
X84.519Y-85.28
X84.519Y-87.82
X84.519Y-90.361
X84.519Y-92.9
X87.058Y-85.28
X87.058Y-87.82
X87.058Y-90.361
X87.058Y-92.9
X128.206Y-80.01
X128.206Y-82.55
X128.206Y-85.09
X128.206Y-87.63
X128.206Y-90.17
X128.206Y-92.71
T4
X90.708Y-82.786
X90.708Y-85.326
X90.708Y-87.867
X90.708Y-90.406
T5
X102.87Y-82.894
X102.87Y-89.894
T6
X76.708Y-79.824
X76.708Y-92.964
X135.806Y-80.01
X135.806Y-93.15
T0
M30
