%TF.GenerationSoftware,KiCad,Pcbnew,(5.1.12)-1*%
%TF.CreationDate,2022-10-21T23:10:11+02:00*%
%TF.ProjectId,smart-temp-allinone,736d6172-742d-4746-956d-702d616c6c69,rev?*%
%TF.SameCoordinates,Original*%
%TF.FileFunction,Profile,NP*%
%FSLAX46Y46*%
G04 Gerber Fmt 4.6, Leading zero omitted, Abs format (unit mm)*
G04 Created by KiCad (PCBNEW (5.1.12)-1) date 2022-10-21 23:10:11*
%MOMM*%
%LPD*%
G01*
G04 APERTURE LIST*
%TA.AperFunction,Profile*%
%ADD10C,0.050000*%
%TD*%
G04 APERTURE END LIST*
D10*
X77470000Y-86296500D02*
G75*
G03*
X77470000Y-86296500I-1270000J0D01*
G01*
X139446000Y-86423500D02*
G75*
G03*
X139446000Y-86423500I-1270000J0D01*
G01*
X87630000Y-95250000D02*
G75*
G02*
X86360000Y-96520000I-1270000J0D01*
G01*
X73660000Y-77470000D02*
G75*
G02*
X74930000Y-76200000I1270000J0D01*
G01*
X86360000Y-76200000D02*
G75*
G02*
X87630000Y-77470000I0J-1270000D01*
G01*
X127000000Y-77470000D02*
G75*
G02*
X128270000Y-76200000I1270000J0D01*
G01*
X139700000Y-76200000D02*
G75*
G02*
X140970000Y-77470000I0J-1270000D01*
G01*
X140970000Y-95250000D02*
G75*
G02*
X139700000Y-96520000I-1270000J0D01*
G01*
X128270000Y-96520000D02*
G75*
G02*
X127000000Y-95250000I0J1270000D01*
G01*
X74930000Y-96520000D02*
G75*
G02*
X73660000Y-95250000I0J1270000D01*
G01*
X109220000Y-92710000D02*
G75*
G03*
X109220000Y-92710000I-1270000J0D01*
G01*
X109220000Y-80010000D02*
G75*
G03*
X109220000Y-80010000I-1270000J0D01*
G01*
X139700000Y-76200000D02*
X128270000Y-76200000D01*
X128270000Y-96520000D02*
X139700000Y-96520000D01*
X87630000Y-95250000D02*
X127000000Y-95250000D01*
X74930000Y-96520000D02*
X86360000Y-96520000D01*
X74930000Y-76200000D02*
X86360000Y-76200000D01*
X73660000Y-95250000D02*
X73660000Y-77470000D01*
X140970000Y-77470000D02*
X140970000Y-95250000D01*
X87630000Y-77470000D02*
X127000000Y-77470000D01*
M02*
