%TF.GenerationSoftware,KiCad,Pcbnew,(5.1.10)-1*%
%TF.CreationDate,2021-06-01T20:42:40+02:00*%
%TF.ProjectId,smart-telefon,736d6172-742d-4746-956c-65666f6e2e6b,1.*%
%TF.SameCoordinates,Original*%
%TF.FileFunction,Copper,L2,Bot*%
%TF.FilePolarity,Positive*%
%FSLAX46Y46*%
G04 Gerber Fmt 4.6, Leading zero omitted, Abs format (unit mm)*
G04 Created by KiCad (PCBNEW (5.1.10)-1) date 2021-06-01 20:42:40*
%MOMM*%
%LPD*%
G01*
G04 APERTURE LIST*
%TA.AperFunction,ComponentPad*%
%ADD10R,2.000000X2.000000*%
%TD*%
%TA.AperFunction,ComponentPad*%
%ADD11C,2.000000*%
%TD*%
%TA.AperFunction,ComponentPad*%
%ADD12C,1.600000*%
%TD*%
%TA.AperFunction,ComponentPad*%
%ADD13R,1.600000X1.600000*%
%TD*%
%TA.AperFunction,ComponentPad*%
%ADD14O,1.600000X1.600000*%
%TD*%
%TA.AperFunction,ComponentPad*%
%ADD15R,1.700000X1.700000*%
%TD*%
%TA.AperFunction,ComponentPad*%
%ADD16O,1.700000X1.700000*%
%TD*%
%TA.AperFunction,ComponentPad*%
%ADD17R,2.500000X1.500000*%
%TD*%
%TA.AperFunction,ComponentPad*%
%ADD18O,2.500000X1.500000*%
%TD*%
%TA.AperFunction,Conductor*%
%ADD19C,1.000000*%
%TD*%
G04 APERTURE END LIST*
D10*
%TO.P,C1,1*%
%TO.N,Net-(C1-Pad1)*%
X114300000Y-69596000D03*
D11*
%TO.P,C1,2*%
%TO.N,GND*%
X114300000Y-64596000D03*
%TD*%
D12*
%TO.P,C2,1*%
%TO.N,/VCC*%
X97028000Y-68072000D03*
%TO.P,C2,2*%
%TO.N,GND*%
X97028000Y-63072000D03*
%TD*%
D11*
%TO.P,D1,4*%
%TO.N,Net-(C1-Pad1)*%
X122668000Y-64008000D03*
%TO.P,D1,3*%
%TO.N,GND*%
X127668000Y-64008000D03*
%TO.P,D1,2*%
%TO.N,/POWER*%
X132668000Y-64008000D03*
D10*
%TO.P,D1,1*%
%TO.N,GND*%
X137668000Y-64008000D03*
%TD*%
D13*
%TO.P,D2,1*%
%TO.N,Net-(D2-Pad1)*%
X124968000Y-77466000D03*
D14*
%TO.P,D2,2*%
%TO.N,GND*%
X132588000Y-77466000D03*
%TD*%
D15*
%TO.P,J1,1*%
%TO.N,/RING*%
X142748000Y-66548000D03*
D16*
%TO.P,J1,2*%
%TO.N,GND*%
X142748000Y-69088000D03*
%TO.P,J1,3*%
%TO.N,/POWER*%
X142748000Y-71628000D03*
%TD*%
D15*
%TO.P,J2,1*%
%TO.N,/TX*%
X86360000Y-65273000D03*
D16*
%TO.P,J2,2*%
%TO.N,GND*%
X88900000Y-65273000D03*
%TO.P,J2,3*%
%TO.N,/CH_PD*%
X86360000Y-67813000D03*
%TO.P,J2,4*%
%TO.N,/GPIO2*%
X88900000Y-67813000D03*
%TO.P,J2,5*%
%TO.N,/RST*%
X86360000Y-70353000D03*
%TO.P,J2,6*%
%TO.N,/GPIO0*%
X88900000Y-70353000D03*
%TO.P,J2,7*%
%TO.N,/VCC*%
X86360000Y-72893000D03*
%TO.P,J2,8*%
%TO.N,/RX*%
X88900000Y-72893000D03*
%TD*%
D12*
%TO.P,R1,1*%
%TO.N,/RING*%
X152248000Y-77216000D03*
D14*
%TO.P,R1,2*%
%TO.N,Net-(D2-Pad1)*%
X137008000Y-77216000D03*
%TD*%
%TO.P,R2,2*%
%TO.N,Net-(R2-Pad2)*%
X121412000Y-70104000D03*
D12*
%TO.P,R2,1*%
%TO.N,GND*%
X136652000Y-70104000D03*
%TD*%
%TO.P,R3,1*%
%TO.N,Net-(R3-Pad1)*%
X107696000Y-77216000D03*
D14*
%TO.P,R3,2*%
%TO.N,/RST*%
X92456000Y-77216000D03*
%TD*%
D17*
%TO.P,U1,1*%
%TO.N,Net-(C1-Pad1)*%
X102616000Y-65532000D03*
D18*
%TO.P,U1,2*%
%TO.N,GND*%
X102616000Y-68072000D03*
%TO.P,U1,3*%
%TO.N,/VCC*%
X102616000Y-70612000D03*
%TD*%
D13*
%TO.P,U2,1*%
%TO.N,Net-(D2-Pad1)*%
X121179000Y-77166000D03*
D14*
%TO.P,U2,3*%
%TO.N,GND*%
X113559000Y-74626000D03*
%TO.P,U2,2*%
%TO.N,Net-(R2-Pad2)*%
X121179000Y-74626000D03*
%TO.P,U2,4*%
%TO.N,Net-(R3-Pad1)*%
X113559000Y-77166000D03*
%TD*%
D19*
%TO.N,Net-(C1-Pad1)*%
X114300000Y-69596000D02*
X116300000Y-69596000D01*
X122668000Y-64008000D02*
X121888000Y-64008000D01*
X121888000Y-64008000D02*
X116300000Y-69596000D01*
%TO.N,GND*%
X97028000Y-64741000D02*
X91282000Y-64741000D01*
X91282000Y-64741000D02*
X90750000Y-65273000D01*
X100366000Y-68072000D02*
X97035000Y-64741000D01*
X97035000Y-64741000D02*
X97028000Y-64741000D01*
X97028000Y-64741000D02*
X97028000Y-63072000D01*
X88900000Y-65273000D02*
X90750000Y-65273000D01*
X102616000Y-68072000D02*
X112599600Y-68072000D01*
X101491000Y-68072000D02*
X102616000Y-68072000D01*
X112599600Y-68072000D02*
X112599600Y-66296400D01*
X112599600Y-66296400D02*
X114300000Y-64596000D01*
X113559000Y-72826000D02*
X112599600Y-71866600D01*
X112599600Y-71866600D02*
X112599600Y-68072000D01*
X101491000Y-68072000D02*
X100366000Y-68072000D01*
X137668000Y-64008000D02*
X135668000Y-64008000D01*
X135668000Y-64008000D02*
X133952500Y-62292500D01*
X133952500Y-62292500D02*
X116603500Y-62292500D01*
X116603500Y-62292500D02*
X114300000Y-64596000D01*
X113559000Y-74626000D02*
X113559000Y-72826000D01*
X135208000Y-71548000D02*
X132588000Y-74168000D01*
X132588000Y-74168000D02*
X132588000Y-77466000D01*
X136652000Y-70104000D02*
X135208000Y-71548000D01*
X135208000Y-71548000D02*
X127668000Y-64008000D01*
%TO.N,/VCC*%
X102616000Y-70612000D02*
X99568000Y-70612000D01*
X99568000Y-70612000D02*
X97028000Y-68072000D01*
X97028000Y-68072000D02*
X90653200Y-74446800D01*
X90653200Y-74446800D02*
X87913800Y-74446800D01*
X87913800Y-74446800D02*
X86360000Y-72893000D01*
%TO.N,Net-(D2-Pad1)*%
X124968000Y-77466000D02*
X126768000Y-77466000D01*
X137008000Y-77216000D02*
X135208000Y-77216000D01*
X135208000Y-77216000D02*
X133447200Y-78976800D01*
X133447200Y-78976800D02*
X128278800Y-78976800D01*
X128278800Y-78976800D02*
X126768000Y-77466000D01*
X121179000Y-77166000D02*
X122979000Y-77166000D01*
X124968000Y-77466000D02*
X123168000Y-77466000D01*
X122979000Y-77166000D02*
X122979000Y-77277000D01*
X122979000Y-77277000D02*
X123168000Y-77466000D01*
%TO.N,/RST*%
X92456000Y-77216000D02*
X88428700Y-77216000D01*
X88428700Y-77216000D02*
X84798800Y-73586100D01*
X84798800Y-73586100D02*
X84798800Y-71914200D01*
X84798800Y-71914200D02*
X86360000Y-70353000D01*
%TO.N,Net-(R2-Pad2)*%
X121179000Y-74626000D02*
X121179000Y-72826000D01*
X121179000Y-72826000D02*
X121412000Y-72593000D01*
X121412000Y-72593000D02*
X121412000Y-70104000D01*
%TO.N,Net-(R3-Pad1)*%
X113559000Y-77166000D02*
X107746000Y-77166000D01*
X107746000Y-77166000D02*
X107696000Y-77216000D01*
%TO.N,/POWER*%
X142748000Y-71628000D02*
X140898000Y-71628000D01*
X140898000Y-71628000D02*
X133278000Y-64008000D01*
X133278000Y-64008000D02*
X132668000Y-64008000D01*
%TO.N,/RING*%
X152248000Y-77216000D02*
X152248000Y-76048000D01*
X152248000Y-76048000D02*
X142748000Y-66548000D01*
%TD*%
M02*
