%TF.GenerationSoftware,KiCad,Pcbnew,(5.1.12)-1*%
%TF.CreationDate,2022-10-21T23:20:19+02:00*%
%TF.ProjectId,smart-temp-only-sensor3,736d6172-742d-4746-956d-702d6f6e6c79,rev?*%
%TF.SameCoordinates,Original*%
%TF.FileFunction,Copper,L2,Bot*%
%TF.FilePolarity,Positive*%
%FSLAX46Y46*%
G04 Gerber Fmt 4.6, Leading zero omitted, Abs format (unit mm)*
G04 Created by KiCad (PCBNEW (5.1.12)-1) date 2022-10-21 23:20:19*
%MOMM*%
%LPD*%
G01*
G04 APERTURE LIST*
%TA.AperFunction,ComponentPad*%
%ADD10O,2.400000X1.100000*%
%TD*%
%TA.AperFunction,ComponentPad*%
%ADD11R,1.100000X1.100000*%
%TD*%
%TA.AperFunction,ComponentPad*%
%ADD12C,1.100000*%
%TD*%
%TA.AperFunction,ComponentPad*%
%ADD13R,1.700000X1.700000*%
%TD*%
%TA.AperFunction,ComponentPad*%
%ADD14O,1.700000X1.700000*%
%TD*%
%TA.AperFunction,Conductor*%
%ADD15C,0.250000*%
%TD*%
G04 APERTURE END LIST*
D10*
%TO.P,J1,6*%
%TO.N,Net-(J1-Pad6)*%
X92569000Y-76007000D03*
X92569000Y-68707000D03*
D11*
%TO.P,J1,1*%
%TO.N,+3V3*%
X91694000Y-73957000D03*
D12*
%TO.P,J1,2*%
%TO.N,/SDL_GPIO_2-*%
X93444000Y-73157000D03*
%TO.P,J1,3*%
%TO.N,Net-(J1-Pad3)*%
X91694000Y-72357000D03*
%TO.P,J1,4*%
%TO.N,Net-(J1-Pad4)*%
X93444000Y-71557000D03*
%TO.P,J1,5*%
%TO.N,GND1*%
X91694000Y-70757000D03*
D10*
%TO.P,J1,6*%
%TO.N,Net-(J1-Pad6)*%
X97014000Y-68707000D03*
X97014000Y-76007000D03*
%TD*%
D13*
%TO.P,J2,1*%
%TO.N,+3V3*%
X84836000Y-68557000D03*
D14*
%TO.P,J2,2*%
%TO.N,GND1*%
X84836000Y-71097000D03*
%TO.P,J2,3*%
%TO.N,/SDL_GPIO_2-*%
X84836000Y-73637000D03*
%TO.P,J2,4*%
%TO.N,Net-(J1-Pad3)*%
X84836000Y-76177000D03*
%TD*%
D15*
%TO.N,Net-(J1-Pad6)*%
X97014000Y-76007000D02*
X98539100Y-76007000D01*
X97014000Y-68707000D02*
X98539100Y-68707000D01*
X98539100Y-68707000D02*
X98539100Y-76007000D01*
%TO.N,+3V3*%
X91694000Y-73957000D02*
X90818900Y-73957000D01*
X84836000Y-68557000D02*
X86011100Y-68557000D01*
X86011100Y-68557000D02*
X86011100Y-69149200D01*
X86011100Y-69149200D02*
X90818900Y-73957000D01*
%TO.N,/SDL_GPIO_2-*%
X84836000Y-73637000D02*
X84836000Y-74812100D01*
X84836000Y-74812100D02*
X85203300Y-74812100D01*
X85203300Y-74812100D02*
X86011100Y-75619900D01*
X86011100Y-75619900D02*
X86011100Y-76363600D01*
X86011100Y-76363600D02*
X87474300Y-77826800D01*
X87474300Y-77826800D02*
X88861400Y-77826800D01*
X88861400Y-77826800D02*
X91556400Y-75131800D01*
X91556400Y-75131800D02*
X92110300Y-75131800D01*
X92110300Y-75131800D02*
X93444000Y-73798100D01*
X93444000Y-73798100D02*
X93444000Y-73157000D01*
%TD*%
M02*
