%TF.GenerationSoftware,KiCad,Pcbnew,(5.1.12)-1*%
%TF.CreationDate,2022-10-21T23:20:19+02:00*%
%TF.ProjectId,smart-temp-only-sensor3,736d6172-742d-4746-956d-702d6f6e6c79,rev?*%
%TF.SameCoordinates,Original*%
%TF.FileFunction,Legend,Top*%
%TF.FilePolarity,Positive*%
%FSLAX46Y46*%
G04 Gerber Fmt 4.6, Leading zero omitted, Abs format (unit mm)*
G04 Created by KiCad (PCBNEW (5.1.12)-1) date 2022-10-21 23:20:19*
%MOMM*%
%LPD*%
G01*
G04 APERTURE LIST*
%ADD10C,0.150000*%
%ADD11C,0.120000*%
G04 APERTURE END LIST*
D10*
%TO.C,J1*%
X100055000Y-76257000D02*
X98425000Y-76257000D01*
X98425000Y-68457000D02*
X100055000Y-68457000D01*
X90494000Y-76257000D02*
X91094000Y-76257000D01*
X90494000Y-68457000D02*
X90494000Y-76257000D01*
X91094000Y-68457000D02*
X90494000Y-68457000D01*
X100055000Y-68457000D02*
X100055000Y-76257000D01*
X90194000Y-73440000D02*
X90194000Y-74440000D01*
D11*
%TO.C,J2*%
X84836000Y-67227000D02*
X86166000Y-67227000D01*
X86166000Y-67227000D02*
X86166000Y-68557000D01*
X86166000Y-69827000D02*
X86166000Y-77507000D01*
X83506000Y-77507000D02*
X86166000Y-77507000D01*
X83506000Y-69827000D02*
X83506000Y-77507000D01*
X83506000Y-69827000D02*
X86166000Y-69827000D01*
%TO.C,J1*%
D10*
X88947666Y-70064380D02*
X88947666Y-70778666D01*
X88900047Y-70921523D01*
X88804809Y-71016761D01*
X88661952Y-71064380D01*
X88566714Y-71064380D01*
X89947666Y-71064380D02*
X89376238Y-71064380D01*
X89661952Y-71064380D02*
X89661952Y-70064380D01*
X89566714Y-70207238D01*
X89471476Y-70302476D01*
X89376238Y-70350095D01*
%TO.C,J2*%
X87296666Y-73620380D02*
X87296666Y-74334666D01*
X87249047Y-74477523D01*
X87153809Y-74572761D01*
X87010952Y-74620380D01*
X86915714Y-74620380D01*
X87725238Y-73715619D02*
X87772857Y-73668000D01*
X87868095Y-73620380D01*
X88106190Y-73620380D01*
X88201428Y-73668000D01*
X88249047Y-73715619D01*
X88296666Y-73810857D01*
X88296666Y-73906095D01*
X88249047Y-74048952D01*
X87677619Y-74620380D01*
X88296666Y-74620380D01*
%TD*%
M02*
