%TF.GenerationSoftware,KiCad,Pcbnew,(5.1.10)-1*%
%TF.CreationDate,2021-06-05T01:35:01+02:00*%
%TF.ProjectId,smart-telefon,736d6172-742d-4746-956c-65666f6e2e6b,1.*%
%TF.SameCoordinates,Original*%
%TF.FileFunction,Legend,Top*%
%TF.FilePolarity,Positive*%
%FSLAX46Y46*%
G04 Gerber Fmt 4.6, Leading zero omitted, Abs format (unit mm)*
G04 Created by KiCad (PCBNEW (5.1.10)-1) date 2021-06-05 01:35:01*
%MOMM*%
%LPD*%
G01*
G04 APERTURE LIST*
%ADD10C,0.120000*%
%ADD11C,0.150000*%
G04 APERTURE END LIST*
D10*
%TO.C,C1*%
X110925000Y-72075646D02*
X111925000Y-72075646D01*
X111425000Y-72575646D02*
X111425000Y-71575646D01*
X113701000Y-62015000D02*
X114899000Y-62015000D01*
X113438000Y-62055000D02*
X115162000Y-62055000D01*
X113238000Y-62095000D02*
X115362000Y-62095000D01*
X113070000Y-62135000D02*
X115530000Y-62135000D01*
X112922000Y-62175000D02*
X115678000Y-62175000D01*
X112790000Y-62215000D02*
X115810000Y-62215000D01*
X112670000Y-62255000D02*
X115930000Y-62255000D01*
X112558000Y-62295000D02*
X116042000Y-62295000D01*
X112454000Y-62335000D02*
X116146000Y-62335000D01*
X112356000Y-62375000D02*
X116244000Y-62375000D01*
X112263000Y-62415000D02*
X116337000Y-62415000D01*
X112175000Y-62455000D02*
X116425000Y-62455000D01*
X112091000Y-62495000D02*
X116509000Y-62495000D01*
X112011000Y-62535000D02*
X116589000Y-62535000D01*
X111935000Y-62575000D02*
X116665000Y-62575000D01*
X111861000Y-62615000D02*
X116739000Y-62615000D01*
X111790000Y-62655000D02*
X116810000Y-62655000D01*
X111721000Y-62695000D02*
X116879000Y-62695000D01*
X111655000Y-62735000D02*
X116945000Y-62735000D01*
X111591000Y-62775000D02*
X117009000Y-62775000D01*
X111530000Y-62815000D02*
X117070000Y-62815000D01*
X111470000Y-62855000D02*
X117130000Y-62855000D01*
X111411000Y-62895000D02*
X117189000Y-62895000D01*
X111355000Y-62935000D02*
X117245000Y-62935000D01*
X111300000Y-62975000D02*
X117300000Y-62975000D01*
X111246000Y-63015000D02*
X117354000Y-63015000D01*
X111194000Y-63055000D02*
X117406000Y-63055000D01*
X111144000Y-63095000D02*
X117456000Y-63095000D01*
X111094000Y-63135000D02*
X117506000Y-63135000D01*
X111046000Y-63175000D02*
X117554000Y-63175000D01*
X110999000Y-63215000D02*
X117601000Y-63215000D01*
X110953000Y-63255000D02*
X117647000Y-63255000D01*
X110908000Y-63295000D02*
X117692000Y-63295000D01*
X110864000Y-63335000D02*
X117736000Y-63335000D01*
X115541000Y-63375000D02*
X117778000Y-63375000D01*
X110822000Y-63375000D02*
X113059000Y-63375000D01*
X115541000Y-63415000D02*
X117820000Y-63415000D01*
X110780000Y-63415000D02*
X113059000Y-63415000D01*
X115541000Y-63455000D02*
X117861000Y-63455000D01*
X110739000Y-63455000D02*
X113059000Y-63455000D01*
X115541000Y-63495000D02*
X117901000Y-63495000D01*
X110699000Y-63495000D02*
X113059000Y-63495000D01*
X115541000Y-63535000D02*
X117940000Y-63535000D01*
X110660000Y-63535000D02*
X113059000Y-63535000D01*
X115541000Y-63575000D02*
X117979000Y-63575000D01*
X110621000Y-63575000D02*
X113059000Y-63575000D01*
X115541000Y-63615000D02*
X118016000Y-63615000D01*
X110584000Y-63615000D02*
X113059000Y-63615000D01*
X115541000Y-63655000D02*
X118053000Y-63655000D01*
X110547000Y-63655000D02*
X113059000Y-63655000D01*
X115541000Y-63695000D02*
X118089000Y-63695000D01*
X110511000Y-63695000D02*
X113059000Y-63695000D01*
X115541000Y-63735000D02*
X118124000Y-63735000D01*
X110476000Y-63735000D02*
X113059000Y-63735000D01*
X115541000Y-63775000D02*
X118158000Y-63775000D01*
X110442000Y-63775000D02*
X113059000Y-63775000D01*
X115541000Y-63815000D02*
X118192000Y-63815000D01*
X110408000Y-63815000D02*
X113059000Y-63815000D01*
X115541000Y-63855000D02*
X118225000Y-63855000D01*
X110375000Y-63855000D02*
X113059000Y-63855000D01*
X115541000Y-63895000D02*
X118257000Y-63895000D01*
X110343000Y-63895000D02*
X113059000Y-63895000D01*
X115541000Y-63935000D02*
X118289000Y-63935000D01*
X110311000Y-63935000D02*
X113059000Y-63935000D01*
X115541000Y-63975000D02*
X118320000Y-63975000D01*
X110280000Y-63975000D02*
X113059000Y-63975000D01*
X115541000Y-64015000D02*
X118350000Y-64015000D01*
X110250000Y-64015000D02*
X113059000Y-64015000D01*
X115541000Y-64055000D02*
X118380000Y-64055000D01*
X110220000Y-64055000D02*
X113059000Y-64055000D01*
X115541000Y-64095000D02*
X118410000Y-64095000D01*
X110190000Y-64095000D02*
X113059000Y-64095000D01*
X115541000Y-64135000D02*
X118438000Y-64135000D01*
X110162000Y-64135000D02*
X113059000Y-64135000D01*
X115541000Y-64175000D02*
X118466000Y-64175000D01*
X110134000Y-64175000D02*
X113059000Y-64175000D01*
X115541000Y-64215000D02*
X118494000Y-64215000D01*
X110106000Y-64215000D02*
X113059000Y-64215000D01*
X115541000Y-64255000D02*
X118521000Y-64255000D01*
X110079000Y-64255000D02*
X113059000Y-64255000D01*
X115541000Y-64295000D02*
X118547000Y-64295000D01*
X110053000Y-64295000D02*
X113059000Y-64295000D01*
X115541000Y-64335000D02*
X118573000Y-64335000D01*
X110027000Y-64335000D02*
X113059000Y-64335000D01*
X115541000Y-64375000D02*
X118598000Y-64375000D01*
X110002000Y-64375000D02*
X113059000Y-64375000D01*
X115541000Y-64415000D02*
X118623000Y-64415000D01*
X109977000Y-64415000D02*
X113059000Y-64415000D01*
X115541000Y-64455000D02*
X118647000Y-64455000D01*
X109953000Y-64455000D02*
X113059000Y-64455000D01*
X115541000Y-64495000D02*
X118671000Y-64495000D01*
X109929000Y-64495000D02*
X113059000Y-64495000D01*
X115541000Y-64535000D02*
X118695000Y-64535000D01*
X109905000Y-64535000D02*
X113059000Y-64535000D01*
X115541000Y-64575000D02*
X118717000Y-64575000D01*
X109883000Y-64575000D02*
X113059000Y-64575000D01*
X115541000Y-64615000D02*
X118740000Y-64615000D01*
X109860000Y-64615000D02*
X113059000Y-64615000D01*
X115541000Y-64655000D02*
X118762000Y-64655000D01*
X109838000Y-64655000D02*
X113059000Y-64655000D01*
X115541000Y-64695000D02*
X118783000Y-64695000D01*
X109817000Y-64695000D02*
X113059000Y-64695000D01*
X115541000Y-64735000D02*
X118804000Y-64735000D01*
X109796000Y-64735000D02*
X113059000Y-64735000D01*
X115541000Y-64775000D02*
X118825000Y-64775000D01*
X109775000Y-64775000D02*
X113059000Y-64775000D01*
X115541000Y-64815000D02*
X118845000Y-64815000D01*
X109755000Y-64815000D02*
X113059000Y-64815000D01*
X115541000Y-64855000D02*
X118864000Y-64855000D01*
X109736000Y-64855000D02*
X113059000Y-64855000D01*
X115541000Y-64895000D02*
X118884000Y-64895000D01*
X109716000Y-64895000D02*
X113059000Y-64895000D01*
X115541000Y-64935000D02*
X118903000Y-64935000D01*
X109697000Y-64935000D02*
X113059000Y-64935000D01*
X115541000Y-64975000D02*
X118921000Y-64975000D01*
X109679000Y-64975000D02*
X113059000Y-64975000D01*
X115541000Y-65015000D02*
X118939000Y-65015000D01*
X109661000Y-65015000D02*
X113059000Y-65015000D01*
X115541000Y-65055000D02*
X118957000Y-65055000D01*
X109643000Y-65055000D02*
X113059000Y-65055000D01*
X115541000Y-65095000D02*
X118974000Y-65095000D01*
X109626000Y-65095000D02*
X113059000Y-65095000D01*
X115541000Y-65135000D02*
X118990000Y-65135000D01*
X109610000Y-65135000D02*
X113059000Y-65135000D01*
X115541000Y-65175000D02*
X119007000Y-65175000D01*
X109593000Y-65175000D02*
X113059000Y-65175000D01*
X115541000Y-65215000D02*
X119023000Y-65215000D01*
X109577000Y-65215000D02*
X113059000Y-65215000D01*
X115541000Y-65255000D02*
X119038000Y-65255000D01*
X109562000Y-65255000D02*
X113059000Y-65255000D01*
X115541000Y-65295000D02*
X119054000Y-65295000D01*
X109546000Y-65295000D02*
X113059000Y-65295000D01*
X115541000Y-65335000D02*
X119068000Y-65335000D01*
X109532000Y-65335000D02*
X113059000Y-65335000D01*
X115541000Y-65375000D02*
X119083000Y-65375000D01*
X109517000Y-65375000D02*
X113059000Y-65375000D01*
X115541000Y-65415000D02*
X119097000Y-65415000D01*
X109503000Y-65415000D02*
X113059000Y-65415000D01*
X115541000Y-65455000D02*
X119111000Y-65455000D01*
X109489000Y-65455000D02*
X113059000Y-65455000D01*
X115541000Y-65495000D02*
X119124000Y-65495000D01*
X109476000Y-65495000D02*
X113059000Y-65495000D01*
X115541000Y-65535000D02*
X119137000Y-65535000D01*
X109463000Y-65535000D02*
X113059000Y-65535000D01*
X115541000Y-65575000D02*
X119150000Y-65575000D01*
X109450000Y-65575000D02*
X113059000Y-65575000D01*
X115541000Y-65615000D02*
X119162000Y-65615000D01*
X109438000Y-65615000D02*
X113059000Y-65615000D01*
X115541000Y-65655000D02*
X119174000Y-65655000D01*
X109426000Y-65655000D02*
X113059000Y-65655000D01*
X115541000Y-65695000D02*
X119185000Y-65695000D01*
X109415000Y-65695000D02*
X113059000Y-65695000D01*
X115541000Y-65735000D02*
X119197000Y-65735000D01*
X109403000Y-65735000D02*
X113059000Y-65735000D01*
X115541000Y-65775000D02*
X119207000Y-65775000D01*
X109393000Y-65775000D02*
X113059000Y-65775000D01*
X115541000Y-65815000D02*
X119218000Y-65815000D01*
X109382000Y-65815000D02*
X113059000Y-65815000D01*
X109372000Y-65855000D02*
X119228000Y-65855000D01*
X109362000Y-65895000D02*
X119238000Y-65895000D01*
X109353000Y-65935000D02*
X119247000Y-65935000D01*
X109344000Y-65975000D02*
X119256000Y-65975000D01*
X109335000Y-66015000D02*
X119265000Y-66015000D01*
X109326000Y-66055000D02*
X119274000Y-66055000D01*
X109318000Y-66095000D02*
X119282000Y-66095000D01*
X109310000Y-66135000D02*
X119290000Y-66135000D01*
X109303000Y-66175000D02*
X119297000Y-66175000D01*
X109296000Y-66215000D02*
X119304000Y-66215000D01*
X109289000Y-66255000D02*
X119311000Y-66255000D01*
X109282000Y-66295000D02*
X119318000Y-66295000D01*
X109276000Y-66335000D02*
X119324000Y-66335000D01*
X109270000Y-66375000D02*
X119330000Y-66375000D01*
X109265000Y-66416000D02*
X119335000Y-66416000D01*
X109260000Y-66456000D02*
X119340000Y-66456000D01*
X109255000Y-66496000D02*
X119345000Y-66496000D01*
X109250000Y-66536000D02*
X119350000Y-66536000D01*
X109246000Y-66576000D02*
X119354000Y-66576000D01*
X109242000Y-66616000D02*
X119358000Y-66616000D01*
X109238000Y-66656000D02*
X119362000Y-66656000D01*
X109235000Y-66696000D02*
X119365000Y-66696000D01*
X109232000Y-66736000D02*
X119368000Y-66736000D01*
X109230000Y-66776000D02*
X119370000Y-66776000D01*
X109227000Y-66816000D02*
X119373000Y-66816000D01*
X109225000Y-66856000D02*
X119375000Y-66856000D01*
X109223000Y-66896000D02*
X119377000Y-66896000D01*
X109222000Y-66936000D02*
X119378000Y-66936000D01*
X109221000Y-66976000D02*
X119379000Y-66976000D01*
X109220000Y-67016000D02*
X119380000Y-67016000D01*
X109220000Y-67056000D02*
X119380000Y-67056000D01*
X109220000Y-67096000D02*
X119380000Y-67096000D01*
X119420000Y-67096000D02*
G75*
G03*
X119420000Y-67096000I-5120000J0D01*
G01*
%TO.C,C2*%
X98083000Y-63302000D02*
X98098000Y-63302000D01*
X95958000Y-63302000D02*
X95973000Y-63302000D01*
X98083000Y-67842000D02*
X98098000Y-67842000D01*
X95958000Y-67842000D02*
X95973000Y-67842000D01*
X98098000Y-67842000D02*
X98098000Y-63302000D01*
X95958000Y-67842000D02*
X95958000Y-63302000D01*
%TO.C,D1*%
X139768000Y-62208000D02*
X139768000Y-65808000D01*
X139768000Y-65808000D02*
X120568000Y-65808000D01*
X120568000Y-65808000D02*
X120568000Y-62208000D01*
X120568000Y-62208000D02*
X139768000Y-62208000D01*
X139968000Y-64708000D02*
X139968000Y-66008000D01*
X139968000Y-66008000D02*
X138668000Y-66008000D01*
%TO.C,D2*%
X127258000Y-76346000D02*
X127258000Y-78586000D01*
X127498000Y-76346000D02*
X127498000Y-78586000D01*
X127378000Y-76346000D02*
X127378000Y-78586000D01*
X131548000Y-77466000D02*
X130898000Y-77466000D01*
X126008000Y-77466000D02*
X126658000Y-77466000D01*
X130898000Y-76346000D02*
X126658000Y-76346000D01*
X130898000Y-78586000D02*
X130898000Y-76346000D01*
X126658000Y-78586000D02*
X130898000Y-78586000D01*
X126658000Y-76346000D02*
X126658000Y-78586000D01*
%TO.C,J1*%
X141478000Y-65278000D02*
X142748000Y-65278000D01*
X141478000Y-66548000D02*
X141478000Y-65278000D01*
X143790929Y-72008000D02*
X144188000Y-72008000D01*
X143790929Y-71248000D02*
X144188000Y-71248000D01*
X152848000Y-72008000D02*
X146848000Y-72008000D01*
X152848000Y-71248000D02*
X152848000Y-72008000D01*
X146848000Y-71248000D02*
X152848000Y-71248000D01*
X144188000Y-70358000D02*
X146848000Y-70358000D01*
X143790929Y-69468000D02*
X144188000Y-69468000D01*
X143790929Y-68708000D02*
X144188000Y-68708000D01*
X152848000Y-69468000D02*
X146848000Y-69468000D01*
X152848000Y-68708000D02*
X152848000Y-69468000D01*
X146848000Y-68708000D02*
X152848000Y-68708000D01*
X144188000Y-67818000D02*
X146848000Y-67818000D01*
X143858000Y-66928000D02*
X144188000Y-66928000D01*
X143858000Y-66168000D02*
X144188000Y-66168000D01*
X146848000Y-66828000D02*
X152848000Y-66828000D01*
X146848000Y-66708000D02*
X152848000Y-66708000D01*
X146848000Y-66588000D02*
X152848000Y-66588000D01*
X146848000Y-66468000D02*
X152848000Y-66468000D01*
X146848000Y-66348000D02*
X152848000Y-66348000D01*
X146848000Y-66228000D02*
X152848000Y-66228000D01*
X152848000Y-66928000D02*
X146848000Y-66928000D01*
X152848000Y-66168000D02*
X152848000Y-66928000D01*
X146848000Y-66168000D02*
X152848000Y-66168000D01*
X146848000Y-65218000D02*
X144188000Y-65218000D01*
X146848000Y-72958000D02*
X146848000Y-65218000D01*
X144188000Y-72958000D02*
X146848000Y-72958000D01*
X144188000Y-65218000D02*
X144188000Y-72958000D01*
%TO.C,J2*%
X85030000Y-63943000D02*
X86360000Y-63943000D01*
X85030000Y-65273000D02*
X85030000Y-63943000D01*
X87630000Y-63943000D02*
X90230000Y-63943000D01*
X87630000Y-66543000D02*
X87630000Y-63943000D01*
X85030000Y-66543000D02*
X87630000Y-66543000D01*
X90230000Y-63943000D02*
X90230000Y-74223000D01*
X85030000Y-66543000D02*
X85030000Y-74223000D01*
X85030000Y-74223000D02*
X90230000Y-74223000D01*
%TO.C,R1*%
X138048000Y-77216000D02*
X141358000Y-77216000D01*
X151208000Y-77216000D02*
X147898000Y-77216000D01*
X141358000Y-78586000D02*
X147898000Y-78586000D01*
X141358000Y-75846000D02*
X141358000Y-78586000D01*
X147898000Y-75846000D02*
X141358000Y-75846000D01*
X147898000Y-78586000D02*
X147898000Y-75846000D01*
%TO.C,R2*%
X132302000Y-71474000D02*
X132302000Y-68734000D01*
X132302000Y-68734000D02*
X125762000Y-68734000D01*
X125762000Y-68734000D02*
X125762000Y-71474000D01*
X125762000Y-71474000D02*
X132302000Y-71474000D01*
X135612000Y-70104000D02*
X132302000Y-70104000D01*
X122452000Y-70104000D02*
X125762000Y-70104000D01*
%TO.C,R3*%
X93496000Y-77216000D02*
X96806000Y-77216000D01*
X106656000Y-77216000D02*
X103346000Y-77216000D01*
X96806000Y-78586000D02*
X103346000Y-78586000D01*
X96806000Y-75846000D02*
X96806000Y-78586000D01*
X103346000Y-75846000D02*
X96806000Y-75846000D01*
X103346000Y-78586000D02*
X103346000Y-75846000D01*
%TO.C,U1*%
X100496000Y-62112000D02*
X108346000Y-62112000D01*
X108346000Y-62112000D02*
X108346000Y-74052000D01*
X108346000Y-74052000D02*
X100496000Y-74052000D01*
X100496000Y-74052000D02*
X100496000Y-62112000D01*
X102616000Y-61782000D02*
X100166000Y-61782000D01*
X100166000Y-61782000D02*
X100166000Y-64112000D01*
%TO.C,U2*%
X114719000Y-78496000D02*
X116369000Y-78496000D01*
X114719000Y-73296000D02*
X114719000Y-78496000D01*
X120019000Y-73296000D02*
X114719000Y-73296000D01*
X120019000Y-78496000D02*
X120019000Y-73296000D01*
X118369000Y-78496000D02*
X120019000Y-78496000D01*
X116369000Y-78496000D02*
G75*
G02*
X118369000Y-78496000I1000000J0D01*
G01*
%TO.C,C1*%
D11*
X108407142Y-67262666D02*
X108454761Y-67310285D01*
X108502380Y-67453142D01*
X108502380Y-67548380D01*
X108454761Y-67691238D01*
X108359523Y-67786476D01*
X108264285Y-67834095D01*
X108073809Y-67881714D01*
X107930952Y-67881714D01*
X107740476Y-67834095D01*
X107645238Y-67786476D01*
X107550000Y-67691238D01*
X107502380Y-67548380D01*
X107502380Y-67453142D01*
X107550000Y-67310285D01*
X107597619Y-67262666D01*
X108502380Y-66310285D02*
X108502380Y-66881714D01*
X108502380Y-66596000D02*
X107502380Y-66596000D01*
X107645238Y-66691238D01*
X107740476Y-66786476D01*
X107788095Y-66881714D01*
%TO.C,C2*%
X95353142Y-66714666D02*
X95400761Y-66762285D01*
X95448380Y-66905142D01*
X95448380Y-67000380D01*
X95400761Y-67143238D01*
X95305523Y-67238476D01*
X95210285Y-67286095D01*
X95019809Y-67333714D01*
X94876952Y-67333714D01*
X94686476Y-67286095D01*
X94591238Y-67238476D01*
X94496000Y-67143238D01*
X94448380Y-67000380D01*
X94448380Y-66905142D01*
X94496000Y-66762285D01*
X94543619Y-66714666D01*
X94543619Y-66333714D02*
X94496000Y-66286095D01*
X94448380Y-66190857D01*
X94448380Y-65952761D01*
X94496000Y-65857523D01*
X94543619Y-65809904D01*
X94638857Y-65762285D01*
X94734095Y-65762285D01*
X94876952Y-65809904D01*
X95448380Y-66381333D01*
X95448380Y-65762285D01*
%TO.C,D1*%
X129229904Y-67060380D02*
X129229904Y-66060380D01*
X129468000Y-66060380D01*
X129610857Y-66108000D01*
X129706095Y-66203238D01*
X129753714Y-66298476D01*
X129801333Y-66488952D01*
X129801333Y-66631809D01*
X129753714Y-66822285D01*
X129706095Y-66917523D01*
X129610857Y-67012761D01*
X129468000Y-67060380D01*
X129229904Y-67060380D01*
X130753714Y-67060380D02*
X130182285Y-67060380D01*
X130468000Y-67060380D02*
X130468000Y-66060380D01*
X130372761Y-66203238D01*
X130277523Y-66298476D01*
X130182285Y-66346095D01*
%TO.C,D2*%
X128039904Y-75798380D02*
X128039904Y-74798380D01*
X128278000Y-74798380D01*
X128420857Y-74846000D01*
X128516095Y-74941238D01*
X128563714Y-75036476D01*
X128611333Y-75226952D01*
X128611333Y-75369809D01*
X128563714Y-75560285D01*
X128516095Y-75655523D01*
X128420857Y-75750761D01*
X128278000Y-75798380D01*
X128039904Y-75798380D01*
X128992285Y-74893619D02*
X129039904Y-74846000D01*
X129135142Y-74798380D01*
X129373238Y-74798380D01*
X129468476Y-74846000D01*
X129516095Y-74893619D01*
X129563714Y-74988857D01*
X129563714Y-75084095D01*
X129516095Y-75226952D01*
X128944666Y-75798380D01*
X129563714Y-75798380D01*
X124706095Y-76118380D02*
X124706095Y-75118380D01*
X125277523Y-76118380D02*
X124848952Y-75546952D01*
X125277523Y-75118380D02*
X124706095Y-75689809D01*
%TO.C,J1*%
X146799666Y-63730380D02*
X146799666Y-64444666D01*
X146752047Y-64587523D01*
X146656809Y-64682761D01*
X146513952Y-64730380D01*
X146418714Y-64730380D01*
X147799666Y-64730380D02*
X147228238Y-64730380D01*
X147513952Y-64730380D02*
X147513952Y-63730380D01*
X147418714Y-63873238D01*
X147323476Y-63968476D01*
X147228238Y-64016095D01*
%TO.C,J2*%
X87296666Y-62395380D02*
X87296666Y-63109666D01*
X87249047Y-63252523D01*
X87153809Y-63347761D01*
X87010952Y-63395380D01*
X86915714Y-63395380D01*
X87725238Y-62490619D02*
X87772857Y-62443000D01*
X87868095Y-62395380D01*
X88106190Y-62395380D01*
X88201428Y-62443000D01*
X88249047Y-62490619D01*
X88296666Y-62585857D01*
X88296666Y-62681095D01*
X88249047Y-62823952D01*
X87677619Y-63395380D01*
X88296666Y-63395380D01*
%TO.C,R1*%
X144105333Y-80038380D02*
X143772000Y-79562190D01*
X143533904Y-80038380D02*
X143533904Y-79038380D01*
X143914857Y-79038380D01*
X144010095Y-79086000D01*
X144057714Y-79133619D01*
X144105333Y-79228857D01*
X144105333Y-79371714D01*
X144057714Y-79466952D01*
X144010095Y-79514571D01*
X143914857Y-79562190D01*
X143533904Y-79562190D01*
X145057714Y-80038380D02*
X144486285Y-80038380D01*
X144772000Y-80038380D02*
X144772000Y-79038380D01*
X144676761Y-79181238D01*
X144581523Y-79276476D01*
X144486285Y-79324095D01*
%TO.C,R2*%
X128865333Y-73096380D02*
X128532000Y-72620190D01*
X128293904Y-73096380D02*
X128293904Y-72096380D01*
X128674857Y-72096380D01*
X128770095Y-72144000D01*
X128817714Y-72191619D01*
X128865333Y-72286857D01*
X128865333Y-72429714D01*
X128817714Y-72524952D01*
X128770095Y-72572571D01*
X128674857Y-72620190D01*
X128293904Y-72620190D01*
X129246285Y-72191619D02*
X129293904Y-72144000D01*
X129389142Y-72096380D01*
X129627238Y-72096380D01*
X129722476Y-72144000D01*
X129770095Y-72191619D01*
X129817714Y-72286857D01*
X129817714Y-72382095D01*
X129770095Y-72524952D01*
X129198666Y-73096380D01*
X129817714Y-73096380D01*
%TO.C,R3*%
X99909333Y-80038380D02*
X99576000Y-79562190D01*
X99337904Y-80038380D02*
X99337904Y-79038380D01*
X99718857Y-79038380D01*
X99814095Y-79086000D01*
X99861714Y-79133619D01*
X99909333Y-79228857D01*
X99909333Y-79371714D01*
X99861714Y-79466952D01*
X99814095Y-79514571D01*
X99718857Y-79562190D01*
X99337904Y-79562190D01*
X100242666Y-79038380D02*
X100861714Y-79038380D01*
X100528380Y-79419333D01*
X100671238Y-79419333D01*
X100766476Y-79466952D01*
X100814095Y-79514571D01*
X100861714Y-79609809D01*
X100861714Y-79847904D01*
X100814095Y-79943142D01*
X100766476Y-79990761D01*
X100671238Y-80038380D01*
X100385523Y-80038380D01*
X100290285Y-79990761D01*
X100242666Y-79943142D01*
%TO.C,U1*%
X108778380Y-64793904D02*
X109587904Y-64793904D01*
X109683142Y-64746285D01*
X109730761Y-64698666D01*
X109778380Y-64603428D01*
X109778380Y-64412952D01*
X109730761Y-64317714D01*
X109683142Y-64270095D01*
X109587904Y-64222476D01*
X108778380Y-64222476D01*
X109778380Y-63222476D02*
X109778380Y-63793904D01*
X109778380Y-63508190D02*
X108778380Y-63508190D01*
X108921238Y-63603428D01*
X109016476Y-63698666D01*
X109064095Y-63793904D01*
%TO.C,U2*%
X116607095Y-79038380D02*
X116607095Y-79847904D01*
X116654714Y-79943142D01*
X116702333Y-79990761D01*
X116797571Y-80038380D01*
X116988047Y-80038380D01*
X117083285Y-79990761D01*
X117130904Y-79943142D01*
X117178523Y-79847904D01*
X117178523Y-79038380D01*
X117607095Y-79133619D02*
X117654714Y-79086000D01*
X117749952Y-79038380D01*
X117988047Y-79038380D01*
X118083285Y-79086000D01*
X118130904Y-79133619D01*
X118178523Y-79228857D01*
X118178523Y-79324095D01*
X118130904Y-79466952D01*
X117559476Y-80038380D01*
X118178523Y-80038380D01*
%TD*%
M02*
