M48
; DRILL file {KiCad (5.1.10)-1} date 06/05/21 01:35:04
; FORMAT={-:-/ absolute / metric / decimal}
; #@! TF.CreationDate,2021-06-05T01:35:04+02:00
; #@! TF.GenerationSoftware,Kicad,Pcbnew,(5.1.10)-1
; #@! TF.FileFunction,Plated,1,2,PTH
FMAT,2
METRIC
T1C0.800
T2C1.000
%
G90
G05
T1
X92.456Y-77.216
X97.028Y-63.072
X97.028Y-68.072
X107.696Y-77.216
X113.559Y-74.626
X113.559Y-77.166
X121.179Y-74.626
X121.179Y-77.166
X121.412Y-70.104
X124.968Y-77.466
X132.588Y-77.466
X136.652Y-70.104
X137.008Y-77.216
X152.248Y-77.216
T2
X86.36Y-65.273
X86.36Y-67.813
X86.36Y-70.353
X86.36Y-72.893
X88.9Y-65.273
X88.9Y-67.813
X88.9Y-70.353
X88.9Y-72.893
X102.616Y-65.532
X102.616Y-68.072
X102.616Y-70.612
X114.3Y-64.596
X114.3Y-69.596
X122.668Y-64.008
X127.668Y-64.008
X132.668Y-64.008
X137.668Y-64.008
X142.748Y-66.548
X142.748Y-69.088
X142.748Y-71.628
T0
M30
