  0
SECTION
  2
HEADER
  9
$ANGBASE
  50
0.0
  9
$ANGDIR
  70
1
  9
$MEASUREMENT
  70
0
  0
ENDSEC
  0
SECTION
  2
TABLES
  0
TABLE
  2
LTYPE
  70
4
  0
LTYPE
  5
40F
  2
CONTINUOUS
  70
0
  3
Solid line
  72
65
  73
0
  40
0.0
  0
LTYPE
  5
410
  2
DASHDOT
 70
0
  3
Dash Dot ____ _ ____ _
 72
65
 73
4
 40
2.0
 49
1.25
 49
-0.25
 49
0.25
 49
-0.25
  0
LTYPE
  5
411
  2
DASHED
 70
0
  3
Dashed __ __ __ __ __
 72
65
 73
2
 40
0.75
 49
0.5
 49
-0.25
  0
LTYPE
  5
43B
  2
DOTTED
 70
0
  3
Dotted .  .  .  .
 72
65
 73
2
 40
0.2
 49
0.0
 49
-0.2
  0
ENDTAB
  0
TABLE
  2
STYLE
  70
4
  0
STYLE
  2
KICAD
  70
0
  40
0
  41
1
  42
1
  50
0
  71
0
  3
isocp.shx
  0
STYLE
  2
KICADB
  70
0
  40
0
  41
1
  42
1
  50
0
  71
0
  3
isocp.shx
  0
STYLE
  2
KICADI
  70
0
  40
0
  41
1
  42
1
  50
15
  71
0
  3
isocp.shx
  0
STYLE
  2
KICADBI
  70
0
  40
0
  41
1
  42
1
  50
15
  71
0
  3
isocp.shx
  0
ENDTAB
  0
TABLE
  2
LAYER
  70
1
  0
LAYER
  2
BLACK
  70
0
  62
7
  6
CONTINUOUS
  0
ENDTAB
  0
ENDSEC
  0
SECTION
  2
ENTITIES
0
LINE
8
BLACK
6
CONTINUOUS
10
4.79919
20
-2.84971
11
4.80492
21
-2.85209
0
LINE
8
BLACK
6
CONTINUOUS
10
4.80492
20
-2.85209
11
4.81008
21
-2.85554
0
LINE
8
BLACK
6
CONTINUOUS
10
4.81008
20
-2.85554
11
4.81446
21
-2.85992
0
LINE
8
BLACK
6
CONTINUOUS
10
4.81446
20
-2.85992
11
4.81791
21
-2.86508
0
LINE
8
BLACK
6
CONTINUOUS
10
4.81791
20
-2.86508
11
4.82029
21
-2.87081
0
LINE
8
BLACK
6
CONTINUOUS
10
4.82029
20
-2.87081
11
4.8215
21
-2.8769
0
LINE
8
BLACK
6
CONTINUOUS
10
4.8215
20
-2.8769
11
4.8215
21
-2.8831
0
LINE
8
BLACK
6
CONTINUOUS
10
4.8215
20
-2.8831
11
4.82029
21
-2.88919
0
LINE
8
BLACK
6
CONTINUOUS
10
4.82029
20
-2.88919
11
4.81791
21
-2.89492
0
LINE
8
BLACK
6
CONTINUOUS
10
4.81791
20
-2.89492
11
4.81446
21
-2.90008
0
LINE
8
BLACK
6
CONTINUOUS
10
4.81446
20
-2.90008
11
4.81008
21
-2.90446
0
LINE
8
BLACK
6
CONTINUOUS
10
4.81008
20
-2.90446
11
4.80969
21
-2.90473
0
LINE
8
BLACK
6
CONTINUOUS
10
4.80969
20
-2.90473
11
4.80969
21
-3.0185
0
LINE
8
BLACK
6
CONTINUOUS
10
4.80969
20
-3.0185
11
4.8215
21
-3.0185
0
LINE
8
BLACK
6
CONTINUOUS
10
4.8215
20
-3.0185
11
4.8215
21
-3.0815
0
LINE
8
BLACK
6
CONTINUOUS
10
4.8215
20
-3.0815
11
4.7585
21
-3.0815
0
LINE
8
BLACK
6
CONTINUOUS
10
4.7585
20
-3.0815
11
4.7585
21
-3.06969
0
LINE
8
BLACK
6
CONTINUOUS
10
4.7585
20
-3.06969
11
4.7201
21
-3.06969
0
LINE
8
BLACK
6
CONTINUOUS
10
4.7201
20
-3.06969
11
4.71913
21
-3.06978
0
LINE
8
BLACK
6
CONTINUOUS
10
4.71913
20
-3.06978
11
4.71817
21
-3.06969
0
LINE
8
BLACK
6
CONTINUOUS
10
4.71817
20
-3.06969
11
4.71817
21
-3.06969
0
LINE
8
BLACK
6
CONTINUOUS
10
4.71817
20
-3.06969
11
4.71527
21
-3.0694
0
LINE
8
BLACK
6
CONTINUOUS
10
4.71527
20
-3.0694
11
4.71156
21
-3.06827
0
LINE
8
BLACK
6
CONTINUOUS
10
4.71156
20
-3.06827
11
4.70814
21
-3.06645
0
LINE
8
BLACK
6
CONTINUOUS
10
4.70814
20
-3.06645
11
4.70515
21
-3.06399
0
LINE
8
BLACK
6
CONTINUOUS
10
4.70515
20
-3.06399
11
4.70453
21
-3.06324
0
LINE
8
BLACK
6
CONTINUOUS
10
4.70453
20
-3.06324
11
4.70098
21
-3.05969
0
LINE
8
BLACK
6
CONTINUOUS
10
4.70098
20
-3.05969
11
4.6815
21
-3.05969
0
LINE
8
BLACK
6
CONTINUOUS
10
4.6815
20
-3.05969
11
4.6815
21
-3.0715
0
LINE
8
BLACK
6
CONTINUOUS
10
4.6815
20
-3.0715
11
4.6185
21
-3.0715
0
LINE
8
BLACK
6
CONTINUOUS
10
4.6185
20
-3.0715
11
4.6185
21
-3.0085
0
LINE
8
BLACK
6
CONTINUOUS
10
4.6185
20
-3.0085
11
4.6815
21
-3.0085
0
LINE
8
BLACK
6
CONTINUOUS
10
4.6815
20
-3.0085
11
4.6815
21
-3.02031
0
LINE
8
BLACK
6
CONTINUOUS
10
4.6815
20
-3.02031
11
4.70817
21
-3.02031
0
LINE
8
BLACK
6
CONTINUOUS
10
4.70817
20
-3.02031
11
4.70913
21
-3.02022
0
LINE
8
BLACK
6
CONTINUOUS
10
4.70913
20
-3.02022
11
4.7101
21
-3.02031
0
LINE
8
BLACK
6
CONTINUOUS
10
4.7101
20
-3.02031
11
4.71299
21
-3.0206
0
LINE
8
BLACK
6
CONTINUOUS
10
4.71299
20
-3.0206
11
4.7167
21
-3.02173
0
LINE
8
BLACK
6
CONTINUOUS
10
4.7167
20
-3.02173
11
4.72012
21
-3.02355
0
LINE
8
BLACK
6
CONTINUOUS
10
4.72012
20
-3.02355
11
4.72312
21
-3.02601
0
LINE
8
BLACK
6
CONTINUOUS
10
4.72312
20
-3.02601
11
4.72374
21
-3.02676
0
LINE
8
BLACK
6
CONTINUOUS
10
4.72374
20
-3.02676
11
4.72729
21
-3.03031
0
LINE
8
BLACK
6
CONTINUOUS
10
4.72729
20
-3.03031
11
4.7585
21
-3.03031
0
LINE
8
BLACK
6
CONTINUOUS
10
4.7585
20
-3.03031
11
4.7585
21
-3.0185
0
LINE
8
BLACK
6
CONTINUOUS
10
4.7585
20
-3.0185
11
4.77032
21
-3.0185
0
LINE
8
BLACK
6
CONTINUOUS
10
4.77032
20
-3.0185
11
4.77031
21
-2.90473
0
LINE
8
BLACK
6
CONTINUOUS
10
4.77031
20
-2.90473
11
4.76992
21
-2.90446
0
LINE
8
BLACK
6
CONTINUOUS
10
4.76992
20
-2.90446
11
4.76554
21
-2.90008
0
LINE
8
BLACK
6
CONTINUOUS
10
4.76554
20
-2.90008
11
4.76209
21
-2.89492
0
LINE
8
BLACK
6
CONTINUOUS
10
4.76209
20
-2.89492
11
4.75971
21
-2.88919
0
LINE
8
BLACK
6
CONTINUOUS
10
4.75971
20
-2.88919
11
4.7585
21
-2.8831
0
LINE
8
BLACK
6
CONTINUOUS
10
4.7585
20
-2.8831
11
4.7585
21
-2.8769
0
LINE
8
BLACK
6
CONTINUOUS
10
4.7585
20
-2.8769
11
4.75971
21
-2.87081
0
LINE
8
BLACK
6
CONTINUOUS
10
4.75971
20
-2.87081
11
4.76209
21
-2.86508
0
LINE
8
BLACK
6
CONTINUOUS
10
4.76209
20
-2.86508
11
4.76554
21
-2.85992
0
LINE
8
BLACK
6
CONTINUOUS
10
4.76554
20
-2.85992
11
4.76992
21
-2.85554
0
LINE
8
BLACK
6
CONTINUOUS
10
4.76992
20
-2.85554
11
4.77508
21
-2.85209
0
LINE
8
BLACK
6
CONTINUOUS
10
4.77508
20
-2.85209
11
4.78081
21
-2.84971
0
LINE
8
BLACK
6
CONTINUOUS
10
4.78081
20
-2.84971
11
4.7869
21
-2.8485
0
LINE
8
BLACK
6
CONTINUOUS
10
4.7869
20
-2.8485
11
4.7931
21
-2.8485
0
LINE
8
BLACK
6
CONTINUOUS
10
4.7931
20
-2.8485
11
4.79919
21
-2.84971
0
LINE
8
BLACK
6
CONTINUOUS
10
5.75869
20
-2.55804
11
5.76158
21
-2.55832
0
LINE
8
BLACK
6
CONTINUOUS
10
5.76158
20
-2.55832
11
5.76529
21
-2.55945
0
LINE
8
BLACK
6
CONTINUOUS
10
5.76529
20
-2.55945
11
5.76871
21
-2.56127
0
LINE
8
BLACK
6
CONTINUOUS
10
5.76871
20
-2.56127
11
5.77171
21
-2.56373
0
LINE
8
BLACK
6
CONTINUOUS
10
5.77171
20
-2.56373
11
5.77232
21
-2.56449
0
LINE
8
BLACK
6
CONTINUOUS
10
5.77232
20
-2.56449
11
5.81437
21
-2.60654
0
LINE
8
BLACK
6
CONTINUOUS
10
5.81437
20
-2.60654
11
5.85346
21
-2.60654
0
LINE
8
BLACK
6
CONTINUOUS
10
5.85346
20
-2.60654
11
5.85346
21
-2.67346
0
LINE
8
BLACK
6
CONTINUOUS
10
5.85346
20
-2.67346
11
5.78654
21
-2.67346
0
LINE
8
BLACK
6
CONTINUOUS
10
5.78654
20
-2.67346
11
5.78654
21
-2.63437
0
LINE
8
BLACK
6
CONTINUOUS
10
5.78654
20
-2.63437
11
5.74957
21
-2.59741
0
LINE
8
BLACK
6
CONTINUOUS
10
5.74957
20
-2.59741
11
5.54043
21
-2.59741
0
LINE
8
BLACK
6
CONTINUOUS
10
5.54043
20
-2.59741
11
5.4214
21
-2.71643
0
LINE
8
BLACK
6
CONTINUOUS
10
5.4214
20
-2.71643
11
5.4215
21
-2.7169
0
LINE
8
BLACK
6
CONTINUOUS
10
5.4215
20
-2.7169
11
5.4215
21
-2.7231
0
LINE
8
BLACK
6
CONTINUOUS
10
5.4215
20
-2.7231
11
5.42029
21
-2.72919
0
LINE
8
BLACK
6
CONTINUOUS
10
5.42029
20
-2.72919
11
5.41791
21
-2.73492
0
LINE
8
BLACK
6
CONTINUOUS
10
5.41791
20
-2.73492
11
5.41446
21
-2.74008
0
LINE
8
BLACK
6
CONTINUOUS
10
5.41446
20
-2.74008
11
5.41008
21
-2.74446
0
LINE
8
BLACK
6
CONTINUOUS
10
5.41008
20
-2.74446
11
5.40492
21
-2.74791
0
LINE
8
BLACK
6
CONTINUOUS
10
5.40492
20
-2.74791
11
5.39919
21
-2.75029
0
LINE
8
BLACK
6
CONTINUOUS
10
5.39919
20
-2.75029
11
5.3931
21
-2.7515
0
LINE
8
BLACK
6
CONTINUOUS
10
5.3931
20
-2.7515
11
5.3869
21
-2.7515
0
LINE
8
BLACK
6
CONTINUOUS
10
5.3869
20
-2.7515
11
5.38643
21
-2.7514
0
LINE
8
BLACK
6
CONTINUOUS
10
5.38643
20
-2.7514
11
5.14547
21
-2.99237
0
LINE
8
BLACK
6
CONTINUOUS
10
5.14547
20
-2.99237
11
5.14485
21
-2.99312
0
LINE
8
BLACK
6
CONTINUOUS
10
5.14485
20
-2.99312
11
5.14186
21
-2.99558
0
LINE
8
BLACK
6
CONTINUOUS
10
5.14186
20
-2.99558
11
5.13844
21
-2.99741
0
LINE
8
BLACK
6
CONTINUOUS
10
5.13844
20
-2.99741
11
5.13473
21
-2.99853
0
LINE
8
BLACK
6
CONTINUOUS
10
5.13473
20
-2.99853
11
5.13183
21
-2.99882
0
LINE
8
BLACK
6
CONTINUOUS
10
5.13183
20
-2.99882
11
5.13087
21
-2.99891
0
LINE
8
BLACK
6
CONTINUOUS
10
5.13087
20
-2.99891
11
5.1299
21
-2.99882
0
LINE
8
BLACK
6
CONTINUOUS
10
5.1299
20
-2.99882
11
5.10969
21
-2.99882
0
LINE
8
BLACK
6
CONTINUOUS
10
5.10969
20
-2.99882
11
5.10969
21
-3.02527
0
LINE
8
BLACK
6
CONTINUOUS
10
5.10969
20
-3.02527
11
5.11008
21
-3.02554
0
LINE
8
BLACK
6
CONTINUOUS
10
5.11008
20
-3.02554
11
5.11446
21
-3.02992
0
LINE
8
BLACK
6
CONTINUOUS
10
5.11446
20
-3.02992
11
5.11791
21
-3.03508
0
LINE
8
BLACK
6
CONTINUOUS
10
5.11791
20
-3.03508
11
5.12029
21
-3.04081
0
LINE
8
BLACK
6
CONTINUOUS
10
5.12029
20
-3.04081
11
5.1215
21
-3.0469
0
LINE
8
BLACK
6
CONTINUOUS
10
5.1215
20
-3.0469
11
5.1215
21
-3.0531
0
LINE
8
BLACK
6
CONTINUOUS
10
5.1215
20
-3.0531
11
5.12029
21
-3.05919
0
LINE
8
BLACK
6
CONTINUOUS
10
5.12029
20
-3.05919
11
5.11791
21
-3.06492
0
LINE
8
BLACK
6
CONTINUOUS
10
5.11791
20
-3.06492
11
5.11446
21
-3.07008
0
LINE
8
BLACK
6
CONTINUOUS
10
5.11446
20
-3.07008
11
5.11008
21
-3.07446
0
LINE
8
BLACK
6
CONTINUOUS
10
5.11008
20
-3.07446
11
5.10492
21
-3.07791
0
LINE
8
BLACK
6
CONTINUOUS
10
5.10492
20
-3.07791
11
5.09919
21
-3.08029
0
LINE
8
BLACK
6
CONTINUOUS
10
5.09919
20
-3.08029
11
5.0931
21
-3.0815
0
LINE
8
BLACK
6
CONTINUOUS
10
5.0931
20
-3.0815
11
5.0869
21
-3.0815
0
LINE
8
BLACK
6
CONTINUOUS
10
5.0869
20
-3.0815
11
5.08081
21
-3.08029
0
LINE
8
BLACK
6
CONTINUOUS
10
5.08081
20
-3.08029
11
5.07508
21
-3.07791
0
LINE
8
BLACK
6
CONTINUOUS
10
5.07508
20
-3.07791
11
5.06992
21
-3.07446
0
LINE
8
BLACK
6
CONTINUOUS
10
5.06992
20
-3.07446
11
5.06554
21
-3.07008
0
LINE
8
BLACK
6
CONTINUOUS
10
5.06554
20
-3.07008
11
5.06209
21
-3.06492
0
LINE
8
BLACK
6
CONTINUOUS
10
5.06209
20
-3.06492
11
5.05971
21
-3.05919
0
LINE
8
BLACK
6
CONTINUOUS
10
5.05971
20
-3.05919
11
5.0585
21
-3.0531
0
LINE
8
BLACK
6
CONTINUOUS
10
5.0585
20
-3.0531
11
5.0585
21
-3.0469
0
LINE
8
BLACK
6
CONTINUOUS
10
5.0585
20
-3.0469
11
5.05971
21
-3.04081
0
LINE
8
BLACK
6
CONTINUOUS
10
5.05971
20
-3.04081
11
5.06209
21
-3.03508
0
LINE
8
BLACK
6
CONTINUOUS
10
5.06209
20
-3.03508
11
5.06554
21
-3.02992
0
LINE
8
BLACK
6
CONTINUOUS
10
5.06554
20
-3.02992
11
5.06992
21
-3.02554
0
LINE
8
BLACK
6
CONTINUOUS
10
5.06992
20
-3.02554
11
5.07031
21
-3.02527
0
LINE
8
BLACK
6
CONTINUOUS
10
5.07031
20
-3.02527
11
5.07031
21
-2.9801
0
LINE
8
BLACK
6
CONTINUOUS
10
5.07031
20
-2.9801
11
5.07022
21
-2.97913
0
LINE
8
BLACK
6
CONTINUOUS
10
5.07022
20
-2.97913
11
5.0706
21
-2.97527
0
LINE
8
BLACK
6
CONTINUOUS
10
5.0706
20
-2.97527
11
5.07173
21
-2.97156
0
LINE
8
BLACK
6
CONTINUOUS
10
5.07173
20
-2.97156
11
5.07355
21
-2.96814
0
LINE
8
BLACK
6
CONTINUOUS
10
5.07355
20
-2.96814
11
5.07601
21
-2.96515
0
LINE
8
BLACK
6
CONTINUOUS
10
5.07601
20
-2.96515
11
5.07901
21
-2.96269
0
LINE
8
BLACK
6
CONTINUOUS
10
5.07901
20
-2.96269
11
5.08243
21
-2.96086
0
LINE
8
BLACK
6
CONTINUOUS
10
5.08243
20
-2.96086
11
5.08614
21
-2.95973
0
LINE
8
BLACK
6
CONTINUOUS
10
5.08614
20
-2.95973
11
5.08903
21
-2.95945
0
LINE
8
BLACK
6
CONTINUOUS
10
5.08903
20
-2.95945
11
5.09
21
-2.95935
0
LINE
8
BLACK
6
CONTINUOUS
10
5.09
20
-2.95935
11
5.09097
21
-2.95945
0
LINE
8
BLACK
6
CONTINUOUS
10
5.09097
20
-2.95945
11
5.12271
21
-2.95945
0
LINE
8
BLACK
6
CONTINUOUS
10
5.12271
20
-2.95945
11
5.3586
21
-2.72357
0
LINE
8
BLACK
6
CONTINUOUS
10
5.3586
20
-2.72357
11
5.3585
21
-2.7231
0
LINE
8
BLACK
6
CONTINUOUS
10
5.3585
20
-2.7231
11
5.3585
21
-2.7169
0
LINE
8
BLACK
6
CONTINUOUS
10
5.3585
20
-2.7169
11
5.35971
21
-2.71081
0
LINE
8
BLACK
6
CONTINUOUS
10
5.35971
20
-2.71081
11
5.36209
21
-2.70508
0
LINE
8
BLACK
6
CONTINUOUS
10
5.36209
20
-2.70508
11
5.36554
21
-2.69992
0
LINE
8
BLACK
6
CONTINUOUS
10
5.36554
20
-2.69992
11
5.36992
21
-2.69554
0
LINE
8
BLACK
6
CONTINUOUS
10
5.36992
20
-2.69554
11
5.37508
21
-2.69209
0
LINE
8
BLACK
6
CONTINUOUS
10
5.37508
20
-2.69209
11
5.38081
21
-2.68971
0
LINE
8
BLACK
6
CONTINUOUS
10
5.38081
20
-2.68971
11
5.3869
21
-2.6885
0
LINE
8
BLACK
6
CONTINUOUS
10
5.3869
20
-2.6885
11
5.3931
21
-2.6885
0
LINE
8
BLACK
6
CONTINUOUS
10
5.3931
20
-2.6885
11
5.39357
21
-2.6886
0
LINE
8
BLACK
6
CONTINUOUS
10
5.39357
20
-2.6886
11
5.51768
21
-2.56448
0
LINE
8
BLACK
6
CONTINUOUS
10
5.51768
20
-2.56448
11
5.51829
21
-2.56373
0
LINE
8
BLACK
6
CONTINUOUS
10
5.51829
20
-2.56373
11
5.52129
21
-2.56127
0
LINE
8
BLACK
6
CONTINUOUS
10
5.52129
20
-2.56127
11
5.52471
21
-2.55945
0
LINE
8
BLACK
6
CONTINUOUS
10
5.52471
20
-2.55945
11
5.52842
21
-2.55832
0
LINE
8
BLACK
6
CONTINUOUS
10
5.52842
20
-2.55832
11
5.53131
21
-2.55804
0
LINE
8
BLACK
6
CONTINUOUS
10
5.53131
20
-2.55804
11
5.53131
21
-2.55804
0
LINE
8
BLACK
6
CONTINUOUS
10
5.53131
20
-2.55804
11
5.53228
21
-2.55794
0
LINE
8
BLACK
6
CONTINUOUS
10
5.53228
20
-2.55794
11
5.53325
21
-2.55804
0
LINE
8
BLACK
6
CONTINUOUS
10
5.53325
20
-2.55804
11
5.75675
21
-2.55804
0
LINE
8
BLACK
6
CONTINUOUS
10
5.75675
20
-2.55804
11
5.75772
21
-2.55794
0
LINE
8
BLACK
6
CONTINUOUS
10
5.75772
20
-2.55794
11
5.75869
21
-2.55804
0
LINE
8
BLACK
6
CONTINUOUS
10
3.40976
20
-2.77782
11
3.41585
21
-2.78034
0
LINE
8
BLACK
6
CONTINUOUS
10
3.41585
20
-2.78034
11
3.42133
21
-2.78401
0
LINE
8
BLACK
6
CONTINUOUS
10
3.42133
20
-2.78401
11
3.42599
21
-2.78867
0
LINE
8
BLACK
6
CONTINUOUS
10
3.42599
20
-2.78867
11
3.42966
21
-2.79415
0
LINE
8
BLACK
6
CONTINUOUS
10
3.42966
20
-2.79415
11
3.43218
21
-2.80024
0
LINE
8
BLACK
6
CONTINUOUS
10
3.43218
20
-2.80024
11
3.43346
21
-2.8067
0
LINE
8
BLACK
6
CONTINUOUS
10
3.43346
20
-2.8067
11
3.43346
21
-2.8133
0
LINE
8
BLACK
6
CONTINUOUS
10
3.43346
20
-2.8133
11
3.43218
21
-2.81976
0
LINE
8
BLACK
6
CONTINUOUS
10
3.43218
20
-2.81976
11
3.42966
21
-2.82585
0
LINE
8
BLACK
6
CONTINUOUS
10
3.42966
20
-2.82585
11
3.42599
21
-2.83133
0
LINE
8
BLACK
6
CONTINUOUS
10
3.42599
20
-2.83133
11
3.42133
21
-2.83599
0
LINE
8
BLACK
6
CONTINUOUS
10
3.42133
20
-2.83599
11
3.41585
21
-2.83966
0
LINE
8
BLACK
6
CONTINUOUS
10
3.41585
20
-2.83966
11
3.40976
21
-2.84218
0
LINE
8
BLACK
6
CONTINUOUS
10
3.40976
20
-2.84218
11
3.4033
21
-2.84346
0
LINE
8
BLACK
6
CONTINUOUS
10
3.4033
20
-2.84346
11
3.3967
21
-2.84346
0
LINE
8
BLACK
6
CONTINUOUS
10
3.3967
20
-2.84346
11
3.39476
21
-2.84308
0
LINE
8
BLACK
6
CONTINUOUS
10
3.39476
20
-2.84308
11
3.35857
21
-2.87927
0
LINE
8
BLACK
6
CONTINUOUS
10
3.35857
20
-2.87927
11
3.35857
21
-2.92858
0
LINE
8
BLACK
6
CONTINUOUS
10
3.35857
20
-2.92858
11
3.42093
21
-2.99095
0
LINE
8
BLACK
6
CONTINUOUS
10
3.42093
20
-2.99095
11
3.5288
21
-2.99095
0
LINE
8
BLACK
6
CONTINUOUS
10
3.5288
20
-2.99095
11
3.52977
21
-2.99085
0
LINE
8
BLACK
6
CONTINUOUS
10
3.52977
20
-2.99085
11
3.53073
21
-2.99095
0
LINE
8
BLACK
6
CONTINUOUS
10
3.53073
20
-2.99095
11
3.53363
21
-2.99123
0
LINE
8
BLACK
6
CONTINUOUS
10
3.53363
20
-2.99123
11
3.53734
21
-2.99236
0
LINE
8
BLACK
6
CONTINUOUS
10
3.53734
20
-2.99236
11
3.54076
21
-2.99419
0
LINE
8
BLACK
6
CONTINUOUS
10
3.54076
20
-2.99419
11
3.54375
21
-2.99665
0
LINE
8
BLACK
6
CONTINUOUS
10
3.54375
20
-2.99665
11
3.54437
21
-2.9974
0
LINE
8
BLACK
6
CONTINUOUS
10
3.54437
20
-2.9974
11
3.56729
21
-3.02031
0
LINE
8
BLACK
6
CONTINUOUS
10
3.56729
20
-3.02031
11
3.60527
21
-3.02031
0
LINE
8
BLACK
6
CONTINUOUS
10
3.60527
20
-3.02031
11
3.60554
21
-3.01992
0
LINE
8
BLACK
6
CONTINUOUS
10
3.60554
20
-3.01992
11
3.60992
21
-3.01554
0
LINE
8
BLACK
6
CONTINUOUS
10
3.60992
20
-3.01554
11
3.61508
21
-3.01209
0
LINE
8
BLACK
6
CONTINUOUS
10
3.61508
20
-3.01209
11
3.62081
21
-3.00971
0
LINE
8
BLACK
6
CONTINUOUS
10
3.62081
20
-3.00971
11
3.6269
21
-3.0085
0
LINE
8
BLACK
6
CONTINUOUS
10
3.6269
20
-3.0085
11
3.6331
21
-3.0085
0
LINE
8
BLACK
6
CONTINUOUS
10
3.6331
20
-3.0085
11
3.63919
21
-3.00971
0
LINE
8
BLACK
6
CONTINUOUS
10
3.63919
20
-3.00971
11
3.64492
21
-3.01209
0
LINE
8
BLACK
6
CONTINUOUS
10
3.64492
20
-3.01209
11
3.65008
21
-3.01554
0
LINE
8
BLACK
6
CONTINUOUS
10
3.65008
20
-3.01554
11
3.65446
21
-3.01992
0
LINE
8
BLACK
6
CONTINUOUS
10
3.65446
20
-3.01992
11
3.65791
21
-3.02508
0
LINE
8
BLACK
6
CONTINUOUS
10
3.65791
20
-3.02508
11
3.66029
21
-3.03081
0
LINE
8
BLACK
6
CONTINUOUS
10
3.66029
20
-3.03081
11
3.6615
21
-3.0369
0
LINE
8
BLACK
6
CONTINUOUS
10
3.6615
20
-3.0369
11
3.6615
21
-3.0431
0
LINE
8
BLACK
6
CONTINUOUS
10
3.6615
20
-3.0431
11
3.66029
21
-3.04919
0
LINE
8
BLACK
6
CONTINUOUS
10
3.66029
20
-3.04919
11
3.65791
21
-3.05492
0
LINE
8
BLACK
6
CONTINUOUS
10
3.65791
20
-3.05492
11
3.65446
21
-3.06008
0
LINE
8
BLACK
6
CONTINUOUS
10
3.65446
20
-3.06008
11
3.65008
21
-3.06446
0
LINE
8
BLACK
6
CONTINUOUS
10
3.65008
20
-3.06446
11
3.64492
21
-3.06791
0
LINE
8
BLACK
6
CONTINUOUS
10
3.64492
20
-3.06791
11
3.63919
21
-3.07029
0
LINE
8
BLACK
6
CONTINUOUS
10
3.63919
20
-3.07029
11
3.6331
21
-3.0715
0
LINE
8
BLACK
6
CONTINUOUS
10
3.6331
20
-3.0715
11
3.6269
21
-3.0715
0
LINE
8
BLACK
6
CONTINUOUS
10
3.6269
20
-3.0715
11
3.62081
21
-3.07029
0
LINE
8
BLACK
6
CONTINUOUS
10
3.62081
20
-3.07029
11
3.61508
21
-3.06791
0
LINE
8
BLACK
6
CONTINUOUS
10
3.61508
20
-3.06791
11
3.60992
21
-3.06446
0
LINE
8
BLACK
6
CONTINUOUS
10
3.60992
20
-3.06446
11
3.60554
21
-3.06008
0
LINE
8
BLACK
6
CONTINUOUS
10
3.60554
20
-3.06008
11
3.60527
21
-3.05969
0
LINE
8
BLACK
6
CONTINUOUS
10
3.60527
20
-3.05969
11
3.5601
21
-3.05969
0
LINE
8
BLACK
6
CONTINUOUS
10
3.5601
20
-3.05969
11
3.55913
21
-3.05978
0
LINE
8
BLACK
6
CONTINUOUS
10
3.55913
20
-3.05978
11
3.55527
21
-3.0594
0
LINE
8
BLACK
6
CONTINUOUS
10
3.55527
20
-3.0594
11
3.55156
21
-3.05827
0
LINE
8
BLACK
6
CONTINUOUS
10
3.55156
20
-3.05827
11
3.54814
21
-3.05645
0
LINE
8
BLACK
6
CONTINUOUS
10
3.54814
20
-3.05645
11
3.54515
21
-3.05399
0
LINE
8
BLACK
6
CONTINUOUS
10
3.54515
20
-3.05399
11
3.54453
21
-3.05324
0
LINE
8
BLACK
6
CONTINUOUS
10
3.54453
20
-3.05324
11
3.52161
21
-3.03032
0
LINE
8
BLACK
6
CONTINUOUS
10
3.52161
20
-3.03032
11
3.41375
21
-3.03032
0
LINE
8
BLACK
6
CONTINUOUS
10
3.41375
20
-3.03032
11
3.41278
21
-3.03041
0
LINE
8
BLACK
6
CONTINUOUS
10
3.41278
20
-3.03041
11
3.40892
21
-3.03003
0
LINE
8
BLACK
6
CONTINUOUS
10
3.40892
20
-3.03003
11
3.40855
21
-3.02992
0
LINE
8
BLACK
6
CONTINUOUS
10
3.40855
20
-3.02992
11
3.40521
21
-3.02891
0
LINE
8
BLACK
6
CONTINUOUS
10
3.40521
20
-3.02891
11
3.40179
21
-3.02708
0
LINE
8
BLACK
6
CONTINUOUS
10
3.40179
20
-3.02708
11
3.39879
21
-3.02462
0
LINE
8
BLACK
6
CONTINUOUS
10
3.39879
20
-3.02462
11
3.39818
21
-3.02387
0
LINE
8
BLACK
6
CONTINUOUS
10
3.39818
20
-3.02387
11
3.32565
21
-2.95134
0
LINE
8
BLACK
6
CONTINUOUS
10
3.32565
20
-2.95134
11
3.3249
21
-2.95072
0
LINE
8
BLACK
6
CONTINUOUS
10
3.3249
20
-2.95072
11
3.32244
21
-2.94773
0
LINE
8
BLACK
6
CONTINUOUS
10
3.32244
20
-2.94773
11
3.32061
21
-2.94431
0
LINE
8
BLACK
6
CONTINUOUS
10
3.32061
20
-2.94431
11
3.31948
21
-2.9406
0
LINE
8
BLACK
6
CONTINUOUS
10
3.31948
20
-2.9406
11
3.3192
21
-2.9377
0
LINE
8
BLACK
6
CONTINUOUS
10
3.3192
20
-2.9377
11
3.3191
21
-2.93674
0
LINE
8
BLACK
6
CONTINUOUS
10
3.3191
20
-2.93674
11
3.3192
21
-2.93577
0
LINE
8
BLACK
6
CONTINUOUS
10
3.3192
20
-2.93577
11
3.3192
21
-2.87209
0
LINE
8
BLACK
6
CONTINUOUS
10
3.3192
20
-2.87209
11
3.3191
21
-2.87112
0
LINE
8
BLACK
6
CONTINUOUS
10
3.3191
20
-2.87112
11
3.31948
21
-2.86726
0
LINE
8
BLACK
6
CONTINUOUS
10
3.31948
20
-2.86726
11
3.32061
21
-2.86355
0
LINE
8
BLACK
6
CONTINUOUS
10
3.32061
20
-2.86355
11
3.32244
21
-2.86013
0
LINE
8
BLACK
6
CONTINUOUS
10
3.32244
20
-2.86013
11
3.3249
21
-2.85713
0
LINE
8
BLACK
6
CONTINUOUS
10
3.3249
20
-2.85713
11
3.32565
21
-2.85651
0
LINE
8
BLACK
6
CONTINUOUS
10
3.32565
20
-2.85651
11
3.36692
21
-2.81524
0
LINE
8
BLACK
6
CONTINUOUS
10
3.36692
20
-2.81524
11
3.36654
21
-2.8133
0
LINE
8
BLACK
6
CONTINUOUS
10
3.36654
20
-2.8133
11
3.36654
21
-2.8067
0
LINE
8
BLACK
6
CONTINUOUS
10
3.36654
20
-2.8067
11
3.36782
21
-2.80024
0
LINE
8
BLACK
6
CONTINUOUS
10
3.36782
20
-2.80024
11
3.37034
21
-2.79415
0
LINE
8
BLACK
6
CONTINUOUS
10
3.37034
20
-2.79415
11
3.37401
21
-2.78867
0
LINE
8
BLACK
6
CONTINUOUS
10
3.37401
20
-2.78867
11
3.37867
21
-2.78401
0
LINE
8
BLACK
6
CONTINUOUS
10
3.37867
20
-2.78401
11
3.38415
21
-2.78034
0
LINE
8
BLACK
6
CONTINUOUS
10
3.38415
20
-2.78034
11
3.39024
21
-2.77782
0
LINE
8
BLACK
6
CONTINUOUS
10
3.39024
20
-2.77782
11
3.3967
21
-2.77654
0
LINE
8
BLACK
6
CONTINUOUS
10
3.3967
20
-2.77654
11
3.4033
21
-2.77654
0
LINE
8
BLACK
6
CONTINUOUS
10
3.4033
20
-2.77654
11
3.40976
21
-2.77782
0
LINE
8
BLACK
6
CONTINUOUS
10
4.23919
20
-3.00971
11
4.24492
21
-3.01209
0
LINE
8
BLACK
6
CONTINUOUS
10
4.24492
20
-3.01209
11
4.25008
21
-3.01554
0
LINE
8
BLACK
6
CONTINUOUS
10
4.25008
20
-3.01554
11
4.25446
21
-3.01992
0
LINE
8
BLACK
6
CONTINUOUS
10
4.25446
20
-3.01992
11
4.25791
21
-3.02508
0
LINE
8
BLACK
6
CONTINUOUS
10
4.25791
20
-3.02508
11
4.26029
21
-3.03081
0
LINE
8
BLACK
6
CONTINUOUS
10
4.26029
20
-3.03081
11
4.2615
21
-3.0369
0
LINE
8
BLACK
6
CONTINUOUS
10
4.2615
20
-3.0369
11
4.2615
21
-3.0431
0
LINE
8
BLACK
6
CONTINUOUS
10
4.2615
20
-3.0431
11
4.26029
21
-3.04919
0
LINE
8
BLACK
6
CONTINUOUS
10
4.26029
20
-3.04919
11
4.25791
21
-3.05492
0
LINE
8
BLACK
6
CONTINUOUS
10
4.25791
20
-3.05492
11
4.25446
21
-3.06008
0
LINE
8
BLACK
6
CONTINUOUS
10
4.25446
20
-3.06008
11
4.25008
21
-3.06446
0
LINE
8
BLACK
6
CONTINUOUS
10
4.25008
20
-3.06446
11
4.24492
21
-3.06791
0
LINE
8
BLACK
6
CONTINUOUS
10
4.24492
20
-3.06791
11
4.23919
21
-3.07029
0
LINE
8
BLACK
6
CONTINUOUS
10
4.23919
20
-3.07029
11
4.2331
21
-3.0715
0
LINE
8
BLACK
6
CONTINUOUS
10
4.2331
20
-3.0715
11
4.2269
21
-3.0715
0
LINE
8
BLACK
6
CONTINUOUS
10
4.2269
20
-3.0715
11
4.22081
21
-3.07029
0
LINE
8
BLACK
6
CONTINUOUS
10
4.22081
20
-3.07029
11
4.21508
21
-3.06791
0
LINE
8
BLACK
6
CONTINUOUS
10
4.21508
20
-3.06791
11
4.20992
21
-3.06446
0
LINE
8
BLACK
6
CONTINUOUS
10
4.20992
20
-3.06446
11
4.20554
21
-3.06008
0
LINE
8
BLACK
6
CONTINUOUS
10
4.20554
20
-3.06008
11
4.20209
21
-3.05492
0
LINE
8
BLACK
6
CONTINUOUS
10
4.20209
20
-3.05492
11
4.19971
21
-3.04919
0
LINE
8
BLACK
6
CONTINUOUS
10
4.19971
20
-3.04919
11
4.1985
21
-3.0431
0
LINE
8
BLACK
6
CONTINUOUS
10
4.1985
20
-3.0431
11
4.1985
21
-3.0369
0
LINE
8
BLACK
6
CONTINUOUS
10
4.1985
20
-3.0369
11
4.19971
21
-3.03081
0
LINE
8
BLACK
6
CONTINUOUS
10
4.19971
20
-3.03081
11
4.20209
21
-3.02508
0
LINE
8
BLACK
6
CONTINUOUS
10
4.20209
20
-3.02508
11
4.20554
21
-3.01992
0
LINE
8
BLACK
6
CONTINUOUS
10
4.20554
20
-3.01992
11
4.20992
21
-3.01554
0
LINE
8
BLACK
6
CONTINUOUS
10
4.20992
20
-3.01554
11
4.21508
21
-3.01209
0
LINE
8
BLACK
6
CONTINUOUS
10
4.21508
20
-3.01209
11
4.22081
21
-3.00971
0
LINE
8
BLACK
6
CONTINUOUS
10
4.22081
20
-3.00971
11
4.2269
21
-3.0085
0
LINE
8
BLACK
6
CONTINUOUS
10
4.2269
20
-3.0085
11
4.2331
21
-3.0085
0
LINE
8
BLACK
6
CONTINUOUS
10
4.2331
20
-3.0085
11
4.23919
21
-3.00971
0
LINE
8
BLACK
6
CONTINUOUS
10
4.35919
20
-3.00971
11
4.36492
21
-3.01209
0
LINE
8
BLACK
6
CONTINUOUS
10
4.36492
20
-3.01209
11
4.37008
21
-3.01554
0
LINE
8
BLACK
6
CONTINUOUS
10
4.37008
20
-3.01554
11
4.37446
21
-3.01992
0
LINE
8
BLACK
6
CONTINUOUS
10
4.37446
20
-3.01992
11
4.37791
21
-3.02508
0
LINE
8
BLACK
6
CONTINUOUS
10
4.37791
20
-3.02508
11
4.38029
21
-3.03081
0
LINE
8
BLACK
6
CONTINUOUS
10
4.38029
20
-3.03081
11
4.3815
21
-3.0369
0
LINE
8
BLACK
6
CONTINUOUS
10
4.3815
20
-3.0369
11
4.3815
21
-3.0431
0
LINE
8
BLACK
6
CONTINUOUS
10
4.3815
20
-3.0431
11
4.38029
21
-3.04919
0
LINE
8
BLACK
6
CONTINUOUS
10
4.38029
20
-3.04919
11
4.37791
21
-3.05492
0
LINE
8
BLACK
6
CONTINUOUS
10
4.37791
20
-3.05492
11
4.37446
21
-3.06008
0
LINE
8
BLACK
6
CONTINUOUS
10
4.37446
20
-3.06008
11
4.37008
21
-3.06446
0
LINE
8
BLACK
6
CONTINUOUS
10
4.37008
20
-3.06446
11
4.36492
21
-3.06791
0
LINE
8
BLACK
6
CONTINUOUS
10
4.36492
20
-3.06791
11
4.35919
21
-3.07029
0
LINE
8
BLACK
6
CONTINUOUS
10
4.35919
20
-3.07029
11
4.3531
21
-3.0715
0
LINE
8
BLACK
6
CONTINUOUS
10
4.3531
20
-3.0715
11
4.3469
21
-3.0715
0
LINE
8
BLACK
6
CONTINUOUS
10
4.3469
20
-3.0715
11
4.34081
21
-3.07029
0
LINE
8
BLACK
6
CONTINUOUS
10
4.34081
20
-3.07029
11
4.33508
21
-3.06791
0
LINE
8
BLACK
6
CONTINUOUS
10
4.33508
20
-3.06791
11
4.32992
21
-3.06446
0
LINE
8
BLACK
6
CONTINUOUS
10
4.32992
20
-3.06446
11
4.32554
21
-3.06008
0
LINE
8
BLACK
6
CONTINUOUS
10
4.32554
20
-3.06008
11
4.32209
21
-3.05492
0
LINE
8
BLACK
6
CONTINUOUS
10
4.32209
20
-3.05492
11
4.31971
21
-3.04919
0
LINE
8
BLACK
6
CONTINUOUS
10
4.31971
20
-3.04919
11
4.3185
21
-3.0431
0
LINE
8
BLACK
6
CONTINUOUS
10
4.3185
20
-3.0431
11
4.3185
21
-3.0369
0
LINE
8
BLACK
6
CONTINUOUS
10
4.3185
20
-3.0369
11
4.31971
21
-3.03081
0
LINE
8
BLACK
6
CONTINUOUS
10
4.31971
20
-3.03081
11
4.32209
21
-3.02508
0
LINE
8
BLACK
6
CONTINUOUS
10
4.32209
20
-3.02508
11
4.32554
21
-3.01992
0
LINE
8
BLACK
6
CONTINUOUS
10
4.32554
20
-3.01992
11
4.32992
21
-3.01554
0
LINE
8
BLACK
6
CONTINUOUS
10
4.32992
20
-3.01554
11
4.33508
21
-3.01209
0
LINE
8
BLACK
6
CONTINUOUS
10
4.33508
20
-3.01209
11
4.34081
21
-3.00971
0
LINE
8
BLACK
6
CONTINUOUS
10
4.34081
20
-3.00971
11
4.3469
21
-3.0085
0
LINE
8
BLACK
6
CONTINUOUS
10
4.3469
20
-3.0085
11
4.3531
21
-3.0085
0
LINE
8
BLACK
6
CONTINUOUS
10
4.3531
20
-3.0085
11
4.35919
21
-3.00971
0
LINE
8
BLACK
6
CONTINUOUS
10
5.46937
20
-2.57937
11
5.39063
21
-2.57937
0
LINE
8
BLACK
6
CONTINUOUS
10
5.39063
20
-2.57937
11
5.39063
21
-2.55969
0
LINE
8
BLACK
6
CONTINUOUS
10
5.39063
20
-2.55969
11
5.35941
21
-2.55969
0
LINE
8
BLACK
6
CONTINUOUS
10
5.35941
20
-2.55969
11
5.28712
21
-2.63198
0
LINE
8
BLACK
6
CONTINUOUS
10
5.28712
20
-2.63198
11
5.28651
21
-2.63273
0
LINE
8
BLACK
6
CONTINUOUS
10
5.28651
20
-2.63273
11
5.28351
21
-2.63519
0
LINE
8
BLACK
6
CONTINUOUS
10
5.28351
20
-2.63519
11
5.28009
21
-2.63701
0
LINE
8
BLACK
6
CONTINUOUS
10
5.28009
20
-2.63701
11
5.27638
21
-2.63814
0
LINE
8
BLACK
6
CONTINUOUS
10
5.27638
20
-2.63814
11
5.27349
21
-2.63843
0
LINE
8
BLACK
6
CONTINUOUS
10
5.27349
20
-2.63843
11
5.27252
21
-2.63852
0
LINE
8
BLACK
6
CONTINUOUS
10
5.27252
20
-2.63852
11
5.27155
21
-2.63843
0
LINE
8
BLACK
6
CONTINUOUS
10
5.27155
20
-2.63843
11
4.66626
21
-2.63843
0
LINE
8
BLACK
6
CONTINUOUS
10
4.66626
20
-2.63843
11
4.5681
21
-2.73659
0
LINE
8
BLACK
6
CONTINUOUS
10
4.5681
20
-2.73659
11
4.56937
21
-2.74297
0
LINE
8
BLACK
6
CONTINUOUS
10
4.56937
20
-2.74297
11
4.56937
21
-2.75073
0
LINE
8
BLACK
6
CONTINUOUS
10
4.56937
20
-2.75073
11
4.56786
21
-2.75833
0
LINE
8
BLACK
6
CONTINUOUS
10
4.56786
20
-2.75833
11
4.56489
21
-2.7655
0
LINE
8
BLACK
6
CONTINUOUS
10
4.56489
20
-2.7655
11
4.56058
21
-2.77195
0
LINE
8
BLACK
6
CONTINUOUS
10
4.56058
20
-2.77195
11
4.5551
21
-2.77743
0
LINE
8
BLACK
6
CONTINUOUS
10
4.5551
20
-2.77743
11
4.54865
21
-2.78174
0
LINE
8
BLACK
6
CONTINUOUS
10
4.54865
20
-2.78174
11
4.54148
21
-2.78471
0
LINE
8
BLACK
6
CONTINUOUS
10
4.54148
20
-2.78471
11
4.53388
21
-2.78622
0
LINE
8
BLACK
6
CONTINUOUS
10
4.53388
20
-2.78622
11
4.52612
21
-2.78622
0
LINE
8
BLACK
6
CONTINUOUS
10
4.52612
20
-2.78622
11
4.51974
21
-2.78495
0
LINE
8
BLACK
6
CONTINUOUS
10
4.51974
20
-2.78495
11
4.42232
21
-2.88237
0
LINE
8
BLACK
6
CONTINUOUS
10
4.42232
20
-2.88237
11
4.4217
21
-2.88312
0
LINE
8
BLACK
6
CONTINUOUS
10
4.4217
20
-2.88312
11
4.41871
21
-2.88558
0
LINE
8
BLACK
6
CONTINUOUS
10
4.41871
20
-2.88558
11
4.41529
21
-2.88741
0
LINE
8
BLACK
6
CONTINUOUS
10
4.41529
20
-2.88741
11
4.41158
21
-2.88853
0
LINE
8
BLACK
6
CONTINUOUS
10
4.41158
20
-2.88853
11
4.40868
21
-2.88882
0
LINE
8
BLACK
6
CONTINUOUS
10
4.40868
20
-2.88882
11
4.40772
21
-2.88891
0
LINE
8
BLACK
6
CONTINUOUS
10
4.40772
20
-2.88891
11
4.40675
21
-2.88882
0
LINE
8
BLACK
6
CONTINUOUS
10
4.40675
20
-2.88882
11
4.36969
21
-2.88882
0
LINE
8
BLACK
6
CONTINUOUS
10
4.36969
20
-2.88882
11
4.36969
21
-2.91527
0
LINE
8
BLACK
6
CONTINUOUS
10
4.36969
20
-2.91527
11
4.37008
21
-2.91554
0
LINE
8
BLACK
6
CONTINUOUS
10
4.37008
20
-2.91554
11
4.37446
21
-2.91992
0
LINE
8
BLACK
6
CONTINUOUS
10
4.37446
20
-2.91992
11
4.37791
21
-2.92508
0
LINE
8
BLACK
6
CONTINUOUS
10
4.37791
20
-2.92508
11
4.38029
21
-2.93081
0
LINE
8
BLACK
6
CONTINUOUS
10
4.38029
20
-2.93081
11
4.3815
21
-2.9369
0
LINE
8
BLACK
6
CONTINUOUS
10
4.3815
20
-2.9369
11
4.3815
21
-2.9431
0
LINE
8
BLACK
6
CONTINUOUS
10
4.3815
20
-2.9431
11
4.38029
21
-2.94919
0
LINE
8
BLACK
6
CONTINUOUS
10
4.38029
20
-2.94919
11
4.37791
21
-2.95492
0
LINE
8
BLACK
6
CONTINUOUS
10
4.37791
20
-2.95492
11
4.37446
21
-2.96008
0
LINE
8
BLACK
6
CONTINUOUS
10
4.37446
20
-2.96008
11
4.37008
21
-2.96446
0
LINE
8
BLACK
6
CONTINUOUS
10
4.37008
20
-2.96446
11
4.36492
21
-2.96791
0
LINE
8
BLACK
6
CONTINUOUS
10
4.36492
20
-2.96791
11
4.35919
21
-2.97029
0
LINE
8
BLACK
6
CONTINUOUS
10
4.35919
20
-2.97029
11
4.3531
21
-2.9715
0
LINE
8
BLACK
6
CONTINUOUS
10
4.3531
20
-2.9715
11
4.3469
21
-2.9715
0
LINE
8
BLACK
6
CONTINUOUS
10
4.3469
20
-2.9715
11
4.34081
21
-2.97029
0
LINE
8
BLACK
6
CONTINUOUS
10
4.34081
20
-2.97029
11
4.33508
21
-2.96791
0
LINE
8
BLACK
6
CONTINUOUS
10
4.33508
20
-2.96791
11
4.32992
21
-2.96446
0
LINE
8
BLACK
6
CONTINUOUS
10
4.32992
20
-2.96446
11
4.32554
21
-2.96008
0
LINE
8
BLACK
6
CONTINUOUS
10
4.32554
20
-2.96008
11
4.32209
21
-2.95492
0
LINE
8
BLACK
6
CONTINUOUS
10
4.32209
20
-2.95492
11
4.31971
21
-2.94919
0
LINE
8
BLACK
6
CONTINUOUS
10
4.31971
20
-2.94919
11
4.3185
21
-2.9431
0
LINE
8
BLACK
6
CONTINUOUS
10
4.3185
20
-2.9431
11
4.3185
21
-2.9369
0
LINE
8
BLACK
6
CONTINUOUS
10
4.3185
20
-2.9369
11
4.31971
21
-2.93081
0
LINE
8
BLACK
6
CONTINUOUS
10
4.31971
20
-2.93081
11
4.32209
21
-2.92508
0
LINE
8
BLACK
6
CONTINUOUS
10
4.32209
20
-2.92508
11
4.32554
21
-2.91992
0
LINE
8
BLACK
6
CONTINUOUS
10
4.32554
20
-2.91992
11
4.32992
21
-2.91554
0
LINE
8
BLACK
6
CONTINUOUS
10
4.32992
20
-2.91554
11
4.33031
21
-2.91527
0
LINE
8
BLACK
6
CONTINUOUS
10
4.33031
20
-2.91527
11
4.33031
21
-2.87729
0
LINE
8
BLACK
6
CONTINUOUS
10
4.33031
20
-2.87729
11
4.19271
21
-2.73969
0
LINE
8
BLACK
6
CONTINUOUS
10
4.19271
20
-2.73969
11
3.95173
21
-2.73969
0
LINE
8
BLACK
6
CONTINUOUS
10
3.95173
20
-2.73969
11
3.95067
21
-2.74098
0
LINE
8
BLACK
6
CONTINUOUS
10
3.95067
20
-2.74098
11
3.94617
21
-2.74467
0
LINE
8
BLACK
6
CONTINUOUS
10
3.94617
20
-2.74467
11
3.94104
21
-2.74741
0
LINE
8
BLACK
6
CONTINUOUS
10
3.94104
20
-2.74741
11
3.93547
21
-2.7491
0
LINE
8
BLACK
6
CONTINUOUS
10
3.93547
20
-2.7491
11
3.93114
21
-2.74953
0
LINE
8
BLACK
6
CONTINUOUS
10
3.93114
20
-2.74953
11
3.88886
21
-2.74953
0
LINE
8
BLACK
6
CONTINUOUS
10
3.88886
20
-2.74953
11
3.88453
21
-2.7491
0
LINE
8
BLACK
6
CONTINUOUS
10
3.88453
20
-2.7491
11
3.87896
21
-2.74741
0
LINE
8
BLACK
6
CONTINUOUS
10
3.87896
20
-2.74741
11
3.87383
21
-2.74467
0
LINE
8
BLACK
6
CONTINUOUS
10
3.87383
20
-2.74467
11
3.86933
21
-2.74098
0
LINE
8
BLACK
6
CONTINUOUS
10
3.86933
20
-2.74098
11
3.86827
21
-2.73969
0
LINE
8
BLACK
6
CONTINUOUS
10
3.86827
20
-2.73969
11
3.82238
21
-2.73969
0
LINE
8
BLACK
6
CONTINUOUS
10
3.82238
20
-2.73969
11
3.82142
21
-2.73978
0
LINE
8
BLACK
6
CONTINUOUS
10
3.82142
20
-2.73978
11
3.82045
21
-2.73969
0
LINE
8
BLACK
6
CONTINUOUS
10
3.82045
20
-2.73969
11
3.82045
21
-2.73969
0
LINE
8
BLACK
6
CONTINUOUS
10
3.82045
20
-2.73969
11
3.81756
21
-2.7394
0
LINE
8
BLACK
6
CONTINUOUS
10
3.81756
20
-2.7394
11
3.81385
21
-2.73827
0
LINE
8
BLACK
6
CONTINUOUS
10
3.81385
20
-2.73827
11
3.81043
21
-2.73645
0
LINE
8
BLACK
6
CONTINUOUS
10
3.81043
20
-2.73645
11
3.80743
21
-2.73399
0
LINE
8
BLACK
6
CONTINUOUS
10
3.80743
20
-2.73399
11
3.80681
21
-2.73324
0
LINE
8
BLACK
6
CONTINUOUS
10
3.80681
20
-2.73324
11
3.80641
21
-2.73283
0
LINE
8
BLACK
6
CONTINUOUS
10
3.80641
20
-2.73283
11
3.73473
21
-2.73283
0
LINE
8
BLACK
6
CONTINUOUS
10
3.73473
20
-2.73283
11
3.73446
21
-2.73323
0
LINE
8
BLACK
6
CONTINUOUS
10
3.73446
20
-2.73323
11
3.73008
21
-2.73761
0
LINE
8
BLACK
6
CONTINUOUS
10
3.73008
20
-2.73761
11
3.72492
21
-2.74106
0
LINE
8
BLACK
6
CONTINUOUS
10
3.72492
20
-2.74106
11
3.71919
21
-2.74344
0
LINE
8
BLACK
6
CONTINUOUS
10
3.71919
20
-2.74344
11
3.7131
21
-2.74465
0
LINE
8
BLACK
6
CONTINUOUS
10
3.7131
20
-2.74465
11
3.7069
21
-2.74465
0
LINE
8
BLACK
6
CONTINUOUS
10
3.7069
20
-2.74465
11
3.70081
21
-2.74344
0
LINE
8
BLACK
6
CONTINUOUS
10
3.70081
20
-2.74344
11
3.69508
21
-2.74106
0
LINE
8
BLACK
6
CONTINUOUS
10
3.69508
20
-2.74106
11
3.68992
21
-2.73761
0
LINE
8
BLACK
6
CONTINUOUS
10
3.68992
20
-2.73761
11
3.68554
21
-2.73323
0
LINE
8
BLACK
6
CONTINUOUS
10
3.68554
20
-2.73323
11
3.68209
21
-2.72807
0
LINE
8
BLACK
6
CONTINUOUS
10
3.68209
20
-2.72807
11
3.67971
21
-2.72234
0
LINE
8
BLACK
6
CONTINUOUS
10
3.67971
20
-2.72234
11
3.6785
21
-2.71625
0
LINE
8
BLACK
6
CONTINUOUS
10
3.6785
20
-2.71625
11
3.6785
21
-2.71005
0
LINE
8
BLACK
6
CONTINUOUS
10
3.6785
20
-2.71005
11
3.6786
21
-2.70958
0
LINE
8
BLACK
6
CONTINUOUS
10
3.6786
20
-2.70958
11
3.5987
21
-2.62969
0
LINE
8
BLACK
6
CONTINUOUS
10
3.5987
20
-2.62969
11
3.52709
21
-2.62969
0
LINE
8
BLACK
6
CONTINUOUS
10
3.52709
20
-2.62969
11
3.52599
21
-2.63133
0
LINE
8
BLACK
6
CONTINUOUS
10
3.52599
20
-2.63133
11
3.52133
21
-2.63599
0
LINE
8
BLACK
6
CONTINUOUS
10
3.52133
20
-2.63599
11
3.51585
21
-2.63966
0
LINE
8
BLACK
6
CONTINUOUS
10
3.51585
20
-2.63966
11
3.50976
21
-2.64218
0
LINE
8
BLACK
6
CONTINUOUS
10
3.50976
20
-2.64218
11
3.5033
21
-2.64346
0
LINE
8
BLACK
6
CONTINUOUS
10
3.5033
20
-2.64346
11
3.4967
21
-2.64346
0
LINE
8
BLACK
6
CONTINUOUS
10
3.4967
20
-2.64346
11
3.49024
21
-2.64218
0
LINE
8
BLACK
6
CONTINUOUS
10
3.49024
20
-2.64218
11
3.48415
21
-2.63966
0
LINE
8
BLACK
6
CONTINUOUS
10
3.48415
20
-2.63966
11
3.47867
21
-2.63599
0
LINE
8
BLACK
6
CONTINUOUS
10
3.47867
20
-2.63599
11
3.47401
21
-2.63133
0
LINE
8
BLACK
6
CONTINUOUS
10
3.47401
20
-2.63133
11
3.47034
21
-2.62585
0
LINE
8
BLACK
6
CONTINUOUS
10
3.47034
20
-2.62585
11
3.46782
21
-2.61976
0
LINE
8
BLACK
6
CONTINUOUS
10
3.46782
20
-2.61976
11
3.46654
21
-2.6133
0
LINE
8
BLACK
6
CONTINUOUS
10
3.46654
20
-2.6133
11
3.46654
21
-2.6067
0
LINE
8
BLACK
6
CONTINUOUS
10
3.46654
20
-2.6067
11
3.46782
21
-2.60024
0
LINE
8
BLACK
6
CONTINUOUS
10
3.46782
20
-2.60024
11
3.47034
21
-2.59415
0
LINE
8
BLACK
6
CONTINUOUS
10
3.47034
20
-2.59415
11
3.47401
21
-2.58867
0
LINE
8
BLACK
6
CONTINUOUS
10
3.47401
20
-2.58867
11
3.47867
21
-2.58401
0
LINE
8
BLACK
6
CONTINUOUS
10
3.47867
20
-2.58401
11
3.48415
21
-2.58034
0
LINE
8
BLACK
6
CONTINUOUS
10
3.48415
20
-2.58034
11
3.49024
21
-2.57782
0
LINE
8
BLACK
6
CONTINUOUS
10
3.49024
20
-2.57782
11
3.4967
21
-2.57654
0
LINE
8
BLACK
6
CONTINUOUS
10
3.4967
20
-2.57654
11
3.5033
21
-2.57654
0
LINE
8
BLACK
6
CONTINUOUS
10
3.5033
20
-2.57654
11
3.50976
21
-2.57782
0
LINE
8
BLACK
6
CONTINUOUS
10
3.50976
20
-2.57782
11
3.51585
21
-2.58034
0
LINE
8
BLACK
6
CONTINUOUS
10
3.51585
20
-2.58034
11
3.52133
21
-2.58401
0
LINE
8
BLACK
6
CONTINUOUS
10
3.52133
20
-2.58401
11
3.52599
21
-2.58867
0
LINE
8
BLACK
6
CONTINUOUS
10
3.52599
20
-2.58867
11
3.52709
21
-2.59031
0
LINE
8
BLACK
6
CONTINUOUS
10
3.52709
20
-2.59031
11
3.60588
21
-2.59031
0
LINE
8
BLACK
6
CONTINUOUS
10
3.60588
20
-2.59031
11
3.60685
21
-2.59022
0
LINE
8
BLACK
6
CONTINUOUS
10
3.60685
20
-2.59022
11
3.60782
21
-2.59031
0
LINE
8
BLACK
6
CONTINUOUS
10
3.60782
20
-2.59031
11
3.61071
21
-2.5906
0
LINE
8
BLACK
6
CONTINUOUS
10
3.61071
20
-2.5906
11
3.61442
21
-2.59173
0
LINE
8
BLACK
6
CONTINUOUS
10
3.61442
20
-2.59173
11
3.61784
21
-2.59355
0
LINE
8
BLACK
6
CONTINUOUS
10
3.61784
20
-2.59355
11
3.62084
21
-2.59601
0
LINE
8
BLACK
6
CONTINUOUS
10
3.62084
20
-2.59601
11
3.62145
21
-2.59676
0
LINE
8
BLACK
6
CONTINUOUS
10
3.62145
20
-2.59676
11
3.70643
21
-2.68175
0
LINE
8
BLACK
6
CONTINUOUS
10
3.70643
20
-2.68175
11
3.7069
21
-2.68165
0
LINE
8
BLACK
6
CONTINUOUS
10
3.7069
20
-2.68165
11
3.7131
21
-2.68165
0
LINE
8
BLACK
6
CONTINUOUS
10
3.7131
20
-2.68165
11
3.71919
21
-2.68286
0
LINE
8
BLACK
6
CONTINUOUS
10
3.71919
20
-2.68286
11
3.72492
21
-2.68524
0
LINE
8
BLACK
6
CONTINUOUS
10
3.72492
20
-2.68524
11
3.73008
21
-2.68868
0
LINE
8
BLACK
6
CONTINUOUS
10
3.73008
20
-2.68868
11
3.73446
21
-2.69307
0
LINE
8
BLACK
6
CONTINUOUS
10
3.73446
20
-2.69307
11
3.73473
21
-2.69346
0
LINE
8
BLACK
6
CONTINUOUS
10
3.73473
20
-2.69346
11
3.8136
21
-2.69346
0
LINE
8
BLACK
6
CONTINUOUS
10
3.8136
20
-2.69346
11
3.81457
21
-2.69337
0
LINE
8
BLACK
6
CONTINUOUS
10
3.81457
20
-2.69337
11
3.81553
21
-2.69346
0
LINE
8
BLACK
6
CONTINUOUS
10
3.81553
20
-2.69346
11
3.81843
21
-2.69375
0
LINE
8
BLACK
6
CONTINUOUS
10
3.81843
20
-2.69375
11
3.82214
21
-2.69488
0
LINE
8
BLACK
6
CONTINUOUS
10
3.82214
20
-2.69488
11
3.82556
21
-2.6967
0
LINE
8
BLACK
6
CONTINUOUS
10
3.82556
20
-2.6967
11
3.82855
21
-2.69916
0
LINE
8
BLACK
6
CONTINUOUS
10
3.82855
20
-2.69916
11
3.82917
21
-2.69991
0
LINE
8
BLACK
6
CONTINUOUS
10
3.82917
20
-2.69991
11
3.82957
21
-2.70031
0
LINE
8
BLACK
6
CONTINUOUS
10
3.82957
20
-2.70031
11
3.86827
21
-2.70031
0
LINE
8
BLACK
6
CONTINUOUS
10
3.86827
20
-2.70031
11
3.86933
21
-2.69902
0
LINE
8
BLACK
6
CONTINUOUS
10
3.86933
20
-2.69902
11
3.87383
21
-2.69533
0
LINE
8
BLACK
6
CONTINUOUS
10
3.87383
20
-2.69533
11
3.87896
21
-2.69259
0
LINE
8
BLACK
6
CONTINUOUS
10
3.87896
20
-2.69259
11
3.88453
21
-2.6909
0
LINE
8
BLACK
6
CONTINUOUS
10
3.88453
20
-2.6909
11
3.88886
21
-2.69047
0
LINE
8
BLACK
6
CONTINUOUS
10
3.88886
20
-2.69047
11
3.93114
21
-2.69047
0
LINE
8
BLACK
6
CONTINUOUS
10
3.93114
20
-2.69047
11
3.93547
21
-2.6909
0
LINE
8
BLACK
6
CONTINUOUS
10
3.93547
20
-2.6909
11
3.94104
21
-2.69259
0
LINE
8
BLACK
6
CONTINUOUS
10
3.94104
20
-2.69259
11
3.94617
21
-2.69533
0
LINE
8
BLACK
6
CONTINUOUS
10
3.94617
20
-2.69533
11
3.95067
21
-2.69902
0
LINE
8
BLACK
6
CONTINUOUS
10
3.95067
20
-2.69902
11
3.95173
21
-2.70031
0
LINE
8
BLACK
6
CONTINUOUS
10
3.95173
20
-2.70031
11
4.1999
21
-2.70031
0
LINE
8
BLACK
6
CONTINUOUS
10
4.1999
20
-2.70031
11
4.20087
21
-2.70022
0
LINE
8
BLACK
6
CONTINUOUS
10
4.20087
20
-2.70022
11
4.20183
21
-2.70031
0
LINE
8
BLACK
6
CONTINUOUS
10
4.20183
20
-2.70031
11
4.20473
21
-2.7006
0
LINE
8
BLACK
6
CONTINUOUS
10
4.20473
20
-2.7006
11
4.20844
21
-2.70173
0
LINE
8
BLACK
6
CONTINUOUS
10
4.20844
20
-2.70173
11
4.21186
21
-2.70355
0
LINE
8
BLACK
6
CONTINUOUS
10
4.21186
20
-2.70355
11
4.21485
21
-2.70601
0
LINE
8
BLACK
6
CONTINUOUS
10
4.21485
20
-2.70601
11
4.21547
21
-2.70676
0
LINE
8
BLACK
6
CONTINUOUS
10
4.21547
20
-2.70676
11
4.35815
21
-2.84945
0
LINE
8
BLACK
6
CONTINUOUS
10
4.35815
20
-2.84945
11
4.39956
21
-2.84945
0
LINE
8
BLACK
6
CONTINUOUS
10
4.39956
20
-2.84945
11
4.4919
21
-2.75711
0
LINE
8
BLACK
6
CONTINUOUS
10
4.4919
20
-2.75711
11
4.49063
21
-2.75073
0
LINE
8
BLACK
6
CONTINUOUS
10
4.49063
20
-2.75073
11
4.49063
21
-2.74297
0
LINE
8
BLACK
6
CONTINUOUS
10
4.49063
20
-2.74297
11
4.49214
21
-2.73537
0
LINE
8
BLACK
6
CONTINUOUS
10
4.49214
20
-2.73537
11
4.49511
21
-2.7282
0
LINE
8
BLACK
6
CONTINUOUS
10
4.49511
20
-2.7282
11
4.49942
21
-2.72175
0
LINE
8
BLACK
6
CONTINUOUS
10
4.49942
20
-2.72175
11
4.5049
21
-2.71627
0
LINE
8
BLACK
6
CONTINUOUS
10
4.5049
20
-2.71627
11
4.51135
21
-2.71196
0
LINE
8
BLACK
6
CONTINUOUS
10
4.51135
20
-2.71196
11
4.51852
21
-2.70899
0
LINE
8
BLACK
6
CONTINUOUS
10
4.51852
20
-2.70899
11
4.52612
21
-2.70748
0
LINE
8
BLACK
6
CONTINUOUS
10
4.52612
20
-2.70748
11
4.53388
21
-2.70748
0
LINE
8
BLACK
6
CONTINUOUS
10
4.53388
20
-2.70748
11
4.54026
21
-2.70875
0
LINE
8
BLACK
6
CONTINUOUS
10
4.54026
20
-2.70875
11
4.64351
21
-2.6055
0
LINE
8
BLACK
6
CONTINUOUS
10
4.64351
20
-2.6055
11
4.64412
21
-2.60475
0
LINE
8
BLACK
6
CONTINUOUS
10
4.64412
20
-2.60475
11
4.64712
21
-2.60229
0
LINE
8
BLACK
6
CONTINUOUS
10
4.64712
20
-2.60229
11
4.65054
21
-2.60047
0
LINE
8
BLACK
6
CONTINUOUS
10
4.65054
20
-2.60047
11
4.65425
21
-2.59934
0
LINE
8
BLACK
6
CONTINUOUS
10
4.65425
20
-2.59934
11
4.65714
21
-2.59906
0
LINE
8
BLACK
6
CONTINUOUS
10
4.65714
20
-2.59906
11
4.65811
21
-2.59896
0
LINE
8
BLACK
6
CONTINUOUS
10
4.65811
20
-2.59896
11
4.65908
21
-2.59906
0
LINE
8
BLACK
6
CONTINUOUS
10
4.65908
20
-2.59906
11
5.26437
21
-2.59906
0
LINE
8
BLACK
6
CONTINUOUS
10
5.26437
20
-2.59906
11
5.33666
21
-2.52676
0
LINE
8
BLACK
6
CONTINUOUS
10
5.33666
20
-2.52676
11
5.33727
21
-2.52601
0
LINE
8
BLACK
6
CONTINUOUS
10
5.33727
20
-2.52601
11
5.34027
21
-2.52355
0
LINE
8
BLACK
6
CONTINUOUS
10
5.34027
20
-2.52355
11
5.34369
21
-2.52173
0
LINE
8
BLACK
6
CONTINUOUS
10
5.34369
20
-2.52173
11
5.3474
21
-2.5206
0
LINE
8
BLACK
6
CONTINUOUS
10
5.3474
20
-2.5206
11
5.35029
21
-2.52031
0
LINE
8
BLACK
6
CONTINUOUS
10
5.35029
20
-2.52031
11
5.35029
21
-2.52031
0
LINE
8
BLACK
6
CONTINUOUS
10
5.35029
20
-2.52031
11
5.35126
21
-2.52022
0
LINE
8
BLACK
6
CONTINUOUS
10
5.35126
20
-2.52022
11
5.35223
21
-2.52031
0
LINE
8
BLACK
6
CONTINUOUS
10
5.35223
20
-2.52031
11
5.39063
21
-2.52031
0
LINE
8
BLACK
6
CONTINUOUS
10
5.39063
20
-2.52031
11
5.39063
21
-2.50063
0
LINE
8
BLACK
6
CONTINUOUS
10
5.39063
20
-2.50063
11
5.46937
21
-2.50063
0
LINE
8
BLACK
6
CONTINUOUS
10
5.46937
20
-2.50063
11
5.46937
21
-2.57937
0
LINE
8
BLACK
6
CONTINUOUS
10
4.79919
20
-2.68971
11
4.80492
21
-2.69209
0
LINE
8
BLACK
6
CONTINUOUS
10
4.80492
20
-2.69209
11
4.81008
21
-2.69554
0
LINE
8
BLACK
6
CONTINUOUS
10
4.81008
20
-2.69554
11
4.81446
21
-2.69992
0
LINE
8
BLACK
6
CONTINUOUS
10
4.81446
20
-2.69992
11
4.81791
21
-2.70508
0
LINE
8
BLACK
6
CONTINUOUS
10
4.81791
20
-2.70508
11
4.82029
21
-2.71081
0
LINE
8
BLACK
6
CONTINUOUS
10
4.82029
20
-2.71081
11
4.8215
21
-2.7169
0
LINE
8
BLACK
6
CONTINUOUS
10
4.8215
20
-2.7169
11
4.8215
21
-2.7231
0
LINE
8
BLACK
6
CONTINUOUS
10
4.8215
20
-2.7231
11
4.82029
21
-2.72919
0
LINE
8
BLACK
6
CONTINUOUS
10
4.82029
20
-2.72919
11
4.81791
21
-2.73492
0
LINE
8
BLACK
6
CONTINUOUS
10
4.81791
20
-2.73492
11
4.81446
21
-2.74008
0
LINE
8
BLACK
6
CONTINUOUS
10
4.81446
20
-2.74008
11
4.81008
21
-2.74446
0
LINE
8
BLACK
6
CONTINUOUS
10
4.81008
20
-2.74446
11
4.80969
21
-2.74473
0
LINE
8
BLACK
6
CONTINUOUS
10
4.80969
20
-2.74473
11
4.80969
21
-2.7899
0
LINE
8
BLACK
6
CONTINUOUS
10
4.80969
20
-2.7899
11
4.80978
21
-2.79087
0
LINE
8
BLACK
6
CONTINUOUS
10
4.80978
20
-2.79087
11
4.80969
21
-2.79183
0
LINE
8
BLACK
6
CONTINUOUS
10
4.80969
20
-2.79183
11
4.8094
21
-2.79473
0
LINE
8
BLACK
6
CONTINUOUS
10
4.8094
20
-2.79473
11
4.80827
21
-2.79844
0
LINE
8
BLACK
6
CONTINUOUS
10
4.80827
20
-2.79844
11
4.80645
21
-2.80186
0
LINE
8
BLACK
6
CONTINUOUS
10
4.80645
20
-2.80186
11
4.80399
21
-2.80485
0
LINE
8
BLACK
6
CONTINUOUS
10
4.80399
20
-2.80485
11
4.80324
21
-2.80547
0
LINE
8
BLACK
6
CONTINUOUS
10
4.80324
20
-2.80547
11
4.72634
21
-2.88237
0
LINE
8
BLACK
6
CONTINUOUS
10
4.72634
20
-2.88237
11
4.72572
21
-2.88312
0
LINE
8
BLACK
6
CONTINUOUS
10
4.72572
20
-2.88312
11
4.72272
21
-2.88558
0
LINE
8
BLACK
6
CONTINUOUS
10
4.72272
20
-2.88558
11
4.7193
21
-2.88741
0
LINE
8
BLACK
6
CONTINUOUS
10
4.7193
20
-2.88741
11
4.71559
21
-2.88853
0
LINE
8
BLACK
6
CONTINUOUS
10
4.71559
20
-2.88853
11
4.7127
21
-2.88882
0
LINE
8
BLACK
6
CONTINUOUS
10
4.7127
20
-2.88882
11
4.71173
21
-2.88891
0
LINE
8
BLACK
6
CONTINUOUS
10
4.71173
20
-2.88891
11
4.71077
21
-2.88882
0
LINE
8
BLACK
6
CONTINUOUS
10
4.71077
20
-2.88882
11
4.66969
21
-2.88882
0
LINE
8
BLACK
6
CONTINUOUS
10
4.66969
20
-2.88882
11
4.66969
21
-2.91527
0
LINE
8
BLACK
6
CONTINUOUS
10
4.66969
20
-2.91527
11
4.67008
21
-2.91554
0
LINE
8
BLACK
6
CONTINUOUS
10
4.67008
20
-2.91554
11
4.67446
21
-2.91992
0
LINE
8
BLACK
6
CONTINUOUS
10
4.67446
20
-2.91992
11
4.67791
21
-2.92508
0
LINE
8
BLACK
6
CONTINUOUS
10
4.67791
20
-2.92508
11
4.68029
21
-2.93081
0
LINE
8
BLACK
6
CONTINUOUS
10
4.68029
20
-2.93081
11
4.6815
21
-2.9369
0
LINE
8
BLACK
6
CONTINUOUS
10
4.6815
20
-2.9369
11
4.6815
21
-2.9431
0
LINE
8
BLACK
6
CONTINUOUS
10
4.6815
20
-2.9431
11
4.68029
21
-2.94919
0
LINE
8
BLACK
6
CONTINUOUS
10
4.68029
20
-2.94919
11
4.67791
21
-2.95492
0
LINE
8
BLACK
6
CONTINUOUS
10
4.67791
20
-2.95492
11
4.67446
21
-2.96008
0
LINE
8
BLACK
6
CONTINUOUS
10
4.67446
20
-2.96008
11
4.67008
21
-2.96446
0
LINE
8
BLACK
6
CONTINUOUS
10
4.67008
20
-2.96446
11
4.66492
21
-2.96791
0
LINE
8
BLACK
6
CONTINUOUS
10
4.66492
20
-2.96791
11
4.65919
21
-2.97029
0
LINE
8
BLACK
6
CONTINUOUS
10
4.65919
20
-2.97029
11
4.6531
21
-2.9715
0
LINE
8
BLACK
6
CONTINUOUS
10
4.6531
20
-2.9715
11
4.6469
21
-2.9715
0
LINE
8
BLACK
6
CONTINUOUS
10
4.6469
20
-2.9715
11
4.64081
21
-2.97029
0
LINE
8
BLACK
6
CONTINUOUS
10
4.64081
20
-2.97029
11
4.63508
21
-2.96791
0
LINE
8
BLACK
6
CONTINUOUS
10
4.63508
20
-2.96791
11
4.62992
21
-2.96446
0
LINE
8
BLACK
6
CONTINUOUS
10
4.62992
20
-2.96446
11
4.62554
21
-2.96008
0
LINE
8
BLACK
6
CONTINUOUS
10
4.62554
20
-2.96008
11
4.62209
21
-2.95492
0
LINE
8
BLACK
6
CONTINUOUS
10
4.62209
20
-2.95492
11
4.61971
21
-2.94919
0
LINE
8
BLACK
6
CONTINUOUS
10
4.61971
20
-2.94919
11
4.6185
21
-2.9431
0
LINE
8
BLACK
6
CONTINUOUS
10
4.6185
20
-2.9431
11
4.6185
21
-2.9369
0
LINE
8
BLACK
6
CONTINUOUS
10
4.6185
20
-2.9369
11
4.61971
21
-2.93081
0
LINE
8
BLACK
6
CONTINUOUS
10
4.61971
20
-2.93081
11
4.62209
21
-2.92508
0
LINE
8
BLACK
6
CONTINUOUS
10
4.62209
20
-2.92508
11
4.62554
21
-2.91992
0
LINE
8
BLACK
6
CONTINUOUS
10
4.62554
20
-2.91992
11
4.62992
21
-2.91554
0
LINE
8
BLACK
6
CONTINUOUS
10
4.62992
20
-2.91554
11
4.63031
21
-2.91527
0
LINE
8
BLACK
6
CONTINUOUS
10
4.63031
20
-2.91527
11
4.63031
21
-2.8701
0
LINE
8
BLACK
6
CONTINUOUS
10
4.63031
20
-2.8701
11
4.63022
21
-2.86913
0
LINE
8
BLACK
6
CONTINUOUS
10
4.63022
20
-2.86913
11
4.6306
21
-2.86527
0
LINE
8
BLACK
6
CONTINUOUS
10
4.6306
20
-2.86527
11
4.63173
21
-2.86156
0
LINE
8
BLACK
6
CONTINUOUS
10
4.63173
20
-2.86156
11
4.63355
21
-2.85814
0
LINE
8
BLACK
6
CONTINUOUS
10
4.63355
20
-2.85814
11
4.63601
21
-2.85515
0
LINE
8
BLACK
6
CONTINUOUS
10
4.63601
20
-2.85515
11
4.63901
21
-2.85269
0
LINE
8
BLACK
6
CONTINUOUS
10
4.63901
20
-2.85269
11
4.64243
21
-2.85086
0
LINE
8
BLACK
6
CONTINUOUS
10
4.64243
20
-2.85086
11
4.64614
21
-2.84973
0
LINE
8
BLACK
6
CONTINUOUS
10
4.64614
20
-2.84973
11
4.64903
21
-2.84945
0
LINE
8
BLACK
6
CONTINUOUS
10
4.64903
20
-2.84945
11
4.65
21
-2.84935
0
LINE
8
BLACK
6
CONTINUOUS
10
4.65
20
-2.84935
11
4.65097
21
-2.84945
0
LINE
8
BLACK
6
CONTINUOUS
10
4.65097
20
-2.84945
11
4.70358
21
-2.84945
0
LINE
8
BLACK
6
CONTINUOUS
10
4.70358
20
-2.84945
11
4.77032
21
-2.78271
0
LINE
8
BLACK
6
CONTINUOUS
10
4.77032
20
-2.78271
11
4.77031
21
-2.74473
0
LINE
8
BLACK
6
CONTINUOUS
10
4.77031
20
-2.74473
11
4.76992
21
-2.74446
0
LINE
8
BLACK
6
CONTINUOUS
10
4.76992
20
-2.74446
11
4.76554
21
-2.74008
0
LINE
8
BLACK
6
CONTINUOUS
10
4.76554
20
-2.74008
11
4.76209
21
-2.73492
0
LINE
8
BLACK
6
CONTINUOUS
10
4.76209
20
-2.73492
11
4.75971
21
-2.72919
0
LINE
8
BLACK
6
CONTINUOUS
10
4.75971
20
-2.72919
11
4.7585
21
-2.7231
0
LINE
8
BLACK
6
CONTINUOUS
10
4.7585
20
-2.7231
11
4.7585
21
-2.7169
0
LINE
8
BLACK
6
CONTINUOUS
10
4.7585
20
-2.7169
11
4.75971
21
-2.71081
0
LINE
8
BLACK
6
CONTINUOUS
10
4.75971
20
-2.71081
11
4.76209
21
-2.70508
0
LINE
8
BLACK
6
CONTINUOUS
10
4.76209
20
-2.70508
11
4.76554
21
-2.69992
0
LINE
8
BLACK
6
CONTINUOUS
10
4.76554
20
-2.69992
11
4.76992
21
-2.69554
0
LINE
8
BLACK
6
CONTINUOUS
10
4.76992
20
-2.69554
11
4.77508
21
-2.69209
0
LINE
8
BLACK
6
CONTINUOUS
10
4.77508
20
-2.69209
11
4.78081
21
-2.68971
0
LINE
8
BLACK
6
CONTINUOUS
10
4.78081
20
-2.68971
11
4.7869
21
-2.6885
0
LINE
8
BLACK
6
CONTINUOUS
10
4.7869
20
-2.6885
11
4.7931
21
-2.6885
0
LINE
8
BLACK
6
CONTINUOUS
10
4.7931
20
-2.6885
11
4.79919
21
-2.68971
0
LINE
8
BLACK
6
CONTINUOUS
10
3.50976
20
-2.87782
11
3.51585
21
-2.88034
0
LINE
8
BLACK
6
CONTINUOUS
10
3.51585
20
-2.88034
11
3.52133
21
-2.88401
0
LINE
8
BLACK
6
CONTINUOUS
10
3.52133
20
-2.88401
11
3.52599
21
-2.88867
0
LINE
8
BLACK
6
CONTINUOUS
10
3.52599
20
-2.88867
11
3.52966
21
-2.89415
0
LINE
8
BLACK
6
CONTINUOUS
10
3.52966
20
-2.89415
11
3.53218
21
-2.90024
0
LINE
8
BLACK
6
CONTINUOUS
10
3.53218
20
-2.90024
11
3.53346
21
-2.9067
0
LINE
8
BLACK
6
CONTINUOUS
10
3.53346
20
-2.9067
11
3.53346
21
-2.9133
0
LINE
8
BLACK
6
CONTINUOUS
10
3.53346
20
-2.9133
11
3.53218
21
-2.91976
0
LINE
8
BLACK
6
CONTINUOUS
10
3.53218
20
-2.91976
11
3.52966
21
-2.92585
0
LINE
8
BLACK
6
CONTINUOUS
10
3.52966
20
-2.92585
11
3.52599
21
-2.93133
0
LINE
8
BLACK
6
CONTINUOUS
10
3.52599
20
-2.93133
11
3.52133
21
-2.93599
0
LINE
8
BLACK
6
CONTINUOUS
10
3.52133
20
-2.93599
11
3.51585
21
-2.93966
0
LINE
8
BLACK
6
CONTINUOUS
10
3.51585
20
-2.93966
11
3.50976
21
-2.94218
0
LINE
8
BLACK
6
CONTINUOUS
10
3.50976
20
-2.94218
11
3.5033
21
-2.94346
0
LINE
8
BLACK
6
CONTINUOUS
10
3.5033
20
-2.94346
11
3.4967
21
-2.94346
0
LINE
8
BLACK
6
CONTINUOUS
10
3.4967
20
-2.94346
11
3.49024
21
-2.94218
0
LINE
8
BLACK
6
CONTINUOUS
10
3.49024
20
-2.94218
11
3.48415
21
-2.93966
0
LINE
8
BLACK
6
CONTINUOUS
10
3.48415
20
-2.93966
11
3.47867
21
-2.93599
0
LINE
8
BLACK
6
CONTINUOUS
10
3.47867
20
-2.93599
11
3.47401
21
-2.93133
0
LINE
8
BLACK
6
CONTINUOUS
10
3.47401
20
-2.93133
11
3.47034
21
-2.92585
0
LINE
8
BLACK
6
CONTINUOUS
10
3.47034
20
-2.92585
11
3.46782
21
-2.91976
0
LINE
8
BLACK
6
CONTINUOUS
10
3.46782
20
-2.91976
11
3.46654
21
-2.9133
0
LINE
8
BLACK
6
CONTINUOUS
10
3.46654
20
-2.9133
11
3.46654
21
-2.9067
0
LINE
8
BLACK
6
CONTINUOUS
10
3.46654
20
-2.9067
11
3.46782
21
-2.90024
0
LINE
8
BLACK
6
CONTINUOUS
10
3.46782
20
-2.90024
11
3.47034
21
-2.89415
0
LINE
8
BLACK
6
CONTINUOUS
10
3.47034
20
-2.89415
11
3.47401
21
-2.88867
0
LINE
8
BLACK
6
CONTINUOUS
10
3.47401
20
-2.88867
11
3.47867
21
-2.88401
0
LINE
8
BLACK
6
CONTINUOUS
10
3.47867
20
-2.88401
11
3.48415
21
-2.88034
0
LINE
8
BLACK
6
CONTINUOUS
10
3.48415
20
-2.88034
11
3.49024
21
-2.87782
0
LINE
8
BLACK
6
CONTINUOUS
10
3.49024
20
-2.87782
11
3.4967
21
-2.87654
0
LINE
8
BLACK
6
CONTINUOUS
10
3.4967
20
-2.87654
11
3.5033
21
-2.87654
0
LINE
8
BLACK
6
CONTINUOUS
10
3.5033
20
-2.87654
11
3.50976
21
-2.87782
0
LINE
8
BLACK
6
CONTINUOUS
10
3.40976
20
-2.87782
11
3.41585
21
-2.88034
0
LINE
8
BLACK
6
CONTINUOUS
10
3.41585
20
-2.88034
11
3.42133
21
-2.88401
0
LINE
8
BLACK
6
CONTINUOUS
10
3.42133
20
-2.88401
11
3.42599
21
-2.88867
0
LINE
8
BLACK
6
CONTINUOUS
10
3.42599
20
-2.88867
11
3.42966
21
-2.89415
0
LINE
8
BLACK
6
CONTINUOUS
10
3.42966
20
-2.89415
11
3.43218
21
-2.90024
0
LINE
8
BLACK
6
CONTINUOUS
10
3.43218
20
-2.90024
11
3.43346
21
-2.9067
0
LINE
8
BLACK
6
CONTINUOUS
10
3.43346
20
-2.9067
11
3.43346
21
-2.9133
0
LINE
8
BLACK
6
CONTINUOUS
10
3.43346
20
-2.9133
11
3.43218
21
-2.91976
0
LINE
8
BLACK
6
CONTINUOUS
10
3.43218
20
-2.91976
11
3.42966
21
-2.92585
0
LINE
8
BLACK
6
CONTINUOUS
10
3.42966
20
-2.92585
11
3.42599
21
-2.93133
0
LINE
8
BLACK
6
CONTINUOUS
10
3.42599
20
-2.93133
11
3.42133
21
-2.93599
0
LINE
8
BLACK
6
CONTINUOUS
10
3.42133
20
-2.93599
11
3.41585
21
-2.93966
0
LINE
8
BLACK
6
CONTINUOUS
10
3.41585
20
-2.93966
11
3.40976
21
-2.94218
0
LINE
8
BLACK
6
CONTINUOUS
10
3.40976
20
-2.94218
11
3.4033
21
-2.94346
0
LINE
8
BLACK
6
CONTINUOUS
10
3.4033
20
-2.94346
11
3.3967
21
-2.94346
0
LINE
8
BLACK
6
CONTINUOUS
10
3.3967
20
-2.94346
11
3.39024
21
-2.94218
0
LINE
8
BLACK
6
CONTINUOUS
10
3.39024
20
-2.94218
11
3.38415
21
-2.93966
0
LINE
8
BLACK
6
CONTINUOUS
10
3.38415
20
-2.93966
11
3.37867
21
-2.93599
0
LINE
8
BLACK
6
CONTINUOUS
10
3.37867
20
-2.93599
11
3.37401
21
-2.93133
0
LINE
8
BLACK
6
CONTINUOUS
10
3.37401
20
-2.93133
11
3.37034
21
-2.92585
0
LINE
8
BLACK
6
CONTINUOUS
10
3.37034
20
-2.92585
11
3.36782
21
-2.91976
0
LINE
8
BLACK
6
CONTINUOUS
10
3.36782
20
-2.91976
11
3.36654
21
-2.9133
0
LINE
8
BLACK
6
CONTINUOUS
10
3.36654
20
-2.9133
11
3.36654
21
-2.9067
0
LINE
8
BLACK
6
CONTINUOUS
10
3.36654
20
-2.9067
11
3.36782
21
-2.90024
0
LINE
8
BLACK
6
CONTINUOUS
10
3.36782
20
-2.90024
11
3.37034
21
-2.89415
0
LINE
8
BLACK
6
CONTINUOUS
10
3.37034
20
-2.89415
11
3.37401
21
-2.88867
0
LINE
8
BLACK
6
CONTINUOUS
10
3.37401
20
-2.88867
11
3.37867
21
-2.88401
0
LINE
8
BLACK
6
CONTINUOUS
10
3.37867
20
-2.88401
11
3.38415
21
-2.88034
0
LINE
8
BLACK
6
CONTINUOUS
10
3.38415
20
-2.88034
11
3.39024
21
-2.87782
0
LINE
8
BLACK
6
CONTINUOUS
10
3.39024
20
-2.87782
11
3.3967
21
-2.87654
0
LINE
8
BLACK
6
CONTINUOUS
10
3.3967
20
-2.87654
11
3.4033
21
-2.87654
0
LINE
8
BLACK
6
CONTINUOUS
10
3.4033
20
-2.87654
11
3.40976
21
-2.87782
0
LINE
8
BLACK
6
CONTINUOUS
10
3.93547
20
-2.7909
11
3.94104
21
-2.79259
0
LINE
8
BLACK
6
CONTINUOUS
10
3.94104
20
-2.79259
11
3.94617
21
-2.79533
0
LINE
8
BLACK
6
CONTINUOUS
10
3.94617
20
-2.79533
11
3.95067
21
-2.79902
0
LINE
8
BLACK
6
CONTINUOUS
10
3.95067
20
-2.79902
11
3.95436
21
-2.80352
0
LINE
8
BLACK
6
CONTINUOUS
10
3.95436
20
-2.80352
11
3.9571
21
-2.80865
0
LINE
8
BLACK
6
CONTINUOUS
10
3.9571
20
-2.80865
11
3.95879
21
-2.81421
0
LINE
8
BLACK
6
CONTINUOUS
10
3.95879
20
-2.81421
11
3.95936
21
-2.82
0
LINE
8
BLACK
6
CONTINUOUS
10
3.95936
20
-2.82
11
3.95879
21
-2.82579
0
LINE
8
BLACK
6
CONTINUOUS
10
3.95879
20
-2.82579
11
3.9571
21
-2.83135
0
LINE
8
BLACK
6
CONTINUOUS
10
3.9571
20
-2.83135
11
3.95436
21
-2.83648
0
LINE
8
BLACK
6
CONTINUOUS
10
3.95436
20
-2.83648
11
3.95067
21
-2.84098
0
LINE
8
BLACK
6
CONTINUOUS
10
3.95067
20
-2.84098
11
3.94617
21
-2.84467
0
LINE
8
BLACK
6
CONTINUOUS
10
3.94617
20
-2.84467
11
3.94104
21
-2.84741
0
LINE
8
BLACK
6
CONTINUOUS
10
3.94104
20
-2.84741
11
3.93547
21
-2.8491
0
LINE
8
BLACK
6
CONTINUOUS
10
3.93547
20
-2.8491
11
3.93114
21
-2.84953
0
LINE
8
BLACK
6
CONTINUOUS
10
3.93114
20
-2.84953
11
3.92969
21
-2.84953
0
LINE
8
BLACK
6
CONTINUOUS
10
3.92969
20
-2.84953
11
3.92969
21
-2.88793
0
LINE
8
BLACK
6
CONTINUOUS
10
3.92969
20
-2.88793
11
3.92978
21
-2.8889
0
LINE
8
BLACK
6
CONTINUOUS
10
3.92978
20
-2.8889
11
3.9294
21
-2.89276
0
LINE
8
BLACK
6
CONTINUOUS
10
3.9294
20
-2.89276
11
3.92827
21
-2.89647
0
LINE
8
BLACK
6
CONTINUOUS
10
3.92827
20
-2.89647
11
3.92645
21
-2.89989
0
LINE
8
BLACK
6
CONTINUOUS
10
3.92645
20
-2.89989
11
3.92399
21
-2.90288
0
LINE
8
BLACK
6
CONTINUOUS
10
3.92399
20
-2.90288
11
3.92099
21
-2.90534
0
LINE
8
BLACK
6
CONTINUOUS
10
3.92099
20
-2.90534
11
3.91757
21
-2.90717
0
LINE
8
BLACK
6
CONTINUOUS
10
3.91757
20
-2.90717
11
3.91386
21
-2.9083
0
LINE
8
BLACK
6
CONTINUOUS
10
3.91386
20
-2.9083
11
3.91097
21
-2.90858
0
LINE
8
BLACK
6
CONTINUOUS
10
3.91097
20
-2.90858
11
3.91
21
-2.90868
0
LINE
8
BLACK
6
CONTINUOUS
10
3.91
20
-2.90868
11
3.90903
21
-2.90858
0
LINE
8
BLACK
6
CONTINUOUS
10
3.90903
20
-2.90858
11
3.7415
21
-2.90858
0
LINE
8
BLACK
6
CONTINUOUS
10
3.7415
20
-2.90858
11
3.7415
21
-2.9131
0
LINE
8
BLACK
6
CONTINUOUS
10
3.7415
20
-2.9131
11
3.74029
21
-2.91919
0
LINE
8
BLACK
6
CONTINUOUS
10
3.74029
20
-2.91919
11
3.73791
21
-2.92492
0
LINE
8
BLACK
6
CONTINUOUS
10
3.73791
20
-2.92492
11
3.73446
21
-2.93008
0
LINE
8
BLACK
6
CONTINUOUS
10
3.73446
20
-2.93008
11
3.73008
21
-2.93446
0
LINE
8
BLACK
6
CONTINUOUS
10
3.73008
20
-2.93446
11
3.72492
21
-2.93791
0
LINE
8
BLACK
6
CONTINUOUS
10
3.72492
20
-2.93791
11
3.71919
21
-2.94029
0
LINE
8
BLACK
6
CONTINUOUS
10
3.71919
20
-2.94029
11
3.7131
21
-2.9415
0
LINE
8
BLACK
6
CONTINUOUS
10
3.7131
20
-2.9415
11
3.7069
21
-2.9415
0
LINE
8
BLACK
6
CONTINUOUS
10
3.7069
20
-2.9415
11
3.70081
21
-2.94029
0
LINE
8
BLACK
6
CONTINUOUS
10
3.70081
20
-2.94029
11
3.69508
21
-2.93791
0
LINE
8
BLACK
6
CONTINUOUS
10
3.69508
20
-2.93791
11
3.68992
21
-2.93446
0
LINE
8
BLACK
6
CONTINUOUS
10
3.68992
20
-2.93446
11
3.68554
21
-2.93008
0
LINE
8
BLACK
6
CONTINUOUS
10
3.68554
20
-2.93008
11
3.68209
21
-2.92492
0
LINE
8
BLACK
6
CONTINUOUS
10
3.68209
20
-2.92492
11
3.67971
21
-2.91919
0
LINE
8
BLACK
6
CONTINUOUS
10
3.67971
20
-2.91919
11
3.6785
21
-2.9131
0
LINE
8
BLACK
6
CONTINUOUS
10
3.6785
20
-2.9131
11
3.6785
21
-2.9069
0
LINE
8
BLACK
6
CONTINUOUS
10
3.6785
20
-2.9069
11
3.67971
21
-2.90081
0
LINE
8
BLACK
6
CONTINUOUS
10
3.67971
20
-2.90081
11
3.68209
21
-2.89508
0
LINE
8
BLACK
6
CONTINUOUS
10
3.68209
20
-2.89508
11
3.68554
21
-2.88992
0
LINE
8
BLACK
6
CONTINUOUS
10
3.68554
20
-2.88992
11
3.68992
21
-2.88554
0
LINE
8
BLACK
6
CONTINUOUS
10
3.68992
20
-2.88554
11
3.69508
21
-2.88209
0
LINE
8
BLACK
6
CONTINUOUS
10
3.69508
20
-2.88209
11
3.70081
21
-2.87971
0
LINE
8
BLACK
6
CONTINUOUS
10
3.70081
20
-2.87971
11
3.7069
21
-2.8785
0
LINE
8
BLACK
6
CONTINUOUS
10
3.7069
20
-2.8785
11
3.7131
21
-2.8785
0
LINE
8
BLACK
6
CONTINUOUS
10
3.7131
20
-2.8785
11
3.71357
21
-2.8786
0
LINE
8
BLACK
6
CONTINUOUS
10
3.71357
20
-2.8786
11
3.7165
21
-2.87566
0
LINE
8
BLACK
6
CONTINUOUS
10
3.7165
20
-2.87566
11
3.71712
21
-2.87491
0
LINE
8
BLACK
6
CONTINUOUS
10
3.71712
20
-2.87491
11
3.72011
21
-2.87245
0
LINE
8
BLACK
6
CONTINUOUS
10
3.72011
20
-2.87245
11
3.72353
21
-2.87062
0
LINE
8
BLACK
6
CONTINUOUS
10
3.72353
20
-2.87062
11
3.72724
21
-2.8695
0
LINE
8
BLACK
6
CONTINUOUS
10
3.72724
20
-2.8695
11
3.73014
21
-2.86921
0
LINE
8
BLACK
6
CONTINUOUS
10
3.73014
20
-2.86921
11
3.73014
21
-2.86921
0
LINE
8
BLACK
6
CONTINUOUS
10
3.73014
20
-2.86921
11
3.7311
21
-2.86912
0
LINE
8
BLACK
6
CONTINUOUS
10
3.7311
20
-2.86912
11
3.73207
21
-2.86921
0
LINE
8
BLACK
6
CONTINUOUS
10
3.73207
20
-2.86921
11
3.89031
21
-2.86921
0
LINE
8
BLACK
6
CONTINUOUS
10
3.89031
20
-2.86921
11
3.89031
21
-2.84953
0
LINE
8
BLACK
6
CONTINUOUS
10
3.89031
20
-2.84953
11
3.88886
21
-2.84953
0
LINE
8
BLACK
6
CONTINUOUS
10
3.88886
20
-2.84953
11
3.88453
21
-2.8491
0
LINE
8
BLACK
6
CONTINUOUS
10
3.88453
20
-2.8491
11
3.87896
21
-2.84741
0
LINE
8
BLACK
6
CONTINUOUS
10
3.87896
20
-2.84741
11
3.87383
21
-2.84467
0
LINE
8
BLACK
6
CONTINUOUS
10
3.87383
20
-2.84467
11
3.86933
21
-2.84098
0
LINE
8
BLACK
6
CONTINUOUS
10
3.86933
20
-2.84098
11
3.86564
21
-2.83648
0
LINE
8
BLACK
6
CONTINUOUS
10
3.86564
20
-2.83648
11
3.8629
21
-2.83135
0
LINE
8
BLACK
6
CONTINUOUS
10
3.8629
20
-2.83135
11
3.86121
21
-2.82579
0
LINE
8
BLACK
6
CONTINUOUS
10
3.86121
20
-2.82579
11
3.86064
21
-2.82
0
LINE
8
BLACK
6
CONTINUOUS
10
3.86064
20
-2.82
11
3.86121
21
-2.81421
0
LINE
8
BLACK
6
CONTINUOUS
10
3.86121
20
-2.81421
11
3.8629
21
-2.80865
0
LINE
8
BLACK
6
CONTINUOUS
10
3.8629
20
-2.80865
11
3.86564
21
-2.80352
0
LINE
8
BLACK
6
CONTINUOUS
10
3.86564
20
-2.80352
11
3.86933
21
-2.79902
0
LINE
8
BLACK
6
CONTINUOUS
10
3.86933
20
-2.79902
11
3.87383
21
-2.79533
0
LINE
8
BLACK
6
CONTINUOUS
10
3.87383
20
-2.79533
11
3.87896
21
-2.79259
0
LINE
8
BLACK
6
CONTINUOUS
10
3.87896
20
-2.79259
11
3.88453
21
-2.7909
0
LINE
8
BLACK
6
CONTINUOUS
10
3.88453
20
-2.7909
11
3.88886
21
-2.79047
0
LINE
8
BLACK
6
CONTINUOUS
10
3.88886
20
-2.79047
11
3.93114
21
-2.79047
0
LINE
8
BLACK
6
CONTINUOUS
10
3.93114
20
-2.79047
11
3.93547
21
-2.7909
0
LINE
8
BLACK
6
CONTINUOUS
10
5.72976
20
-2.60782
11
5.73585
21
-2.61034
0
LINE
8
BLACK
6
CONTINUOUS
10
5.73585
20
-2.61034
11
5.74133
21
-2.61401
0
LINE
8
BLACK
6
CONTINUOUS
10
5.74133
20
-2.61401
11
5.74599
21
-2.61867
0
LINE
8
BLACK
6
CONTINUOUS
10
5.74599
20
-2.61867
11
5.74966
21
-2.62415
0
LINE
8
BLACK
6
CONTINUOUS
10
5.74966
20
-2.62415
11
5.75218
21
-2.63024
0
LINE
8
BLACK
6
CONTINUOUS
10
5.75218
20
-2.63024
11
5.75346
21
-2.6367
0
LINE
8
BLACK
6
CONTINUOUS
10
5.75346
20
-2.6367
11
5.75346
21
-2.6433
0
LINE
8
BLACK
6
CONTINUOUS
10
5.75346
20
-2.6433
11
5.75218
21
-2.64976
0
LINE
8
BLACK
6
CONTINUOUS
10
5.75218
20
-2.64976
11
5.74966
21
-2.65585
0
LINE
8
BLACK
6
CONTINUOUS
10
5.74966
20
-2.65585
11
5.74599
21
-2.66133
0
LINE
8
BLACK
6
CONTINUOUS
10
5.74599
20
-2.66133
11
5.74133
21
-2.66599
0
LINE
8
BLACK
6
CONTINUOUS
10
5.74133
20
-2.66599
11
5.73585
21
-2.66966
0
LINE
8
BLACK
6
CONTINUOUS
10
5.73585
20
-2.66966
11
5.72976
21
-2.67218
0
LINE
8
BLACK
6
CONTINUOUS
10
5.72976
20
-2.67218
11
5.7233
21
-2.67346
0
LINE
8
BLACK
6
CONTINUOUS
10
5.7233
20
-2.67346
11
5.7167
21
-2.67346
0
LINE
8
BLACK
6
CONTINUOUS
10
5.7167
20
-2.67346
11
5.71476
21
-2.67308
0
LINE
8
BLACK
6
CONTINUOUS
10
5.71476
20
-2.67308
11
5.4946
21
-2.89324
0
LINE
8
BLACK
6
CONTINUOUS
10
5.4946
20
-2.89324
11
5.49399
21
-2.89399
0
LINE
8
BLACK
6
CONTINUOUS
10
5.49399
20
-2.89399
11
5.49099
21
-2.89645
0
LINE
8
BLACK
6
CONTINUOUS
10
5.49099
20
-2.89645
11
5.48757
21
-2.89827
0
LINE
8
BLACK
6
CONTINUOUS
10
5.48757
20
-2.89827
11
5.48386
21
-2.8994
0
LINE
8
BLACK
6
CONTINUOUS
10
5.48386
20
-2.8994
11
5.48097
21
-2.89969
0
LINE
8
BLACK
6
CONTINUOUS
10
5.48097
20
-2.89969
11
5.48
21
-2.89978
0
LINE
8
BLACK
6
CONTINUOUS
10
5.48
20
-2.89978
11
5.47903
21
-2.89969
0
LINE
8
BLACK
6
CONTINUOUS
10
5.47903
20
-2.89969
11
5.41473
21
-2.89969
0
LINE
8
BLACK
6
CONTINUOUS
10
5.41473
20
-2.89969
11
5.41446
21
-2.90008
0
LINE
8
BLACK
6
CONTINUOUS
10
5.41446
20
-2.90008
11
5.41008
21
-2.90446
0
LINE
8
BLACK
6
CONTINUOUS
10
5.41008
20
-2.90446
11
5.40492
21
-2.90791
0
LINE
8
BLACK
6
CONTINUOUS
10
5.40492
20
-2.90791
11
5.39919
21
-2.91029
0
LINE
8
BLACK
6
CONTINUOUS
10
5.39919
20
-2.91029
11
5.3931
21
-2.9115
0
LINE
8
BLACK
6
CONTINUOUS
10
5.3931
20
-2.9115
11
5.3869
21
-2.9115
0
LINE
8
BLACK
6
CONTINUOUS
10
5.3869
20
-2.9115
11
5.38081
21
-2.91029
0
LINE
8
BLACK
6
CONTINUOUS
10
5.38081
20
-2.91029
11
5.37508
21
-2.90791
0
LINE
8
BLACK
6
CONTINUOUS
10
5.37508
20
-2.90791
11
5.36992
21
-2.90446
0
LINE
8
BLACK
6
CONTINUOUS
10
5.36992
20
-2.90446
11
5.36554
21
-2.90008
0
LINE
8
BLACK
6
CONTINUOUS
10
5.36554
20
-2.90008
11
5.36209
21
-2.89492
0
LINE
8
BLACK
6
CONTINUOUS
10
5.36209
20
-2.89492
11
5.35971
21
-2.88919
0
LINE
8
BLACK
6
CONTINUOUS
10
5.35971
20
-2.88919
11
5.3585
21
-2.8831
0
LINE
8
BLACK
6
CONTINUOUS
10
5.3585
20
-2.8831
11
5.3585
21
-2.8769
0
LINE
8
BLACK
6
CONTINUOUS
10
5.3585
20
-2.8769
11
5.35971
21
-2.87081
0
LINE
8
BLACK
6
CONTINUOUS
10
5.35971
20
-2.87081
11
5.36209
21
-2.86508
0
LINE
8
BLACK
6
CONTINUOUS
10
5.36209
20
-2.86508
11
5.36554
21
-2.85992
0
LINE
8
BLACK
6
CONTINUOUS
10
5.36554
20
-2.85992
11
5.36992
21
-2.85554
0
LINE
8
BLACK
6
CONTINUOUS
10
5.36992
20
-2.85554
11
5.37508
21
-2.85209
0
LINE
8
BLACK
6
CONTINUOUS
10
5.37508
20
-2.85209
11
5.38081
21
-2.84971
0
LINE
8
BLACK
6
CONTINUOUS
10
5.38081
20
-2.84971
11
5.3869
21
-2.8485
0
LINE
8
BLACK
6
CONTINUOUS
10
5.3869
20
-2.8485
11
5.3931
21
-2.8485
0
LINE
8
BLACK
6
CONTINUOUS
10
5.3931
20
-2.8485
11
5.39919
21
-2.84971
0
LINE
8
BLACK
6
CONTINUOUS
10
5.39919
20
-2.84971
11
5.40492
21
-2.85209
0
LINE
8
BLACK
6
CONTINUOUS
10
5.40492
20
-2.85209
11
5.41008
21
-2.85554
0
LINE
8
BLACK
6
CONTINUOUS
10
5.41008
20
-2.85554
11
5.41446
21
-2.85992
0
LINE
8
BLACK
6
CONTINUOUS
10
5.41446
20
-2.85992
11
5.41473
21
-2.86031
0
LINE
8
BLACK
6
CONTINUOUS
10
5.41473
20
-2.86031
11
5.47185
21
-2.86031
0
LINE
8
BLACK
6
CONTINUOUS
10
5.47185
20
-2.86031
11
5.68692
21
-2.64524
0
LINE
8
BLACK
6
CONTINUOUS
10
5.68692
20
-2.64524
11
5.68654
21
-2.6433
0
LINE
8
BLACK
6
CONTINUOUS
10
5.68654
20
-2.6433
11
5.68654
21
-2.6367
0
LINE
8
BLACK
6
CONTINUOUS
10
5.68654
20
-2.6367
11
5.68782
21
-2.63024
0
LINE
8
BLACK
6
CONTINUOUS
10
5.68782
20
-2.63024
11
5.69034
21
-2.62415
0
LINE
8
BLACK
6
CONTINUOUS
10
5.69034
20
-2.62415
11
5.69401
21
-2.61867
0
LINE
8
BLACK
6
CONTINUOUS
10
5.69401
20
-2.61867
11
5.69867
21
-2.61401
0
LINE
8
BLACK
6
CONTINUOUS
10
5.69867
20
-2.61401
11
5.70415
21
-2.61034
0
LINE
8
BLACK
6
CONTINUOUS
10
5.70415
20
-2.61034
11
5.71024
21
-2.60782
0
LINE
8
BLACK
6
CONTINUOUS
10
5.71024
20
-2.60782
11
5.7167
21
-2.60654
0
LINE
8
BLACK
6
CONTINUOUS
10
5.7167
20
-2.60654
11
5.7233
21
-2.60654
0
LINE
8
BLACK
6
CONTINUOUS
10
5.7233
20
-2.60654
11
5.72976
21
-2.60782
0
LINE
8
BLACK
6
CONTINUOUS
10
3.50976
20
-2.77782
11
3.51585
21
-2.78034
0
LINE
8
BLACK
6
CONTINUOUS
10
3.51585
20
-2.78034
11
3.52133
21
-2.78401
0
LINE
8
BLACK
6
CONTINUOUS
10
3.52133
20
-2.78401
11
3.52599
21
-2.78867
0
LINE
8
BLACK
6
CONTINUOUS
10
3.52599
20
-2.78867
11
3.52966
21
-2.79415
0
LINE
8
BLACK
6
CONTINUOUS
10
3.52966
20
-2.79415
11
3.53218
21
-2.80024
0
LINE
8
BLACK
6
CONTINUOUS
10
3.53218
20
-2.80024
11
3.53346
21
-2.8067
0
LINE
8
BLACK
6
CONTINUOUS
10
3.53346
20
-2.8067
11
3.53346
21
-2.8133
0
LINE
8
BLACK
6
CONTINUOUS
10
3.53346
20
-2.8133
11
3.53218
21
-2.81976
0
LINE
8
BLACK
6
CONTINUOUS
10
3.53218
20
-2.81976
11
3.52966
21
-2.82585
0
LINE
8
BLACK
6
CONTINUOUS
10
3.52966
20
-2.82585
11
3.52599
21
-2.83133
0
LINE
8
BLACK
6
CONTINUOUS
10
3.52599
20
-2.83133
11
3.52133
21
-2.83599
0
LINE
8
BLACK
6
CONTINUOUS
10
3.52133
20
-2.83599
11
3.51585
21
-2.83966
0
LINE
8
BLACK
6
CONTINUOUS
10
3.51585
20
-2.83966
11
3.50976
21
-2.84218
0
LINE
8
BLACK
6
CONTINUOUS
10
3.50976
20
-2.84218
11
3.5033
21
-2.84346
0
LINE
8
BLACK
6
CONTINUOUS
10
3.5033
20
-2.84346
11
3.4967
21
-2.84346
0
LINE
8
BLACK
6
CONTINUOUS
10
3.4967
20
-2.84346
11
3.49024
21
-2.84218
0
LINE
8
BLACK
6
CONTINUOUS
10
3.49024
20
-2.84218
11
3.48415
21
-2.83966
0
LINE
8
BLACK
6
CONTINUOUS
10
3.48415
20
-2.83966
11
3.47867
21
-2.83599
0
LINE
8
BLACK
6
CONTINUOUS
10
3.47867
20
-2.83599
11
3.47401
21
-2.83133
0
LINE
8
BLACK
6
CONTINUOUS
10
3.47401
20
-2.83133
11
3.47034
21
-2.82585
0
LINE
8
BLACK
6
CONTINUOUS
10
3.47034
20
-2.82585
11
3.46782
21
-2.81976
0
LINE
8
BLACK
6
CONTINUOUS
10
3.46782
20
-2.81976
11
3.46654
21
-2.8133
0
LINE
8
BLACK
6
CONTINUOUS
10
3.46654
20
-2.8133
11
3.46654
21
-2.8067
0
LINE
8
BLACK
6
CONTINUOUS
10
3.46654
20
-2.8067
11
3.46782
21
-2.80024
0
LINE
8
BLACK
6
CONTINUOUS
10
3.46782
20
-2.80024
11
3.47034
21
-2.79415
0
LINE
8
BLACK
6
CONTINUOUS
10
3.47034
20
-2.79415
11
3.47401
21
-2.78867
0
LINE
8
BLACK
6
CONTINUOUS
10
3.47401
20
-2.78867
11
3.47867
21
-2.78401
0
LINE
8
BLACK
6
CONTINUOUS
10
3.47867
20
-2.78401
11
3.48415
21
-2.78034
0
LINE
8
BLACK
6
CONTINUOUS
10
3.48415
20
-2.78034
11
3.49024
21
-2.77782
0
LINE
8
BLACK
6
CONTINUOUS
10
3.49024
20
-2.77782
11
3.4967
21
-2.77654
0
LINE
8
BLACK
6
CONTINUOUS
10
3.4967
20
-2.77654
11
3.5033
21
-2.77654
0
LINE
8
BLACK
6
CONTINUOUS
10
3.5033
20
-2.77654
11
3.50976
21
-2.77782
0
LINE
8
BLACK
6
CONTINUOUS
10
3.40976
20
-2.67782
11
3.41585
21
-2.68034
0
LINE
8
BLACK
6
CONTINUOUS
10
3.41585
20
-2.68034
11
3.42133
21
-2.68401
0
LINE
8
BLACK
6
CONTINUOUS
10
3.42133
20
-2.68401
11
3.42599
21
-2.68867
0
LINE
8
BLACK
6
CONTINUOUS
10
3.42599
20
-2.68867
11
3.42966
21
-2.69415
0
LINE
8
BLACK
6
CONTINUOUS
10
3.42966
20
-2.69415
11
3.43218
21
-2.70024
0
LINE
8
BLACK
6
CONTINUOUS
10
3.43218
20
-2.70024
11
3.43346
21
-2.7067
0
LINE
8
BLACK
6
CONTINUOUS
10
3.43346
20
-2.7067
11
3.43346
21
-2.7133
0
LINE
8
BLACK
6
CONTINUOUS
10
3.43346
20
-2.7133
11
3.43218
21
-2.71976
0
LINE
8
BLACK
6
CONTINUOUS
10
3.43218
20
-2.71976
11
3.42966
21
-2.72585
0
LINE
8
BLACK
6
CONTINUOUS
10
3.42966
20
-2.72585
11
3.42599
21
-2.73133
0
LINE
8
BLACK
6
CONTINUOUS
10
3.42599
20
-2.73133
11
3.42133
21
-2.73599
0
LINE
8
BLACK
6
CONTINUOUS
10
3.42133
20
-2.73599
11
3.41585
21
-2.73966
0
LINE
8
BLACK
6
CONTINUOUS
10
3.41585
20
-2.73966
11
3.40976
21
-2.74218
0
LINE
8
BLACK
6
CONTINUOUS
10
3.40976
20
-2.74218
11
3.4033
21
-2.74346
0
LINE
8
BLACK
6
CONTINUOUS
10
3.4033
20
-2.74346
11
3.3967
21
-2.74346
0
LINE
8
BLACK
6
CONTINUOUS
10
3.3967
20
-2.74346
11
3.39024
21
-2.74218
0
LINE
8
BLACK
6
CONTINUOUS
10
3.39024
20
-2.74218
11
3.38415
21
-2.73966
0
LINE
8
BLACK
6
CONTINUOUS
10
3.38415
20
-2.73966
11
3.37867
21
-2.73599
0
LINE
8
BLACK
6
CONTINUOUS
10
3.37867
20
-2.73599
11
3.37401
21
-2.73133
0
LINE
8
BLACK
6
CONTINUOUS
10
3.37401
20
-2.73133
11
3.37034
21
-2.72585
0
LINE
8
BLACK
6
CONTINUOUS
10
3.37034
20
-2.72585
11
3.36782
21
-2.71976
0
LINE
8
BLACK
6
CONTINUOUS
10
3.36782
20
-2.71976
11
3.36654
21
-2.7133
0
LINE
8
BLACK
6
CONTINUOUS
10
3.36654
20
-2.7133
11
3.36654
21
-2.7067
0
LINE
8
BLACK
6
CONTINUOUS
10
3.36654
20
-2.7067
11
3.36782
21
-2.70024
0
LINE
8
BLACK
6
CONTINUOUS
10
3.36782
20
-2.70024
11
3.37034
21
-2.69415
0
LINE
8
BLACK
6
CONTINUOUS
10
3.37034
20
-2.69415
11
3.37401
21
-2.68867
0
LINE
8
BLACK
6
CONTINUOUS
10
3.37401
20
-2.68867
11
3.37867
21
-2.68401
0
LINE
8
BLACK
6
CONTINUOUS
10
3.37867
20
-2.68401
11
3.38415
21
-2.68034
0
LINE
8
BLACK
6
CONTINUOUS
10
3.38415
20
-2.68034
11
3.39024
21
-2.67782
0
LINE
8
BLACK
6
CONTINUOUS
10
3.39024
20
-2.67782
11
3.3967
21
-2.67654
0
LINE
8
BLACK
6
CONTINUOUS
10
3.3967
20
-2.67654
11
3.4033
21
-2.67654
0
LINE
8
BLACK
6
CONTINUOUS
10
3.4033
20
-2.67654
11
3.40976
21
-2.67782
0
LINE
8
BLACK
6
CONTINUOUS
10
3.50976
20
-2.67782
11
3.51585
21
-2.68034
0
LINE
8
BLACK
6
CONTINUOUS
10
3.51585
20
-2.68034
11
3.52133
21
-2.68401
0
LINE
8
BLACK
6
CONTINUOUS
10
3.52133
20
-2.68401
11
3.52599
21
-2.68867
0
LINE
8
BLACK
6
CONTINUOUS
10
3.52599
20
-2.68867
11
3.52966
21
-2.69415
0
LINE
8
BLACK
6
CONTINUOUS
10
3.52966
20
-2.69415
11
3.53218
21
-2.70024
0
LINE
8
BLACK
6
CONTINUOUS
10
3.53218
20
-2.70024
11
3.53346
21
-2.7067
0
LINE
8
BLACK
6
CONTINUOUS
10
3.53346
20
-2.7067
11
3.53346
21
-2.7133
0
LINE
8
BLACK
6
CONTINUOUS
10
3.53346
20
-2.7133
11
3.53218
21
-2.71976
0
LINE
8
BLACK
6
CONTINUOUS
10
3.53218
20
-2.71976
11
3.52966
21
-2.72585
0
LINE
8
BLACK
6
CONTINUOUS
10
3.52966
20
-2.72585
11
3.52599
21
-2.73133
0
LINE
8
BLACK
6
CONTINUOUS
10
3.52599
20
-2.73133
11
3.52133
21
-2.73599
0
LINE
8
BLACK
6
CONTINUOUS
10
3.52133
20
-2.73599
11
3.51585
21
-2.73966
0
LINE
8
BLACK
6
CONTINUOUS
10
3.51585
20
-2.73966
11
3.50976
21
-2.74218
0
LINE
8
BLACK
6
CONTINUOUS
10
3.50976
20
-2.74218
11
3.5033
21
-2.74346
0
LINE
8
BLACK
6
CONTINUOUS
10
3.5033
20
-2.74346
11
3.4967
21
-2.74346
0
LINE
8
BLACK
6
CONTINUOUS
10
3.4967
20
-2.74346
11
3.49024
21
-2.74218
0
LINE
8
BLACK
6
CONTINUOUS
10
3.49024
20
-2.74218
11
3.48415
21
-2.73966
0
LINE
8
BLACK
6
CONTINUOUS
10
3.48415
20
-2.73966
11
3.47867
21
-2.73599
0
LINE
8
BLACK
6
CONTINUOUS
10
3.47867
20
-2.73599
11
3.47401
21
-2.73133
0
LINE
8
BLACK
6
CONTINUOUS
10
3.47401
20
-2.73133
11
3.47034
21
-2.72585
0
LINE
8
BLACK
6
CONTINUOUS
10
3.47034
20
-2.72585
11
3.46782
21
-2.71976
0
LINE
8
BLACK
6
CONTINUOUS
10
3.46782
20
-2.71976
11
3.46654
21
-2.7133
0
LINE
8
BLACK
6
CONTINUOUS
10
3.46654
20
-2.7133
11
3.46654
21
-2.7067
0
LINE
8
BLACK
6
CONTINUOUS
10
3.46654
20
-2.7067
11
3.46782
21
-2.70024
0
LINE
8
BLACK
6
CONTINUOUS
10
3.46782
20
-2.70024
11
3.47034
21
-2.69415
0
LINE
8
BLACK
6
CONTINUOUS
10
3.47034
20
-2.69415
11
3.47401
21
-2.68867
0
LINE
8
BLACK
6
CONTINUOUS
10
3.47401
20
-2.68867
11
3.47867
21
-2.68401
0
LINE
8
BLACK
6
CONTINUOUS
10
3.47867
20
-2.68401
11
3.48415
21
-2.68034
0
LINE
8
BLACK
6
CONTINUOUS
10
3.48415
20
-2.68034
11
3.49024
21
-2.67782
0
LINE
8
BLACK
6
CONTINUOUS
10
3.49024
20
-2.67782
11
3.4967
21
-2.67654
0
LINE
8
BLACK
6
CONTINUOUS
10
3.4967
20
-2.67654
11
3.5033
21
-2.67654
0
LINE
8
BLACK
6
CONTINUOUS
10
3.5033
20
-2.67654
11
3.50976
21
-2.67782
0
LINE
8
BLACK
6
CONTINUOUS
10
5.62976
20
-2.60782
11
5.63585
21
-2.61034
0
LINE
8
BLACK
6
CONTINUOUS
10
5.63585
20
-2.61034
11
5.64133
21
-2.61401
0
LINE
8
BLACK
6
CONTINUOUS
10
5.64133
20
-2.61401
11
5.64599
21
-2.61867
0
LINE
8
BLACK
6
CONTINUOUS
10
5.64599
20
-2.61867
11
5.64966
21
-2.62415
0
LINE
8
BLACK
6
CONTINUOUS
10
5.64966
20
-2.62415
11
5.65218
21
-2.63024
0
LINE
8
BLACK
6
CONTINUOUS
10
5.65218
20
-2.63024
11
5.65346
21
-2.6367
0
LINE
8
BLACK
6
CONTINUOUS
10
5.65346
20
-2.6367
11
5.65346
21
-2.6433
0
LINE
8
BLACK
6
CONTINUOUS
10
5.65346
20
-2.6433
11
5.65218
21
-2.64976
0
LINE
8
BLACK
6
CONTINUOUS
10
5.65218
20
-2.64976
11
5.64966
21
-2.65585
0
LINE
8
BLACK
6
CONTINUOUS
10
5.64966
20
-2.65585
11
5.64599
21
-2.66133
0
LINE
8
BLACK
6
CONTINUOUS
10
5.64599
20
-2.66133
11
5.64133
21
-2.66599
0
LINE
8
BLACK
6
CONTINUOUS
10
5.64133
20
-2.66599
11
5.63585
21
-2.66966
0
LINE
8
BLACK
6
CONTINUOUS
10
5.63585
20
-2.66966
11
5.62976
21
-2.67218
0
LINE
8
BLACK
6
CONTINUOUS
10
5.62976
20
-2.67218
11
5.6233
21
-2.67346
0
LINE
8
BLACK
6
CONTINUOUS
10
5.6233
20
-2.67346
11
5.6167
21
-2.67346
0
LINE
8
BLACK
6
CONTINUOUS
10
5.6167
20
-2.67346
11
5.61024
21
-2.67218
0
LINE
8
BLACK
6
CONTINUOUS
10
5.61024
20
-2.67218
11
5.60415
21
-2.66966
0
LINE
8
BLACK
6
CONTINUOUS
10
5.60415
20
-2.66966
11
5.59867
21
-2.66599
0
LINE
8
BLACK
6
CONTINUOUS
10
5.59867
20
-2.66599
11
5.59401
21
-2.66133
0
LINE
8
BLACK
6
CONTINUOUS
10
5.59401
20
-2.66133
11
5.59034
21
-2.65585
0
LINE
8
BLACK
6
CONTINUOUS
10
5.59034
20
-2.65585
11
5.58782
21
-2.64976
0
LINE
8
BLACK
6
CONTINUOUS
10
5.58782
20
-2.64976
11
5.58654
21
-2.6433
0
LINE
8
BLACK
6
CONTINUOUS
10
5.58654
20
-2.6433
11
5.58654
21
-2.6367
0
LINE
8
BLACK
6
CONTINUOUS
10
5.58654
20
-2.6367
11
5.58782
21
-2.63024
0
LINE
8
BLACK
6
CONTINUOUS
10
5.58782
20
-2.63024
11
5.59034
21
-2.62415
0
LINE
8
BLACK
6
CONTINUOUS
10
5.59034
20
-2.62415
11
5.59401
21
-2.61867
0
LINE
8
BLACK
6
CONTINUOUS
10
5.59401
20
-2.61867
11
5.59867
21
-2.61401
0
LINE
8
BLACK
6
CONTINUOUS
10
5.59867
20
-2.61401
11
5.60415
21
-2.61034
0
LINE
8
BLACK
6
CONTINUOUS
10
5.60415
20
-2.61034
11
5.61024
21
-2.60782
0
LINE
8
BLACK
6
CONTINUOUS
10
5.61024
20
-2.60782
11
5.6167
21
-2.60654
0
LINE
8
BLACK
6
CONTINUOUS
10
5.6167
20
-2.60654
11
5.6233
21
-2.60654
0
LINE
8
BLACK
6
CONTINUOUS
10
5.6233
20
-2.60654
11
5.62976
21
-2.60782
0
LINE
8
BLACK
6
CONTINUOUS
10
3.95921
20
-2.64953
11
3.86079
21
-2.64953
0
LINE
8
BLACK
6
CONTINUOUS
10
3.86079
20
-2.64953
11
3.86079
21
-2.59047
0
LINE
8
BLACK
6
CONTINUOUS
10
3.86079
20
-2.59047
11
3.95921
21
-2.59047
0
LINE
8
BLACK
6
CONTINUOUS
10
3.95921
20
-2.59047
11
3.95921
21
-2.64953
0
LINE
8
BLACK
6
CONTINUOUS
10
3.43346
20
-2.64346
11
3.36654
21
-2.64346
0
LINE
8
BLACK
6
CONTINUOUS
10
3.36654
20
-2.64346
11
3.36654
21
-2.57654
0
LINE
8
BLACK
6
CONTINUOUS
10
3.36654
20
-2.57654
11
3.43346
21
-2.57654
0
LINE
8
BLACK
6
CONTINUOUS
10
3.43346
20
-2.57654
11
3.43346
21
-2.64346
0
LINE
8
BLACK
6
CONTINUOUS
10
4.56937
20
-2.58937
11
4.49063
21
-2.58937
0
LINE
8
BLACK
6
CONTINUOUS
10
4.49063
20
-2.58937
11
4.49063
21
-2.51063
0
LINE
8
BLACK
6
CONTINUOUS
10
4.49063
20
-2.51063
11
4.56937
21
-2.51063
0
LINE
8
BLACK
6
CONTINUOUS
10
4.56937
20
-2.51063
11
4.56937
21
-2.58937
0
LINE
8
BLACK
6
CONTINUOUS
10
4.85093
20
-2.50214
11
4.8581
21
-2.50511
0
LINE
8
BLACK
6
CONTINUOUS
10
4.8581
20
-2.50511
11
4.86455
21
-2.50942
0
LINE
8
BLACK
6
CONTINUOUS
10
4.86455
20
-2.50942
11
4.87003
21
-2.5149
0
LINE
8
BLACK
6
CONTINUOUS
10
4.87003
20
-2.5149
11
4.87434
21
-2.52135
0
LINE
8
BLACK
6
CONTINUOUS
10
4.87434
20
-2.52135
11
4.87731
21
-2.52852
0
LINE
8
BLACK
6
CONTINUOUS
10
4.87731
20
-2.52852
11
4.87882
21
-2.53612
0
LINE
8
BLACK
6
CONTINUOUS
10
4.87882
20
-2.53612
11
4.87882
21
-2.54388
0
LINE
8
BLACK
6
CONTINUOUS
10
4.87882
20
-2.54388
11
4.87731
21
-2.55148
0
LINE
8
BLACK
6
CONTINUOUS
10
4.87731
20
-2.55148
11
4.87434
21
-2.55865
0
LINE
8
BLACK
6
CONTINUOUS
10
4.87434
20
-2.55865
11
4.87003
21
-2.5651
0
LINE
8
BLACK
6
CONTINUOUS
10
4.87003
20
-2.5651
11
4.86455
21
-2.57058
0
LINE
8
BLACK
6
CONTINUOUS
10
4.86455
20
-2.57058
11
4.8581
21
-2.57489
0
LINE
8
BLACK
6
CONTINUOUS
10
4.8581
20
-2.57489
11
4.85093
21
-2.57786
0
LINE
8
BLACK
6
CONTINUOUS
10
4.85093
20
-2.57786
11
4.84333
21
-2.57937
0
LINE
8
BLACK
6
CONTINUOUS
10
4.84333
20
-2.57937
11
4.83557
21
-2.57937
0
LINE
8
BLACK
6
CONTINUOUS
10
4.83557
20
-2.57937
11
4.82796
21
-2.57786
0
LINE
8
BLACK
6
CONTINUOUS
10
4.82796
20
-2.57786
11
4.8208
21
-2.57489
0
LINE
8
BLACK
6
CONTINUOUS
10
4.8208
20
-2.57489
11
4.81435
21
-2.57058
0
LINE
8
BLACK
6
CONTINUOUS
10
4.81435
20
-2.57058
11
4.80887
21
-2.5651
0
LINE
8
BLACK
6
CONTINUOUS
10
4.80887
20
-2.5651
11
4.80456
21
-2.55865
0
LINE
8
BLACK
6
CONTINUOUS
10
4.80456
20
-2.55865
11
4.80159
21
-2.55148
0
LINE
8
BLACK
6
CONTINUOUS
10
4.80159
20
-2.55148
11
4.80008
21
-2.54388
0
LINE
8
BLACK
6
CONTINUOUS
10
4.80008
20
-2.54388
11
4.80008
21
-2.53612
0
LINE
8
BLACK
6
CONTINUOUS
10
4.80008
20
-2.53612
11
4.80159
21
-2.52852
0
LINE
8
BLACK
6
CONTINUOUS
10
4.80159
20
-2.52852
11
4.80456
21
-2.52135
0
LINE
8
BLACK
6
CONTINUOUS
10
4.80456
20
-2.52135
11
4.80887
21
-2.5149
0
LINE
8
BLACK
6
CONTINUOUS
10
4.80887
20
-2.5149
11
4.81435
21
-2.50942
0
LINE
8
BLACK
6
CONTINUOUS
10
4.81435
20
-2.50942
11
4.8208
21
-2.50511
0
LINE
8
BLACK
6
CONTINUOUS
10
4.8208
20
-2.50511
11
4.82796
21
-2.50214
0
LINE
8
BLACK
6
CONTINUOUS
10
4.82796
20
-2.50214
11
4.83557
21
-2.50063
0
LINE
8
BLACK
6
CONTINUOUS
10
4.83557
20
-2.50063
11
4.84333
21
-2.50063
0
LINE
8
BLACK
6
CONTINUOUS
10
4.84333
20
-2.50063
11
4.85093
21
-2.50214
0
LINE
8
BLACK
6
CONTINUOUS
10
5.04778
20
-2.50214
11
5.05495
21
-2.50511
0
LINE
8
BLACK
6
CONTINUOUS
10
5.05495
20
-2.50511
11
5.0614
21
-2.50942
0
LINE
8
BLACK
6
CONTINUOUS
10
5.0614
20
-2.50942
11
5.06688
21
-2.5149
0
LINE
8
BLACK
6
CONTINUOUS
10
5.06688
20
-2.5149
11
5.07119
21
-2.52135
0
LINE
8
BLACK
6
CONTINUOUS
10
5.07119
20
-2.52135
11
5.07416
21
-2.52852
0
LINE
8
BLACK
6
CONTINUOUS
10
5.07416
20
-2.52852
11
5.07567
21
-2.53612
0
LINE
8
BLACK
6
CONTINUOUS
10
5.07567
20
-2.53612
11
5.07567
21
-2.54388
0
LINE
8
BLACK
6
CONTINUOUS
10
5.07567
20
-2.54388
11
5.07416
21
-2.55148
0
LINE
8
BLACK
6
CONTINUOUS
10
5.07416
20
-2.55148
11
5.07119
21
-2.55865
0
LINE
8
BLACK
6
CONTINUOUS
10
5.07119
20
-2.55865
11
5.06688
21
-2.5651
0
LINE
8
BLACK
6
CONTINUOUS
10
5.06688
20
-2.5651
11
5.0614
21
-2.57058
0
LINE
8
BLACK
6
CONTINUOUS
10
5.0614
20
-2.57058
11
5.05495
21
-2.57489
0
LINE
8
BLACK
6
CONTINUOUS
10
5.05495
20
-2.57489
11
5.04778
21
-2.57786
0
LINE
8
BLACK
6
CONTINUOUS
10
5.04778
20
-2.57786
11
5.04018
21
-2.57937
0
LINE
8
BLACK
6
CONTINUOUS
10
5.04018
20
-2.57937
11
5.03242
21
-2.57937
0
LINE
8
BLACK
6
CONTINUOUS
10
5.03242
20
-2.57937
11
5.02482
21
-2.57786
0
LINE
8
BLACK
6
CONTINUOUS
10
5.02482
20
-2.57786
11
5.01765
21
-2.57489
0
LINE
8
BLACK
6
CONTINUOUS
10
5.01765
20
-2.57489
11
5.0112
21
-2.57058
0
LINE
8
BLACK
6
CONTINUOUS
10
5.0112
20
-2.57058
11
5.00572
21
-2.5651
0
LINE
8
BLACK
6
CONTINUOUS
10
5.00572
20
-2.5651
11
5.00141
21
-2.55865
0
LINE
8
BLACK
6
CONTINUOUS
10
5.00141
20
-2.55865
11
4.99844
21
-2.55148
0
LINE
8
BLACK
6
CONTINUOUS
10
4.99844
20
-2.55148
11
4.99693
21
-2.54388
0
LINE
8
BLACK
6
CONTINUOUS
10
4.99693
20
-2.54388
11
4.99693
21
-2.53612
0
LINE
8
BLACK
6
CONTINUOUS
10
4.99693
20
-2.53612
11
4.99844
21
-2.52852
0
LINE
8
BLACK
6
CONTINUOUS
10
4.99844
20
-2.52852
11
5.00141
21
-2.52135
0
LINE
8
BLACK
6
CONTINUOUS
10
5.00141
20
-2.52135
11
5.00572
21
-2.5149
0
LINE
8
BLACK
6
CONTINUOUS
10
5.00572
20
-2.5149
11
5.0112
21
-2.50942
0
LINE
8
BLACK
6
CONTINUOUS
10
5.0112
20
-2.50942
11
5.01765
21
-2.50511
0
LINE
8
BLACK
6
CONTINUOUS
10
5.01765
20
-2.50511
11
5.02482
21
-2.50214
0
LINE
8
BLACK
6
CONTINUOUS
10
5.02482
20
-2.50214
11
5.03242
21
-2.50063
0
LINE
8
BLACK
6
CONTINUOUS
10
5.03242
20
-2.50063
11
5.04018
21
-2.50063
0
LINE
8
BLACK
6
CONTINUOUS
10
5.04018
20
-2.50063
11
5.04778
21
-2.50214
0
LINE
8
BLACK
6
CONTINUOUS
10
5.24463
20
-2.50214
11
5.2518
21
-2.50511
0
LINE
8
BLACK
6
CONTINUOUS
10
5.2518
20
-2.50511
11
5.25825
21
-2.50942
0
LINE
8
BLACK
6
CONTINUOUS
10
5.25825
20
-2.50942
11
5.26373
21
-2.5149
0
LINE
8
BLACK
6
CONTINUOUS
10
5.26373
20
-2.5149
11
5.26804
21
-2.52135
0
LINE
8
BLACK
6
CONTINUOUS
10
5.26804
20
-2.52135
11
5.27101
21
-2.52852
0
LINE
8
BLACK
6
CONTINUOUS
10
5.27101
20
-2.52852
11
5.27252
21
-2.53612
0
LINE
8
BLACK
6
CONTINUOUS
10
5.27252
20
-2.53612
11
5.27252
21
-2.54388
0
LINE
8
BLACK
6
CONTINUOUS
10
5.27252
20
-2.54388
11
5.27101
21
-2.55148
0
LINE
8
BLACK
6
CONTINUOUS
10
5.27101
20
-2.55148
11
5.26804
21
-2.55865
0
LINE
8
BLACK
6
CONTINUOUS
10
5.26804
20
-2.55865
11
5.26373
21
-2.5651
0
LINE
8
BLACK
6
CONTINUOUS
10
5.26373
20
-2.5651
11
5.25825
21
-2.57058
0
LINE
8
BLACK
6
CONTINUOUS
10
5.25825
20
-2.57058
11
5.2518
21
-2.57489
0
LINE
8
BLACK
6
CONTINUOUS
10
5.2518
20
-2.57489
11
5.24463
21
-2.57786
0
LINE
8
BLACK
6
CONTINUOUS
10
5.24463
20
-2.57786
11
5.23703
21
-2.57937
0
LINE
8
BLACK
6
CONTINUOUS
10
5.23703
20
-2.57937
11
5.22927
21
-2.57937
0
LINE
8
BLACK
6
CONTINUOUS
10
5.22927
20
-2.57937
11
5.22167
21
-2.57786
0
LINE
8
BLACK
6
CONTINUOUS
10
5.22167
20
-2.57786
11
5.2145
21
-2.57489
0
LINE
8
BLACK
6
CONTINUOUS
10
5.2145
20
-2.57489
11
5.20805
21
-2.57058
0
LINE
8
BLACK
6
CONTINUOUS
10
5.20805
20
-2.57058
11
5.20257
21
-2.5651
0
LINE
8
BLACK
6
CONTINUOUS
10
5.20257
20
-2.5651
11
5.19826
21
-2.55865
0
LINE
8
BLACK
6
CONTINUOUS
10
5.19826
20
-2.55865
11
5.19529
21
-2.55148
0
LINE
8
BLACK
6
CONTINUOUS
10
5.19529
20
-2.55148
11
5.19378
21
-2.54388
0
LINE
8
BLACK
6
CONTINUOUS
10
5.19378
20
-2.54388
11
5.19378
21
-2.53612
0
LINE
8
BLACK
6
CONTINUOUS
10
5.19378
20
-2.53612
11
5.19529
21
-2.52852
0
LINE
8
BLACK
6
CONTINUOUS
10
5.19529
20
-2.52852
11
5.19826
21
-2.52135
0
LINE
8
BLACK
6
CONTINUOUS
10
5.19826
20
-2.52135
11
5.20257
21
-2.5149
0
LINE
8
BLACK
6
CONTINUOUS
10
5.20257
20
-2.5149
11
5.20805
21
-2.50942
0
LINE
8
BLACK
6
CONTINUOUS
10
5.20805
20
-2.50942
11
5.2145
21
-2.50511
0
LINE
8
BLACK
6
CONTINUOUS
10
5.2145
20
-2.50511
11
5.22167
21
-2.50214
0
LINE
8
BLACK
6
CONTINUOUS
10
5.22167
20
-2.50214
11
5.22927
21
-2.50063
0
LINE
8
BLACK
6
CONTINUOUS
10
5.22927
20
-2.50063
11
5.23703
21
-2.50063
0
LINE
8
BLACK
6
CONTINUOUS
10
5.23703
20
-2.50063
11
5.24463
21
-2.50214
  0
ENDSEC
  0
EOF
