  0
SECTION
  2
HEADER
  9
$ANGBASE
  50
0.0
  9
$ANGDIR
  70
1
  9
$MEASUREMENT
  70
0
  0
ENDSEC
  0
SECTION
  2
TABLES
  0
TABLE
  2
LTYPE
  70
4
  0
LTYPE
  5
40F
  2
CONTINUOUS
  70
0
  3
Solid line
  72
65
  73
0
  40
0.0
  0
LTYPE
  5
410
  2
DASHDOT
 70
0
  3
Dash Dot ____ _ ____ _
 72
65
 73
4
 40
2.0
 49
1.25
 49
-0.25
 49
0.25
 49
-0.25
  0
LTYPE
  5
411
  2
DASHED
 70
0
  3
Dashed __ __ __ __ __
 72
65
 73
2
 40
0.75
 49
0.5
 49
-0.25
  0
LTYPE
  5
43B
  2
DOTTED
 70
0
  3
Dotted .  .  .  .
 72
65
 73
2
 40
0.2
 49
0.0
 49
-0.2
  0
ENDTAB
  0
TABLE
  2
STYLE
  70
4
  0
STYLE
  2
KICAD
  70
0
  40
0
  41
1
  42
1
  50
0
  71
0
  3
isocp.shx
  0
STYLE
  2
KICADB
  70
0
  40
0
  41
1
  42
1
  50
0
  71
0
  3
isocp.shx
  0
STYLE
  2
KICADI
  70
0
  40
0
  41
1
  42
1
  50
15
  71
0
  3
isocp.shx
  0
STYLE
  2
KICADBI
  70
0
  40
0
  41
1
  42
1
  50
15
  71
0
  3
isocp.shx
  0
ENDTAB
  0
TABLE
  2
LAYER
  70
1
  0
LAYER
  2
BLACK
  70
0
  62
7
  6
CONTINUOUS
  0
ENDTAB
  0
ENDSEC
  0
SECTION
  2
ENTITIES
0
LINE
8
BLACK
6
CONTINUOUS
10
3.3699
20
-3.16098
11
3.3699
21
-3.16098
0
LINE
8
BLACK
6
CONTINUOUS
10
3.3699
20
-3.16098
11
3.35631
21
-3.15965
0
LINE
8
BLACK
6
CONTINUOUS
10
3.35631
20
-3.15965
11
3.35629
21
-3.15964
0
LINE
8
BLACK
6
CONTINUOUS
10
3.35629
20
-3.15964
11
3.35621
21
-3.15963
0
LINE
8
BLACK
6
CONTINUOUS
10
3.35621
20
-3.15963
11
3.35612
21
-3.15961
0
LINE
8
BLACK
6
CONTINUOUS
10
3.35612
20
-3.15961
11
3.34304
21
-3.15566
0
LINE
8
BLACK
6
CONTINUOUS
10
3.34304
20
-3.15566
11
3.34303
21
-3.15566
0
LINE
8
BLACK
6
CONTINUOUS
10
3.34303
20
-3.15566
11
3.34295
21
-3.15562
0
LINE
8
BLACK
6
CONTINUOUS
10
3.34295
20
-3.15562
11
3.34286
21
-3.15559
0
LINE
8
BLACK
6
CONTINUOUS
10
3.34286
20
-3.15559
11
3.3308
21
-3.14917
0
LINE
8
BLACK
6
CONTINUOUS
10
3.3308
20
-3.14917
11
3.33079
21
-3.14917
0
LINE
8
BLACK
6
CONTINUOUS
10
3.33079
20
-3.14917
11
3.33072
21
-3.14912
0
LINE
8
BLACK
6
CONTINUOUS
10
3.33072
20
-3.14912
11
3.33064
21
-3.14907
0
LINE
8
BLACK
6
CONTINUOUS
10
3.33064
20
-3.14907
11
3.32005
21
-3.14043
0
LINE
8
BLACK
6
CONTINUOUS
10
3.32005
20
-3.14043
11
3.32004
21
-3.14042
0
LINE
8
BLACK
6
CONTINUOUS
10
3.32004
20
-3.14042
11
3.31998
21
-3.14036
0
LINE
8
BLACK
6
CONTINUOUS
10
3.31998
20
-3.14036
11
3.31992
21
-3.1403
0
LINE
8
BLACK
6
CONTINUOUS
10
3.31992
20
-3.1403
11
3.31121
21
-3.12977
0
LINE
8
BLACK
6
CONTINUOUS
10
3.31121
20
-3.12977
11
3.3112
21
-3.12976
0
LINE
8
BLACK
6
CONTINUOUS
10
3.3112
20
-3.12976
11
3.31115
21
-3.12969
0
LINE
8
BLACK
6
CONTINUOUS
10
3.31115
20
-3.12969
11
3.3111
21
-3.12961
0
LINE
8
BLACK
6
CONTINUOUS
10
3.3111
20
-3.12961
11
3.3046
21
-3.11759
0
LINE
8
BLACK
6
CONTINUOUS
10
3.3046
20
-3.11759
11
3.3046
21
-3.11758
0
LINE
8
BLACK
6
CONTINUOUS
10
3.3046
20
-3.11758
11
3.30456
21
-3.1175
0
LINE
8
BLACK
6
CONTINUOUS
10
3.30456
20
-3.1175
11
3.30453
21
-3.11742
0
LINE
8
BLACK
6
CONTINUOUS
10
3.30453
20
-3.11742
11
3.30049
21
-3.10437
0
LINE
8
BLACK
6
CONTINUOUS
10
3.30049
20
-3.10437
11
3.30049
21
-3.10435
0
LINE
8
BLACK
6
CONTINUOUS
10
3.30049
20
-3.10435
11
3.30047
21
-3.10427
0
LINE
8
BLACK
6
CONTINUOUS
10
3.30047
20
-3.10427
11
3.30045
21
-3.10418
0
LINE
8
BLACK
6
CONTINUOUS
10
3.30045
20
-3.10418
11
3.29902
21
-3.09059
0
LINE
8
BLACK
6
CONTINUOUS
10
3.29902
20
-3.09059
11
3.29902
21
-3.09058
0
LINE
8
BLACK
6
CONTINUOUS
10
3.29902
20
-3.09058
11
3.29902
21
-3.09053
0
LINE
8
BLACK
6
CONTINUOUS
10
3.29902
20
-3.09053
11
3.29902
21
-3.09049
0
LINE
8
BLACK
6
CONTINUOUS
10
3.29902
20
-3.09049
11
3.29902
21
-3.09005
0
LINE
8
BLACK
6
CONTINUOUS
10
3.29902
20
-3.09005
11
3.29902
21
-3.09005
0
LINE
8
BLACK
6
CONTINUOUS
10
3.29902
20
-3.09005
11
3.29902
21
-3.09001
0
LINE
8
BLACK
6
CONTINUOUS
10
3.29902
20
-3.09001
11
3.29902
21
-3.09
0
LINE
8
BLACK
6
CONTINUOUS
10
3.29902
20
-3.09
11
3.29902
21
-3.08999
0
LINE
8
BLACK
6
CONTINUOUS
10
3.29902
20
-3.08999
11
3.29902
21
-2.47995
0
LINE
8
BLACK
6
CONTINUOUS
10
3.29902
20
-2.47995
11
3.29902
21
-2.4799
0
LINE
8
BLACK
6
CONTINUOUS
10
3.29902
20
-2.4799
11
3.29902
21
-2.4799
0
LINE
8
BLACK
6
CONTINUOUS
10
3.29902
20
-2.4799
11
3.30054
21
-2.46437
0
LINE
8
BLACK
6
CONTINUOUS
10
3.30054
20
-2.46437
11
3.30055
21
-2.46435
0
LINE
8
BLACK
6
CONTINUOUS
10
3.30055
20
-2.46435
11
3.30056
21
-2.46426
0
LINE
8
BLACK
6
CONTINUOUS
10
3.30056
20
-2.46426
11
3.30058
21
-2.46418
0
LINE
8
BLACK
6
CONTINUOUS
10
3.30058
20
-2.46418
11
3.30509
21
-2.44923
0
LINE
8
BLACK
6
CONTINUOUS
10
3.30509
20
-2.44923
11
3.3051
21
-2.44922
0
LINE
8
BLACK
6
CONTINUOUS
10
3.3051
20
-2.44922
11
3.30513
21
-2.44913
0
LINE
8
BLACK
6
CONTINUOUS
10
3.30513
20
-2.44913
11
3.30517
21
-2.44905
0
LINE
8
BLACK
6
CONTINUOUS
10
3.30517
20
-2.44905
11
3.3125
21
-2.43527
0
LINE
8
BLACK
6
CONTINUOUS
10
3.3125
20
-2.43527
11
3.3125
21
-2.43527
0
LINE
8
BLACK
6
CONTINUOUS
10
3.3125
20
-2.43527
11
3.3125
21
-2.43527
0
LINE
8
BLACK
6
CONTINUOUS
10
3.3125
20
-2.43527
11
3.3125
21
-2.43525
0
LINE
8
BLACK
6
CONTINUOUS
10
3.3125
20
-2.43525
11
3.31255
21
-2.43518
0
LINE
8
BLACK
6
CONTINUOUS
10
3.31255
20
-2.43518
11
3.3126
21
-2.43511
0
LINE
8
BLACK
6
CONTINUOUS
10
3.3126
20
-2.43511
11
3.32247
21
-2.42301
0
LINE
8
BLACK
6
CONTINUOUS
10
3.32247
20
-2.42301
11
3.32247
21
-2.42301
0
LINE
8
BLACK
6
CONTINUOUS
10
3.32247
20
-2.42301
11
3.32247
21
-2.42301
0
LINE
8
BLACK
6
CONTINUOUS
10
3.32247
20
-2.42301
11
3.32248
21
-2.423
0
LINE
8
BLACK
6
CONTINUOUS
10
3.32248
20
-2.423
11
3.32254
21
-2.42293
0
LINE
8
BLACK
6
CONTINUOUS
10
3.32254
20
-2.42293
11
3.32261
21
-2.42287
0
LINE
8
BLACK
6
CONTINUOUS
10
3.32261
20
-2.42287
11
3.33464
21
-2.41292
0
LINE
8
BLACK
6
CONTINUOUS
10
3.33464
20
-2.41292
11
3.33464
21
-2.41292
0
LINE
8
BLACK
6
CONTINUOUS
10
3.33464
20
-2.41292
11
3.33464
21
-2.41292
0
LINE
8
BLACK
6
CONTINUOUS
10
3.33464
20
-2.41292
11
3.33465
21
-2.41291
0
LINE
8
BLACK
6
CONTINUOUS
10
3.33465
20
-2.41291
11
3.33472
21
-2.41286
0
LINE
8
BLACK
6
CONTINUOUS
10
3.33472
20
-2.41286
11
3.3348
21
-2.41281
0
LINE
8
BLACK
6
CONTINUOUS
10
3.3348
20
-2.41281
11
3.34853
21
-2.40539
0
LINE
8
BLACK
6
CONTINUOUS
10
3.34853
20
-2.40539
11
3.34853
21
-2.40539
0
LINE
8
BLACK
6
CONTINUOUS
10
3.34853
20
-2.40539
11
3.34853
21
-2.40539
0
LINE
8
BLACK
6
CONTINUOUS
10
3.34853
20
-2.40539
11
3.34854
21
-2.40538
0
LINE
8
BLACK
6
CONTINUOUS
10
3.34854
20
-2.40538
11
3.34863
21
-2.40534
0
LINE
8
BLACK
6
CONTINUOUS
10
3.34863
20
-2.40534
11
3.34871
21
-2.40531
0
LINE
8
BLACK
6
CONTINUOUS
10
3.34871
20
-2.40531
11
3.36362
21
-2.40069
0
LINE
8
BLACK
6
CONTINUOUS
10
3.36362
20
-2.40069
11
3.36362
21
-2.40069
0
LINE
8
BLACK
6
CONTINUOUS
10
3.36362
20
-2.40069
11
3.36364
21
-2.40069
0
LINE
8
BLACK
6
CONTINUOUS
10
3.36364
20
-2.40069
11
3.36372
21
-2.40067
0
LINE
8
BLACK
6
CONTINUOUS
10
3.36372
20
-2.40067
11
3.36381
21
-2.40066
0
LINE
8
BLACK
6
CONTINUOUS
10
3.36381
20
-2.40066
11
3.37934
21
-2.39902
0
LINE
8
BLACK
6
CONTINUOUS
10
3.37934
20
-2.39902
11
3.37935
21
-2.39902
0
LINE
8
BLACK
6
CONTINUOUS
10
3.37935
20
-2.39902
11
3.3794
21
-2.39902
0
LINE
8
BLACK
6
CONTINUOUS
10
3.3794
20
-2.39902
11
3.37944
21
-2.39902
0
LINE
8
BLACK
6
CONTINUOUS
10
3.37944
20
-2.39902
11
3.37995
21
-2.39902
0
LINE
8
BLACK
6
CONTINUOUS
10
3.37995
20
-2.39902
11
3.37995
21
-2.39902
0
LINE
8
BLACK
6
CONTINUOUS
10
3.37995
20
-2.39902
11
6.00005
21
-2.39902
0
LINE
8
BLACK
6
CONTINUOUS
10
6.00005
20
-2.39902
11
6.0001
21
-2.39902
0
LINE
8
BLACK
6
CONTINUOUS
10
6.0001
20
-2.39902
11
6.0001
21
-2.39902
0
LINE
8
BLACK
6
CONTINUOUS
10
6.0001
20
-2.39902
11
6.01563
21
-2.40054
0
LINE
8
BLACK
6
CONTINUOUS
10
6.01563
20
-2.40054
11
6.01565
21
-2.40055
0
LINE
8
BLACK
6
CONTINUOUS
10
6.01565
20
-2.40055
11
6.01574
21
-2.40056
0
LINE
8
BLACK
6
CONTINUOUS
10
6.01574
20
-2.40056
11
6.01582
21
-2.40058
0
LINE
8
BLACK
6
CONTINUOUS
10
6.01582
20
-2.40058
11
6.03077
21
-2.40509
0
LINE
8
BLACK
6
CONTINUOUS
10
6.03077
20
-2.40509
11
6.03078
21
-2.4051
0
LINE
8
BLACK
6
CONTINUOUS
10
6.03078
20
-2.4051
11
6.03087
21
-2.40513
0
LINE
8
BLACK
6
CONTINUOUS
10
6.03087
20
-2.40513
11
6.03095
21
-2.40517
0
LINE
8
BLACK
6
CONTINUOUS
10
6.03095
20
-2.40517
11
6.04473
21
-2.4125
0
LINE
8
BLACK
6
CONTINUOUS
10
6.04473
20
-2.4125
11
6.04473
21
-2.4125
0
LINE
8
BLACK
6
CONTINUOUS
10
6.04473
20
-2.4125
11
6.04473
21
-2.4125
0
LINE
8
BLACK
6
CONTINUOUS
10
6.04473
20
-2.4125
11
6.04475
21
-2.4125
0
LINE
8
BLACK
6
CONTINUOUS
10
6.04475
20
-2.4125
11
6.04482
21
-2.41255
0
LINE
8
BLACK
6
CONTINUOUS
10
6.04482
20
-2.41255
11
6.04489
21
-2.4126
0
LINE
8
BLACK
6
CONTINUOUS
10
6.04489
20
-2.4126
11
6.05699
21
-2.42247
0
LINE
8
BLACK
6
CONTINUOUS
10
6.05699
20
-2.42247
11
6.05699
21
-2.42247
0
LINE
8
BLACK
6
CONTINUOUS
10
6.05699
20
-2.42247
11
6.05699
21
-2.42247
0
LINE
8
BLACK
6
CONTINUOUS
10
6.05699
20
-2.42247
11
6.057
21
-2.42248
0
LINE
8
BLACK
6
CONTINUOUS
10
6.057
20
-2.42248
11
6.05707
21
-2.42254
0
LINE
8
BLACK
6
CONTINUOUS
10
6.05707
20
-2.42254
11
6.05713
21
-2.42261
0
LINE
8
BLACK
6
CONTINUOUS
10
6.05713
20
-2.42261
11
6.06708
21
-2.43464
0
LINE
8
BLACK
6
CONTINUOUS
10
6.06708
20
-2.43464
11
6.06708
21
-2.43464
0
LINE
8
BLACK
6
CONTINUOUS
10
6.06708
20
-2.43464
11
6.06708
21
-2.43464
0
LINE
8
BLACK
6
CONTINUOUS
10
6.06708
20
-2.43464
11
6.06709
21
-2.43465
0
LINE
8
BLACK
6
CONTINUOUS
10
6.06709
20
-2.43465
11
6.06714
21
-2.43472
0
LINE
8
BLACK
6
CONTINUOUS
10
6.06714
20
-2.43472
11
6.06719
21
-2.4348
0
LINE
8
BLACK
6
CONTINUOUS
10
6.06719
20
-2.4348
11
6.07461
21
-2.44853
0
LINE
8
BLACK
6
CONTINUOUS
10
6.07461
20
-2.44853
11
6.07461
21
-2.44853
0
LINE
8
BLACK
6
CONTINUOUS
10
6.07461
20
-2.44853
11
6.07461
21
-2.44853
0
LINE
8
BLACK
6
CONTINUOUS
10
6.07461
20
-2.44853
11
6.07462
21
-2.44854
0
LINE
8
BLACK
6
CONTINUOUS
10
6.07462
20
-2.44854
11
6.07466
21
-2.44863
0
LINE
8
BLACK
6
CONTINUOUS
10
6.07466
20
-2.44863
11
6.07469
21
-2.44871
0
LINE
8
BLACK
6
CONTINUOUS
10
6.07469
20
-2.44871
11
6.07931
21
-2.46362
0
LINE
8
BLACK
6
CONTINUOUS
10
6.07931
20
-2.46362
11
6.07931
21
-2.46364
0
LINE
8
BLACK
6
CONTINUOUS
10
6.07931
20
-2.46364
11
6.07933
21
-2.46372
0
LINE
8
BLACK
6
CONTINUOUS
10
6.07933
20
-2.46372
11
6.07934
21
-2.46381
0
LINE
8
BLACK
6
CONTINUOUS
10
6.07934
20
-2.46381
11
6.08098
21
-2.47934
0
LINE
8
BLACK
6
CONTINUOUS
10
6.08098
20
-2.47934
11
6.08098
21
-2.47935
0
LINE
8
BLACK
6
CONTINUOUS
10
6.08098
20
-2.47935
11
6.08098
21
-2.4794
0
LINE
8
BLACK
6
CONTINUOUS
10
6.08098
20
-2.4794
11
6.08098
21
-2.47944
0
LINE
8
BLACK
6
CONTINUOUS
10
6.08098
20
-2.47944
11
6.08098
21
-2.47995
0
LINE
8
BLACK
6
CONTINUOUS
10
6.08098
20
-2.47995
11
6.08098
21
-2.47995
0
LINE
8
BLACK
6
CONTINUOUS
10
6.08098
20
-2.47995
11
6.08098
21
-3.09005
0
LINE
8
BLACK
6
CONTINUOUS
10
6.08098
20
-3.09005
11
6.08098
21
-3.0901
0
LINE
8
BLACK
6
CONTINUOUS
10
6.08098
20
-3.0901
11
6.08098
21
-3.0901
0
LINE
8
BLACK
6
CONTINUOUS
10
6.08098
20
-3.0901
11
6.07965
21
-3.10369
0
LINE
8
BLACK
6
CONTINUOUS
10
6.07965
20
-3.10369
11
6.07965
21
-3.10371
0
LINE
8
BLACK
6
CONTINUOUS
10
6.07965
20
-3.10371
11
6.07963
21
-3.10379
0
LINE
8
BLACK
6
CONTINUOUS
10
6.07963
20
-3.10379
11
6.07961
21
-3.10388
0
LINE
8
BLACK
6
CONTINUOUS
10
6.07961
20
-3.10388
11
6.07566
21
-3.11696
0
LINE
8
BLACK
6
CONTINUOUS
10
6.07566
20
-3.11696
11
6.07566
21
-3.11697
0
LINE
8
BLACK
6
CONTINUOUS
10
6.07566
20
-3.11697
11
6.07562
21
-3.11705
0
LINE
8
BLACK
6
CONTINUOUS
10
6.07562
20
-3.11705
11
6.07559
21
-3.11714
0
LINE
8
BLACK
6
CONTINUOUS
10
6.07559
20
-3.11714
11
6.06917
21
-3.1292
0
LINE
8
BLACK
6
CONTINUOUS
10
6.06917
20
-3.1292
11
6.06917
21
-3.12921
0
LINE
8
BLACK
6
CONTINUOUS
10
6.06917
20
-3.12921
11
6.06912
21
-3.12928
0
LINE
8
BLACK
6
CONTINUOUS
10
6.06912
20
-3.12928
11
6.06907
21
-3.12936
0
LINE
8
BLACK
6
CONTINUOUS
10
6.06907
20
-3.12936
11
6.06043
21
-3.13995
0
LINE
8
BLACK
6
CONTINUOUS
10
6.06043
20
-3.13995
11
6.06042
21
-3.13996
0
LINE
8
BLACK
6
CONTINUOUS
10
6.06042
20
-3.13996
11
6.06036
21
-3.14002
0
LINE
8
BLACK
6
CONTINUOUS
10
6.06036
20
-3.14002
11
6.0603
21
-3.14008
0
LINE
8
BLACK
6
CONTINUOUS
10
6.0603
20
-3.14008
11
6.04977
21
-3.14879
0
LINE
8
BLACK
6
CONTINUOUS
10
6.04977
20
-3.14879
11
6.04976
21
-3.1488
0
LINE
8
BLACK
6
CONTINUOUS
10
6.04976
20
-3.1488
11
6.04969
21
-3.14885
0
LINE
8
BLACK
6
CONTINUOUS
10
6.04969
20
-3.14885
11
6.04961
21
-3.1489
0
LINE
8
BLACK
6
CONTINUOUS
10
6.04961
20
-3.1489
11
6.03759
21
-3.1554
0
LINE
8
BLACK
6
CONTINUOUS
10
6.03759
20
-3.1554
11
6.03758
21
-3.1554
0
LINE
8
BLACK
6
CONTINUOUS
10
6.03758
20
-3.1554
11
6.0375
21
-3.15544
0
LINE
8
BLACK
6
CONTINUOUS
10
6.0375
20
-3.15544
11
6.03742
21
-3.15547
0
LINE
8
BLACK
6
CONTINUOUS
10
6.03742
20
-3.15547
11
6.02437
21
-3.15951
0
LINE
8
BLACK
6
CONTINUOUS
10
6.02437
20
-3.15951
11
6.02435
21
-3.15951
0
LINE
8
BLACK
6
CONTINUOUS
10
6.02435
20
-3.15951
11
6.02427
21
-3.15953
0
LINE
8
BLACK
6
CONTINUOUS
10
6.02427
20
-3.15953
11
6.02418
21
-3.15955
0
LINE
8
BLACK
6
CONTINUOUS
10
6.02418
20
-3.15955
11
6.01059
21
-3.16098
0
LINE
8
BLACK
6
CONTINUOUS
10
6.01059
20
-3.16098
11
6.01058
21
-3.16098
0
LINE
8
BLACK
6
CONTINUOUS
10
6.01058
20
-3.16098
11
6.01053
21
-3.16098
0
LINE
8
BLACK
6
CONTINUOUS
10
6.01053
20
-3.16098
11
6.01049
21
-3.16098
0
LINE
8
BLACK
6
CONTINUOUS
10
6.01049
20
-3.16098
11
6.01005
21
-3.16098
0
LINE
8
BLACK
6
CONTINUOUS
10
6.01005
20
-3.16098
11
6.01005
21
-3.16098
0
LINE
8
BLACK
6
CONTINUOUS
10
6.01005
20
-3.16098
11
3.36995
21
-3.16098
0
LINE
8
BLACK
6
CONTINUOUS
10
3.36995
20
-3.16098
11
3.3699
21
-3.16098
0
LINE
8
BLACK
6
CONTINUOUS
10
3.38
20
-2.40098
11
3.37949
21
-2.40099
0
LINE
8
BLACK
6
CONTINUOUS
10
3.37949
20
-2.40099
11
3.36411
21
-2.4026
0
LINE
8
BLACK
6
CONTINUOUS
10
3.36411
20
-2.4026
11
3.34938
21
-2.40716
0
LINE
8
BLACK
6
CONTINUOUS
10
3.34938
20
-2.40716
11
3.33582
21
-2.4145
0
LINE
8
BLACK
6
CONTINUOUS
10
3.33582
20
-2.4145
11
3.32394
21
-2.42433
0
LINE
8
BLACK
6
CONTINUOUS
10
3.32394
20
-2.42433
11
3.31419
21
-2.43628
0
LINE
8
BLACK
6
CONTINUOUS
10
3.31419
20
-2.43628
11
3.30695
21
-2.44989
0
LINE
8
BLACK
6
CONTINUOUS
10
3.30695
20
-2.44989
11
3.30249
21
-2.46465
0
LINE
8
BLACK
6
CONTINUOUS
10
3.30249
20
-2.46465
11
3.30098
21
-2.48005
0
LINE
8
BLACK
6
CONTINUOUS
10
3.30098
20
-2.48005
11
3.30098
21
-3.09
0
LINE
8
BLACK
6
CONTINUOUS
10
3.30098
20
-3.09
11
3.30099
21
-3.09044
0
LINE
8
BLACK
6
CONTINUOUS
10
3.30099
20
-3.09044
11
3.3024
21
-3.10388
0
LINE
8
BLACK
6
CONTINUOUS
10
3.3024
20
-3.10388
11
3.30638
21
-3.11674
0
LINE
8
BLACK
6
CONTINUOUS
10
3.30638
20
-3.11674
11
3.31279
21
-3.12859
0
LINE
8
BLACK
6
CONTINUOUS
10
3.31279
20
-3.12859
11
3.32137
21
-3.13897
0
LINE
8
BLACK
6
CONTINUOUS
10
3.32137
20
-3.13897
11
3.33181
21
-3.14748
0
LINE
8
BLACK
6
CONTINUOUS
10
3.33181
20
-3.14748
11
3.3437
21
-3.1538
0
LINE
8
BLACK
6
CONTINUOUS
10
3.3437
20
-3.1538
11
3.3566
21
-3.1577
0
LINE
8
BLACK
6
CONTINUOUS
10
3.3566
20
-3.1577
11
3.37005
21
-3.15902
0
LINE
8
BLACK
6
CONTINUOUS
10
3.37005
20
-3.15902
11
6.01
21
-3.15902
0
LINE
8
BLACK
6
CONTINUOUS
10
6.01
20
-3.15902
11
6.01044
21
-3.15901
0
LINE
8
BLACK
6
CONTINUOUS
10
6.01044
20
-3.15901
11
6.02388
21
-3.1576
0
LINE
8
BLACK
6
CONTINUOUS
10
6.02388
20
-3.1576
11
6.03674
21
-3.15362
0
LINE
8
BLACK
6
CONTINUOUS
10
6.03674
20
-3.15362
11
6.04859
21
-3.14721
0
LINE
8
BLACK
6
CONTINUOUS
10
6.04859
20
-3.14721
11
6.05897
21
-3.13863
0
LINE
8
BLACK
6
CONTINUOUS
10
6.05897
20
-3.13863
11
6.06748
21
-3.12819
0
LINE
8
BLACK
6
CONTINUOUS
10
6.06748
20
-3.12819
11
6.0738
21
-3.1163
0
LINE
8
BLACK
6
CONTINUOUS
10
6.0738
20
-3.1163
11
6.0777
21
-3.1034
0
LINE
8
BLACK
6
CONTINUOUS
10
6.0777
20
-3.1034
11
6.07902
21
-3.08995
0
LINE
8
BLACK
6
CONTINUOUS
10
6.07902
20
-3.08995
11
6.07902
21
-2.48
0
LINE
8
BLACK
6
CONTINUOUS
10
6.07902
20
-2.48
11
6.07902
21
-2.48
0
LINE
8
BLACK
6
CONTINUOUS
10
6.07902
20
-2.48
11
6.07901
21
-2.47949
0
LINE
8
BLACK
6
CONTINUOUS
10
6.07901
20
-2.47949
11
6.0774
21
-2.46411
0
LINE
8
BLACK
6
CONTINUOUS
10
6.0774
20
-2.46411
11
6.07284
21
-2.44938
0
LINE
8
BLACK
6
CONTINUOUS
10
6.07284
20
-2.44938
11
6.0655
21
-2.43582
0
LINE
8
BLACK
6
CONTINUOUS
10
6.0655
20
-2.43582
11
6.05567
21
-2.42394
0
LINE
8
BLACK
6
CONTINUOUS
10
6.05567
20
-2.42394
11
6.04372
21
-2.41419
0
LINE
8
BLACK
6
CONTINUOUS
10
6.04372
20
-2.41419
11
6.03011
21
-2.40695
0
LINE
8
BLACK
6
CONTINUOUS
10
6.03011
20
-2.40695
11
6.01535
21
-2.40249
0
LINE
8
BLACK
6
CONTINUOUS
10
6.01535
20
-2.40249
11
5.99995
21
-2.40098
0
LINE
8
BLACK
6
CONTINUOUS
10
5.99995
20
-2.40098
11
3.38
21
-2.40098
0
LINE
8
BLACK
6
CONTINUOUS
10
3.33551
20
-3.0665
11
3.339
21
-3.05808
0
LINE
8
BLACK
6
CONTINUOUS
10
3.339
20
-3.05808
11
3.34406
21
-3.05051
0
LINE
8
BLACK
6
CONTINUOUS
10
3.34406
20
-3.05051
11
3.35051
21
-3.04406
0
LINE
8
BLACK
6
CONTINUOUS
10
3.35051
20
-3.04406
11
3.35808
21
-3.039
0
LINE
8
BLACK
6
CONTINUOUS
10
3.35808
20
-3.039
11
3.3665
21
-3.03551
0
LINE
8
BLACK
6
CONTINUOUS
10
3.3665
20
-3.03551
11
3.37544
21
-3.03373
0
LINE
8
BLACK
6
CONTINUOUS
10
3.37544
20
-3.03373
11
3.38456
21
-3.03373
0
LINE
8
BLACK
6
CONTINUOUS
10
3.38456
20
-3.03373
11
3.3935
21
-3.03551
0
LINE
8
BLACK
6
CONTINUOUS
10
3.3935
20
-3.03551
11
3.40192
21
-3.039
0
LINE
8
BLACK
6
CONTINUOUS
10
3.40192
20
-3.039
11
3.40949
21
-3.04406
0
LINE
8
BLACK
6
CONTINUOUS
10
3.40949
20
-3.04406
11
3.41594
21
-3.05051
0
LINE
8
BLACK
6
CONTINUOUS
10
3.41594
20
-3.05051
11
3.421
21
-3.05808
0
LINE
8
BLACK
6
CONTINUOUS
10
3.421
20
-3.05808
11
3.42449
21
-3.0665
0
LINE
8
BLACK
6
CONTINUOUS
10
3.42449
20
-3.0665
11
3.42627
21
-3.07544
0
LINE
8
BLACK
6
CONTINUOUS
10
3.42627
20
-3.07544
11
3.42627
21
-3.08456
0
LINE
8
BLACK
6
CONTINUOUS
10
3.42627
20
-3.08456
11
3.42449
21
-3.0935
0
LINE
8
BLACK
6
CONTINUOUS
10
3.42449
20
-3.0935
11
3.421
21
-3.10192
0
LINE
8
BLACK
6
CONTINUOUS
10
3.421
20
-3.10192
11
3.41594
21
-3.10949
0
LINE
8
BLACK
6
CONTINUOUS
10
3.41594
20
-3.10949
11
3.40949
21
-3.11594
0
LINE
8
BLACK
6
CONTINUOUS
10
3.40949
20
-3.11594
11
3.40192
21
-3.121
0
LINE
8
BLACK
6
CONTINUOUS
10
3.40192
20
-3.121
11
3.3935
21
-3.12449
0
LINE
8
BLACK
6
CONTINUOUS
10
3.3935
20
-3.12449
11
3.38456
21
-3.12627
0
LINE
8
BLACK
6
CONTINUOUS
10
3.38456
20
-3.12627
11
3.37544
21
-3.12627
0
LINE
8
BLACK
6
CONTINUOUS
10
3.37544
20
-3.12627
11
3.3665
21
-3.12449
0
LINE
8
BLACK
6
CONTINUOUS
10
3.3665
20
-3.12449
11
3.35808
21
-3.121
0
LINE
8
BLACK
6
CONTINUOUS
10
3.35808
20
-3.121
11
3.35051
21
-3.11594
0
LINE
8
BLACK
6
CONTINUOUS
10
3.35051
20
-3.11594
11
3.34406
21
-3.10949
0
LINE
8
BLACK
6
CONTINUOUS
10
3.34406
20
-3.10949
11
3.339
21
-3.10192
0
LINE
8
BLACK
6
CONTINUOUS
10
3.339
20
-3.10192
11
3.33551
21
-3.0935
0
LINE
8
BLACK
6
CONTINUOUS
10
3.33551
20
-3.0935
11
3.33373
21
-3.08456
0
LINE
8
BLACK
6
CONTINUOUS
10
3.33373
20
-3.08456
11
3.33373
21
-3.07544
0
LINE
8
BLACK
6
CONTINUOUS
10
3.33373
20
-3.07544
11
3.33551
21
-3.0665
0
LINE
8
BLACK
6
CONTINUOUS
10
3.33815
20
-3.0927
11
3.34143
21
-3.10062
0
LINE
8
BLACK
6
CONTINUOUS
10
3.34143
20
-3.10062
11
3.34619
21
-3.10775
0
LINE
8
BLACK
6
CONTINUOUS
10
3.34619
20
-3.10775
11
3.35225
21
-3.11381
0
LINE
8
BLACK
6
CONTINUOUS
10
3.35225
20
-3.11381
11
3.35938
21
-3.11857
0
LINE
8
BLACK
6
CONTINUOUS
10
3.35938
20
-3.11857
11
3.3673
21
-3.12185
0
LINE
8
BLACK
6
CONTINUOUS
10
3.3673
20
-3.12185
11
3.37571
21
-3.12353
0
LINE
8
BLACK
6
CONTINUOUS
10
3.37571
20
-3.12353
11
3.38429
21
-3.12353
0
LINE
8
BLACK
6
CONTINUOUS
10
3.38429
20
-3.12353
11
3.3927
21
-3.12185
0
LINE
8
BLACK
6
CONTINUOUS
10
3.3927
20
-3.12185
11
3.40062
21
-3.11857
0
LINE
8
BLACK
6
CONTINUOUS
10
3.40062
20
-3.11857
11
3.40775
21
-3.11381
0
LINE
8
BLACK
6
CONTINUOUS
10
3.40775
20
-3.11381
11
3.41381
21
-3.10775
0
LINE
8
BLACK
6
CONTINUOUS
10
3.41381
20
-3.10775
11
3.41857
21
-3.10062
0
LINE
8
BLACK
6
CONTINUOUS
10
3.41857
20
-3.10062
11
3.42185
21
-3.0927
0
LINE
8
BLACK
6
CONTINUOUS
10
3.42185
20
-3.0927
11
3.42353
21
-3.08429
0
LINE
8
BLACK
6
CONTINUOUS
10
3.42353
20
-3.08429
11
3.42353
21
-3.07571
0
LINE
8
BLACK
6
CONTINUOUS
10
3.42353
20
-3.07571
11
3.42185
21
-3.0673
0
LINE
8
BLACK
6
CONTINUOUS
10
3.42185
20
-3.0673
11
3.41857
21
-3.05938
0
LINE
8
BLACK
6
CONTINUOUS
10
3.41857
20
-3.05938
11
3.41381
21
-3.05225
0
LINE
8
BLACK
6
CONTINUOUS
10
3.41381
20
-3.05225
11
3.40775
21
-3.04619
0
LINE
8
BLACK
6
CONTINUOUS
10
3.40775
20
-3.04619
11
3.40062
21
-3.04143
0
LINE
8
BLACK
6
CONTINUOUS
10
3.40062
20
-3.04143
11
3.3927
21
-3.03815
0
LINE
8
BLACK
6
CONTINUOUS
10
3.3927
20
-3.03815
11
3.38429
21
-3.03647
0
LINE
8
BLACK
6
CONTINUOUS
10
3.38429
20
-3.03647
11
3.37571
21
-3.03647
0
LINE
8
BLACK
6
CONTINUOUS
10
3.37571
20
-3.03647
11
3.3673
21
-3.03815
0
LINE
8
BLACK
6
CONTINUOUS
10
3.3673
20
-3.03815
11
3.35938
21
-3.04143
0
LINE
8
BLACK
6
CONTINUOUS
10
3.35938
20
-3.04143
11
3.35225
21
-3.04619
0
LINE
8
BLACK
6
CONTINUOUS
10
3.35225
20
-3.04619
11
3.34619
21
-3.05225
0
LINE
8
BLACK
6
CONTINUOUS
10
3.34619
20
-3.05225
11
3.34143
21
-3.05938
0
LINE
8
BLACK
6
CONTINUOUS
10
3.34143
20
-3.05938
11
3.33815
21
-3.0673
0
LINE
8
BLACK
6
CONTINUOUS
10
3.33815
20
-3.0673
11
3.33647
21
-3.07571
0
LINE
8
BLACK
6
CONTINUOUS
10
3.33647
20
-3.07571
11
3.33647
21
-3.08429
0
LINE
8
BLACK
6
CONTINUOUS
10
3.33647
20
-3.08429
11
3.33815
21
-3.0927
0
LINE
8
BLACK
6
CONTINUOUS
10
5.94551
20
-3.0565
11
5.949
21
-3.04808
0
LINE
8
BLACK
6
CONTINUOUS
10
5.949
20
-3.04808
11
5.95406
21
-3.04051
0
LINE
8
BLACK
6
CONTINUOUS
10
5.95406
20
-3.04051
11
5.96051
21
-3.03406
0
LINE
8
BLACK
6
CONTINUOUS
10
5.96051
20
-3.03406
11
5.96808
21
-3.029
0
LINE
8
BLACK
6
CONTINUOUS
10
5.96808
20
-3.029
11
5.9765
21
-3.02551
0
LINE
8
BLACK
6
CONTINUOUS
10
5.9765
20
-3.02551
11
5.98544
21
-3.02373
0
LINE
8
BLACK
6
CONTINUOUS
10
5.98544
20
-3.02373
11
5.99456
21
-3.02373
0
LINE
8
BLACK
6
CONTINUOUS
10
5.99456
20
-3.02373
11
6.0035
21
-3.02551
0
LINE
8
BLACK
6
CONTINUOUS
10
6.0035
20
-3.02551
11
6.01192
21
-3.029
0
LINE
8
BLACK
6
CONTINUOUS
10
6.01192
20
-3.029
11
6.01949
21
-3.03406
0
LINE
8
BLACK
6
CONTINUOUS
10
6.01949
20
-3.03406
11
6.02594
21
-3.04051
0
LINE
8
BLACK
6
CONTINUOUS
10
6.02594
20
-3.04051
11
6.031
21
-3.04808
0
LINE
8
BLACK
6
CONTINUOUS
10
6.031
20
-3.04808
11
6.03449
21
-3.0565
0
LINE
8
BLACK
6
CONTINUOUS
10
6.03449
20
-3.0565
11
6.03627
21
-3.06544
0
LINE
8
BLACK
6
CONTINUOUS
10
6.03627
20
-3.06544
11
6.03627
21
-3.07456
0
LINE
8
BLACK
6
CONTINUOUS
10
6.03627
20
-3.07456
11
6.03449
21
-3.0835
0
LINE
8
BLACK
6
CONTINUOUS
10
6.03449
20
-3.0835
11
6.031
21
-3.09192
0
LINE
8
BLACK
6
CONTINUOUS
10
6.031
20
-3.09192
11
6.02594
21
-3.09949
0
LINE
8
BLACK
6
CONTINUOUS
10
6.02594
20
-3.09949
11
6.01949
21
-3.10594
0
LINE
8
BLACK
6
CONTINUOUS
10
6.01949
20
-3.10594
11
6.01192
21
-3.111
0
LINE
8
BLACK
6
CONTINUOUS
10
6.01192
20
-3.111
11
6.0035
21
-3.11449
0
LINE
8
BLACK
6
CONTINUOUS
10
6.0035
20
-3.11449
11
5.99456
21
-3.11627
0
LINE
8
BLACK
6
CONTINUOUS
10
5.99456
20
-3.11627
11
5.98544
21
-3.11627
0
LINE
8
BLACK
6
CONTINUOUS
10
5.98544
20
-3.11627
11
5.9765
21
-3.11449
0
LINE
8
BLACK
6
CONTINUOUS
10
5.9765
20
-3.11449
11
5.96808
21
-3.111
0
LINE
8
BLACK
6
CONTINUOUS
10
5.96808
20
-3.111
11
5.96051
21
-3.10594
0
LINE
8
BLACK
6
CONTINUOUS
10
5.96051
20
-3.10594
11
5.95406
21
-3.09949
0
LINE
8
BLACK
6
CONTINUOUS
10
5.95406
20
-3.09949
11
5.949
21
-3.09192
0
LINE
8
BLACK
6
CONTINUOUS
10
5.949
20
-3.09192
11
5.94551
21
-3.0835
0
LINE
8
BLACK
6
CONTINUOUS
10
5.94551
20
-3.0835
11
5.94373
21
-3.07456
0
LINE
8
BLACK
6
CONTINUOUS
10
5.94373
20
-3.07456
11
5.94373
21
-3.06544
0
LINE
8
BLACK
6
CONTINUOUS
10
5.94373
20
-3.06544
11
5.94551
21
-3.0565
0
LINE
8
BLACK
6
CONTINUOUS
10
5.94815
20
-3.0827
11
5.95143
21
-3.09062
0
LINE
8
BLACK
6
CONTINUOUS
10
5.95143
20
-3.09062
11
5.95619
21
-3.09775
0
LINE
8
BLACK
6
CONTINUOUS
10
5.95619
20
-3.09775
11
5.96225
21
-3.10381
0
LINE
8
BLACK
6
CONTINUOUS
10
5.96225
20
-3.10381
11
5.96938
21
-3.10857
0
LINE
8
BLACK
6
CONTINUOUS
10
5.96938
20
-3.10857
11
5.9773
21
-3.11185
0
LINE
8
BLACK
6
CONTINUOUS
10
5.9773
20
-3.11185
11
5.98571
21
-3.11353
0
LINE
8
BLACK
6
CONTINUOUS
10
5.98571
20
-3.11353
11
5.99429
21
-3.11353
0
LINE
8
BLACK
6
CONTINUOUS
10
5.99429
20
-3.11353
11
6.0027
21
-3.11185
0
LINE
8
BLACK
6
CONTINUOUS
10
6.0027
20
-3.11185
11
6.01062
21
-3.10857
0
LINE
8
BLACK
6
CONTINUOUS
10
6.01062
20
-3.10857
11
6.01775
21
-3.10381
0
LINE
8
BLACK
6
CONTINUOUS
10
6.01775
20
-3.10381
11
6.02381
21
-3.09775
0
LINE
8
BLACK
6
CONTINUOUS
10
6.02381
20
-3.09775
11
6.02857
21
-3.09062
0
LINE
8
BLACK
6
CONTINUOUS
10
6.02857
20
-3.09062
11
6.03185
21
-3.0827
0
LINE
8
BLACK
6
CONTINUOUS
10
6.03185
20
-3.0827
11
6.03353
21
-3.07429
0
LINE
8
BLACK
6
CONTINUOUS
10
6.03353
20
-3.07429
11
6.03353
21
-3.06571
0
LINE
8
BLACK
6
CONTINUOUS
10
6.03353
20
-3.06571
11
6.03185
21
-3.0573
0
LINE
8
BLACK
6
CONTINUOUS
10
6.03185
20
-3.0573
11
6.02857
21
-3.04938
0
LINE
8
BLACK
6
CONTINUOUS
10
6.02857
20
-3.04938
11
6.02381
21
-3.04225
0
LINE
8
BLACK
6
CONTINUOUS
10
6.02381
20
-3.04225
11
6.01775
21
-3.03619
0
LINE
8
BLACK
6
CONTINUOUS
10
6.01775
20
-3.03619
11
6.01062
21
-3.03143
0
LINE
8
BLACK
6
CONTINUOUS
10
6.01062
20
-3.03143
11
6.0027
21
-3.02815
0
LINE
8
BLACK
6
CONTINUOUS
10
6.0027
20
-3.02815
11
5.99429
21
-3.02647
0
LINE
8
BLACK
6
CONTINUOUS
10
5.99429
20
-3.02647
11
5.98571
21
-3.02647
0
LINE
8
BLACK
6
CONTINUOUS
10
5.98571
20
-3.02647
11
5.9773
21
-3.02815
0
LINE
8
BLACK
6
CONTINUOUS
10
5.9773
20
-3.02815
11
5.96938
21
-3.03143
0
LINE
8
BLACK
6
CONTINUOUS
10
5.96938
20
-3.03143
11
5.96225
21
-3.03619
0
LINE
8
BLACK
6
CONTINUOUS
10
5.96225
20
-3.03619
11
5.95619
21
-3.04225
0
LINE
8
BLACK
6
CONTINUOUS
10
5.95619
20
-3.04225
11
5.95143
21
-3.04938
0
LINE
8
BLACK
6
CONTINUOUS
10
5.95143
20
-3.04938
11
5.94815
21
-3.0573
0
LINE
8
BLACK
6
CONTINUOUS
10
5.94815
20
-3.0573
11
5.94647
21
-3.06571
0
LINE
8
BLACK
6
CONTINUOUS
10
5.94647
20
-3.06571
11
5.94647
21
-3.07429
0
LINE
8
BLACK
6
CONTINUOUS
10
5.94647
20
-3.07429
11
5.94815
21
-3.0827
0
LINE
8
BLACK
6
CONTINUOUS
10
5.94551
20
-2.4765
11
5.949
21
-2.46808
0
LINE
8
BLACK
6
CONTINUOUS
10
5.949
20
-2.46808
11
5.95406
21
-2.46051
0
LINE
8
BLACK
6
CONTINUOUS
10
5.95406
20
-2.46051
11
5.96051
21
-2.45406
0
LINE
8
BLACK
6
CONTINUOUS
10
5.96051
20
-2.45406
11
5.96808
21
-2.449
0
LINE
8
BLACK
6
CONTINUOUS
10
5.96808
20
-2.449
11
5.9765
21
-2.44551
0
LINE
8
BLACK
6
CONTINUOUS
10
5.9765
20
-2.44551
11
5.98544
21
-2.44373
0
LINE
8
BLACK
6
CONTINUOUS
10
5.98544
20
-2.44373
11
5.99456
21
-2.44373
0
LINE
8
BLACK
6
CONTINUOUS
10
5.99456
20
-2.44373
11
6.0035
21
-2.44551
0
LINE
8
BLACK
6
CONTINUOUS
10
6.0035
20
-2.44551
11
6.01192
21
-2.449
0
LINE
8
BLACK
6
CONTINUOUS
10
6.01192
20
-2.449
11
6.01949
21
-2.45406
0
LINE
8
BLACK
6
CONTINUOUS
10
6.01949
20
-2.45406
11
6.02594
21
-2.46051
0
LINE
8
BLACK
6
CONTINUOUS
10
6.02594
20
-2.46051
11
6.031
21
-2.46808
0
LINE
8
BLACK
6
CONTINUOUS
10
6.031
20
-2.46808
11
6.03449
21
-2.4765
0
LINE
8
BLACK
6
CONTINUOUS
10
6.03449
20
-2.4765
11
6.03627
21
-2.48544
0
LINE
8
BLACK
6
CONTINUOUS
10
6.03627
20
-2.48544
11
6.03627
21
-2.49456
0
LINE
8
BLACK
6
CONTINUOUS
10
6.03627
20
-2.49456
11
6.03449
21
-2.5035
0
LINE
8
BLACK
6
CONTINUOUS
10
6.03449
20
-2.5035
11
6.031
21
-2.51192
0
LINE
8
BLACK
6
CONTINUOUS
10
6.031
20
-2.51192
11
6.02594
21
-2.51949
0
LINE
8
BLACK
6
CONTINUOUS
10
6.02594
20
-2.51949
11
6.01949
21
-2.52594
0
LINE
8
BLACK
6
CONTINUOUS
10
6.01949
20
-2.52594
11
6.01192
21
-2.531
0
LINE
8
BLACK
6
CONTINUOUS
10
6.01192
20
-2.531
11
6.0035
21
-2.53449
0
LINE
8
BLACK
6
CONTINUOUS
10
6.0035
20
-2.53449
11
5.99456
21
-2.53627
0
LINE
8
BLACK
6
CONTINUOUS
10
5.99456
20
-2.53627
11
5.98544
21
-2.53627
0
LINE
8
BLACK
6
CONTINUOUS
10
5.98544
20
-2.53627
11
5.9765
21
-2.53449
0
LINE
8
BLACK
6
CONTINUOUS
10
5.9765
20
-2.53449
11
5.96808
21
-2.531
0
LINE
8
BLACK
6
CONTINUOUS
10
5.96808
20
-2.531
11
5.96051
21
-2.52594
0
LINE
8
BLACK
6
CONTINUOUS
10
5.96051
20
-2.52594
11
5.95406
21
-2.51949
0
LINE
8
BLACK
6
CONTINUOUS
10
5.95406
20
-2.51949
11
5.949
21
-2.51192
0
LINE
8
BLACK
6
CONTINUOUS
10
5.949
20
-2.51192
11
5.94551
21
-2.5035
0
LINE
8
BLACK
6
CONTINUOUS
10
5.94551
20
-2.5035
11
5.94373
21
-2.49456
0
LINE
8
BLACK
6
CONTINUOUS
10
5.94373
20
-2.49456
11
5.94373
21
-2.48544
0
LINE
8
BLACK
6
CONTINUOUS
10
5.94373
20
-2.48544
11
5.94551
21
-2.4765
0
LINE
8
BLACK
6
CONTINUOUS
10
5.94815
20
-2.5027
11
5.95143
21
-2.51062
0
LINE
8
BLACK
6
CONTINUOUS
10
5.95143
20
-2.51062
11
5.95619
21
-2.51775
0
LINE
8
BLACK
6
CONTINUOUS
10
5.95619
20
-2.51775
11
5.96225
21
-2.52381
0
LINE
8
BLACK
6
CONTINUOUS
10
5.96225
20
-2.52381
11
5.96938
21
-2.52857
0
LINE
8
BLACK
6
CONTINUOUS
10
5.96938
20
-2.52857
11
5.9773
21
-2.53185
0
LINE
8
BLACK
6
CONTINUOUS
10
5.9773
20
-2.53185
11
5.98571
21
-2.53353
0
LINE
8
BLACK
6
CONTINUOUS
10
5.98571
20
-2.53353
11
5.99429
21
-2.53353
0
LINE
8
BLACK
6
CONTINUOUS
10
5.99429
20
-2.53353
11
6.0027
21
-2.53185
0
LINE
8
BLACK
6
CONTINUOUS
10
6.0027
20
-2.53185
11
6.01062
21
-2.52857
0
LINE
8
BLACK
6
CONTINUOUS
10
6.01062
20
-2.52857
11
6.01775
21
-2.52381
0
LINE
8
BLACK
6
CONTINUOUS
10
6.01775
20
-2.52381
11
6.02381
21
-2.51775
0
LINE
8
BLACK
6
CONTINUOUS
10
6.02381
20
-2.51775
11
6.02857
21
-2.51062
0
LINE
8
BLACK
6
CONTINUOUS
10
6.02857
20
-2.51062
11
6.03185
21
-2.5027
0
LINE
8
BLACK
6
CONTINUOUS
10
6.03185
20
-2.5027
11
6.03353
21
-2.49429
0
LINE
8
BLACK
6
CONTINUOUS
10
6.03353
20
-2.49429
11
6.03353
21
-2.48571
0
LINE
8
BLACK
6
CONTINUOUS
10
6.03353
20
-2.48571
11
6.03185
21
-2.4773
0
LINE
8
BLACK
6
CONTINUOUS
10
6.03185
20
-2.4773
11
6.02857
21
-2.46938
0
LINE
8
BLACK
6
CONTINUOUS
10
6.02857
20
-2.46938
11
6.02381
21
-2.46225
0
LINE
8
BLACK
6
CONTINUOUS
10
6.02381
20
-2.46225
11
6.01775
21
-2.45619
0
LINE
8
BLACK
6
CONTINUOUS
10
6.01775
20
-2.45619
11
6.01062
21
-2.45143
0
LINE
8
BLACK
6
CONTINUOUS
10
6.01062
20
-2.45143
11
6.0027
21
-2.44815
0
LINE
8
BLACK
6
CONTINUOUS
10
6.0027
20
-2.44815
11
5.99429
21
-2.44647
0
LINE
8
BLACK
6
CONTINUOUS
10
5.99429
20
-2.44647
11
5.98571
21
-2.44647
0
LINE
8
BLACK
6
CONTINUOUS
10
5.98571
20
-2.44647
11
5.9773
21
-2.44815
0
LINE
8
BLACK
6
CONTINUOUS
10
5.9773
20
-2.44815
11
5.96938
21
-2.45143
0
LINE
8
BLACK
6
CONTINUOUS
10
5.96938
20
-2.45143
11
5.96225
21
-2.45619
0
LINE
8
BLACK
6
CONTINUOUS
10
5.96225
20
-2.45619
11
5.95619
21
-2.46225
0
LINE
8
BLACK
6
CONTINUOUS
10
5.95619
20
-2.46225
11
5.95143
21
-2.46938
0
LINE
8
BLACK
6
CONTINUOUS
10
5.95143
20
-2.46938
11
5.94815
21
-2.4773
0
LINE
8
BLACK
6
CONTINUOUS
10
5.94815
20
-2.4773
11
5.94647
21
-2.48571
0
LINE
8
BLACK
6
CONTINUOUS
10
5.94647
20
-2.48571
11
5.94647
21
-2.49429
0
LINE
8
BLACK
6
CONTINUOUS
10
5.94647
20
-2.49429
11
5.94815
21
-2.5027
0
LINE
8
BLACK
6
CONTINUOUS
10
3.33551
20
-2.4665
11
3.339
21
-2.45808
0
LINE
8
BLACK
6
CONTINUOUS
10
3.339
20
-2.45808
11
3.34406
21
-2.45051
0
LINE
8
BLACK
6
CONTINUOUS
10
3.34406
20
-2.45051
11
3.35051
21
-2.44406
0
LINE
8
BLACK
6
CONTINUOUS
10
3.35051
20
-2.44406
11
3.35808
21
-2.439
0
LINE
8
BLACK
6
CONTINUOUS
10
3.35808
20
-2.439
11
3.3665
21
-2.43551
0
LINE
8
BLACK
6
CONTINUOUS
10
3.3665
20
-2.43551
11
3.37544
21
-2.43373
0
LINE
8
BLACK
6
CONTINUOUS
10
3.37544
20
-2.43373
11
3.38456
21
-2.43373
0
LINE
8
BLACK
6
CONTINUOUS
10
3.38456
20
-2.43373
11
3.3935
21
-2.43551
0
LINE
8
BLACK
6
CONTINUOUS
10
3.3935
20
-2.43551
11
3.40192
21
-2.439
0
LINE
8
BLACK
6
CONTINUOUS
10
3.40192
20
-2.439
11
3.40949
21
-2.44406
0
LINE
8
BLACK
6
CONTINUOUS
10
3.40949
20
-2.44406
11
3.41594
21
-2.45051
0
LINE
8
BLACK
6
CONTINUOUS
10
3.41594
20
-2.45051
11
3.421
21
-2.45808
0
LINE
8
BLACK
6
CONTINUOUS
10
3.421
20
-2.45808
11
3.42449
21
-2.4665
0
LINE
8
BLACK
6
CONTINUOUS
10
3.42449
20
-2.4665
11
3.42627
21
-2.47544
0
LINE
8
BLACK
6
CONTINUOUS
10
3.42627
20
-2.47544
11
3.42627
21
-2.48456
0
LINE
8
BLACK
6
CONTINUOUS
10
3.42627
20
-2.48456
11
3.42449
21
-2.4935
0
LINE
8
BLACK
6
CONTINUOUS
10
3.42449
20
-2.4935
11
3.421
21
-2.50192
0
LINE
8
BLACK
6
CONTINUOUS
10
3.421
20
-2.50192
11
3.41594
21
-2.50949
0
LINE
8
BLACK
6
CONTINUOUS
10
3.41594
20
-2.50949
11
3.40949
21
-2.51594
0
LINE
8
BLACK
6
CONTINUOUS
10
3.40949
20
-2.51594
11
3.40192
21
-2.521
0
LINE
8
BLACK
6
CONTINUOUS
10
3.40192
20
-2.521
11
3.3935
21
-2.52449
0
LINE
8
BLACK
6
CONTINUOUS
10
3.3935
20
-2.52449
11
3.38456
21
-2.52627
0
LINE
8
BLACK
6
CONTINUOUS
10
3.38456
20
-2.52627
11
3.37544
21
-2.52627
0
LINE
8
BLACK
6
CONTINUOUS
10
3.37544
20
-2.52627
11
3.3665
21
-2.52449
0
LINE
8
BLACK
6
CONTINUOUS
10
3.3665
20
-2.52449
11
3.35808
21
-2.521
0
LINE
8
BLACK
6
CONTINUOUS
10
3.35808
20
-2.521
11
3.35051
21
-2.51594
0
LINE
8
BLACK
6
CONTINUOUS
10
3.35051
20
-2.51594
11
3.34406
21
-2.50949
0
LINE
8
BLACK
6
CONTINUOUS
10
3.34406
20
-2.50949
11
3.339
21
-2.50192
0
LINE
8
BLACK
6
CONTINUOUS
10
3.339
20
-2.50192
11
3.33551
21
-2.4935
0
LINE
8
BLACK
6
CONTINUOUS
10
3.33551
20
-2.4935
11
3.33373
21
-2.48456
0
LINE
8
BLACK
6
CONTINUOUS
10
3.33373
20
-2.48456
11
3.33373
21
-2.47544
0
LINE
8
BLACK
6
CONTINUOUS
10
3.33373
20
-2.47544
11
3.33551
21
-2.4665
0
LINE
8
BLACK
6
CONTINUOUS
10
3.33815
20
-2.4927
11
3.34143
21
-2.50062
0
LINE
8
BLACK
6
CONTINUOUS
10
3.34143
20
-2.50062
11
3.34619
21
-2.50775
0
LINE
8
BLACK
6
CONTINUOUS
10
3.34619
20
-2.50775
11
3.35225
21
-2.51381
0
LINE
8
BLACK
6
CONTINUOUS
10
3.35225
20
-2.51381
11
3.35938
21
-2.51857
0
LINE
8
BLACK
6
CONTINUOUS
10
3.35938
20
-2.51857
11
3.3673
21
-2.52185
0
LINE
8
BLACK
6
CONTINUOUS
10
3.3673
20
-2.52185
11
3.37571
21
-2.52353
0
LINE
8
BLACK
6
CONTINUOUS
10
3.37571
20
-2.52353
11
3.38429
21
-2.52353
0
LINE
8
BLACK
6
CONTINUOUS
10
3.38429
20
-2.52353
11
3.3927
21
-2.52185
0
LINE
8
BLACK
6
CONTINUOUS
10
3.3927
20
-2.52185
11
3.40062
21
-2.51857
0
LINE
8
BLACK
6
CONTINUOUS
10
3.40062
20
-2.51857
11
3.40775
21
-2.51381
0
LINE
8
BLACK
6
CONTINUOUS
10
3.40775
20
-2.51381
11
3.41381
21
-2.50775
0
LINE
8
BLACK
6
CONTINUOUS
10
3.41381
20
-2.50775
11
3.41857
21
-2.50062
0
LINE
8
BLACK
6
CONTINUOUS
10
3.41857
20
-2.50062
11
3.42185
21
-2.4927
0
LINE
8
BLACK
6
CONTINUOUS
10
3.42185
20
-2.4927
11
3.42353
21
-2.48429
0
LINE
8
BLACK
6
CONTINUOUS
10
3.42353
20
-2.48429
11
3.42353
21
-2.47571
0
LINE
8
BLACK
6
CONTINUOUS
10
3.42353
20
-2.47571
11
3.42185
21
-2.4673
0
LINE
8
BLACK
6
CONTINUOUS
10
3.42185
20
-2.4673
11
3.41857
21
-2.45938
0
LINE
8
BLACK
6
CONTINUOUS
10
3.41857
20
-2.45938
11
3.41381
21
-2.45225
0
LINE
8
BLACK
6
CONTINUOUS
10
3.41381
20
-2.45225
11
3.40775
21
-2.44619
0
LINE
8
BLACK
6
CONTINUOUS
10
3.40775
20
-2.44619
11
3.40062
21
-2.44143
0
LINE
8
BLACK
6
CONTINUOUS
10
3.40062
20
-2.44143
11
3.3927
21
-2.43815
0
LINE
8
BLACK
6
CONTINUOUS
10
3.3927
20
-2.43815
11
3.38429
21
-2.43647
0
LINE
8
BLACK
6
CONTINUOUS
10
3.38429
20
-2.43647
11
3.37571
21
-2.43647
0
LINE
8
BLACK
6
CONTINUOUS
10
3.37571
20
-2.43647
11
3.3673
21
-2.43815
0
LINE
8
BLACK
6
CONTINUOUS
10
3.3673
20
-2.43815
11
3.35938
21
-2.44143
0
LINE
8
BLACK
6
CONTINUOUS
10
3.35938
20
-2.44143
11
3.35225
21
-2.44619
0
LINE
8
BLACK
6
CONTINUOUS
10
3.35225
20
-2.44619
11
3.34619
21
-2.45225
0
LINE
8
BLACK
6
CONTINUOUS
10
3.34619
20
-2.45225
11
3.34143
21
-2.45938
0
LINE
8
BLACK
6
CONTINUOUS
10
3.34143
20
-2.45938
11
3.33815
21
-2.4673
0
LINE
8
BLACK
6
CONTINUOUS
10
3.33815
20
-2.4673
11
3.33647
21
-2.47571
0
LINE
8
BLACK
6
CONTINUOUS
10
3.33647
20
-2.47571
11
3.33647
21
-2.48429
0
LINE
8
BLACK
6
CONTINUOUS
10
3.33647
20
-2.48429
11
3.33815
21
-2.4927
  0
ENDSEC
  0
EOF
