M48
; DRILL file {KiCad (5.1.10)-1} date 06/10/21 02:24:47
; FORMAT={-:-/ absolute / metric / decimal}
; #@! TF.CreationDate,2021-06-10T02:24:47+02:00
; #@! TF.GenerationSoftware,Kicad,Pcbnew,(5.1.10)-1
; #@! TF.FileFunction,Plated,1,2,PTH
FMAT,2
METRIC
T1C0.800
T2C1.000
%
G90
G05
T1
X92.202Y-77.216
X94.234Y-68.914
X94.234Y-73.914
X107.442Y-77.216
X110.49Y-74.676
X110.49Y-77.216
X118.11Y-74.676
X118.11Y-77.216
X121.666Y-69.088
X121.666Y-73.152
X121.666Y-77.47
X129.286Y-77.47
X136.906Y-69.088
X136.906Y-73.152
T2
X86.36Y-66.294
X86.36Y-68.834
X86.36Y-71.374
X86.36Y-73.914
X88.9Y-66.294
X88.9Y-68.834
X88.9Y-71.374
X88.9Y-73.914
X99.314Y-66.548
X99.314Y-69.088
X99.314Y-71.628
X115.062Y-64.77
X115.062Y-69.77
X122.922Y-64.516
X127.922Y-64.516
X132.922Y-64.516
X137.922Y-64.516
X142.748Y-67.056
X145.288Y-67.056
X147.828Y-67.056
T0
M30
